Jaldi-Bold.ufo
<glyph name="ampersand" format="1">
  <advance width="291"/>
  <unicode hex="0026"/>
  <outline>
    <contour>
      <point x="281.5" y="52.5" type="curve" smooth="yes"/>
      <point x="291" y="52.5"/>
      <point x="296" y="23"/>
      <point x="296" y="19" type="curve" smooth="yes"/>
      <point x="296" y="-2.5"/>
      <point x="265.5" y="-3.5"/>
      <point x="251" y="-3.5" type="curve" smooth="yes"/>
      <point x="229" y="-3.5"/>
      <point x="212" y="2.5"/>
      <point x="200.5" y="15" type="curve"/>
      <point x="174.5" y="2"/>
      <point x="153" y="-3.5"/>
      <point x="116" y="-3.5" type="curve" smooth="yes"/>
      <point x="54" y="-3.5"/>
      <point x="10.5" y="33"/>
      <point x="10.5" y="95" type="curve" smooth="yes"/>
      <point x="10.5" y="133.5"/>
      <point x="28" y="164.5"/>
      <point x="65" y="178.5" type="curve"/>
      <point x="65" y="180.5" type="line"/>
      <point x="38" y="191.5"/>
      <point x="21.5" y="216"/>
      <point x="21.5" y="248.5" type="curve" smooth="yes"/>
      <point x="21.5" y="298"/>
      <point x="58.5" y="330"/>
      <point x="117" y="330" type="curve" smooth="yes"/>
      <point x="138.5" y="330"/>
      <point x="168" y="328.5"/>
      <point x="168" y="310.5" type="curve" smooth="yes"/>
      <point x="168" y="288"/>
      <point x="160" y="272"/>
      <point x="152" y="272" type="curve" smooth="yes"/>
      <point x="149.5" y="272"/>
      <point x="140" y="275.5"/>
      <point x="129" y="275.5" type="curve" smooth="yes"/>
      <point x="104" y="275.5"/>
      <point x="91.5" y="260"/>
      <point x="91.5" y="237" type="curve" smooth="yes"/>
      <point x="91.5" y="214"/>
      <point x="109" y="198.5"/>
      <point x="139.5" y="198.5" type="curve" smooth="yes"/>
      <point x="183" y="198.5" type="line"/>
      <point x="189" y="243" type="line" smooth="yes"/>
      <point x="190.5" y="252.5"/>
      <point x="199" y="257.5"/>
      <point x="214.5" y="257.5" type="curve" smooth="yes"/>
      <point x="229" y="257.5" type="line" smooth="yes"/>
      <point x="245" y="257.5"/>
      <point x="252" y="252.5"/>
      <point x="252" y="243" type="curve" smooth="yes"/>
      <point x="252" y="198.5" type="line"/>
      <point x="275" y="198.5" type="line" smooth="yes"/>
      <point x="284.5" y="198.5"/>
      <point x="289" y="191.5"/>
      <point x="289" y="175" type="curve" smooth="yes"/>
      <point x="289" y="167.5" type="line" smooth="yes"/>
      <point x="289" y="151"/>
      <point x="284.5" y="144"/>
      <point x="275" y="144" type="curve" smooth="yes"/>
      <point x="252" y="144" type="line"/>
      <point x="252" y="71" type="line" smooth="yes"/>
      <point x="252" y="57"/>
      <point x="257" y="51"/>
      <point x="269" y="51" type="curve" smooth="yes"/>
      <point x="273" y="51"/>
      <point x="278.5" y="52.5"/>
    </contour>
    <contour>
      <point x="80.5" y="96" type="curve" smooth="yes"/>
      <point x="80.5" y="67"/>
      <point x="99.5" y="51"/>
      <point x="127" y="51" type="curve" smooth="yes"/>
      <point x="143.5" y="51"/>
      <point x="160.5" y="53.5"/>
      <point x="183" y="63.5" type="curve"/>
      <point x="183" y="144" type="line"/>
      <point x="135" y="144" type="line" smooth="yes"/>
      <point x="96" y="144"/>
      <point x="80.5" y="127"/>
    </contour>
  </outline>
</glyph>
<glyph name="quotesingle" format="1">
  <advance width="86"/>
  <unicode hex="0027"/>
  <outline>
    <contour>
      <point x="40" y="216" type="line" smooth="yes"/>
      <point x="30.5" y="216"/>
      <point x="25.5" y="220.5"/>
      <point x="24" y="230" type="curve" smooth="yes"/>
      <point x="14" y="310" type="line"/>
      <point x="14" y="312" type="line" smooth="yes"/>
      <point x="14" y="322"/>
      <point x="22.5" y="327"/>
      <point x="42" y="327" type="curve" smooth="yes"/>
      <point x="46.5" y="327" type="line" smooth="yes"/>
      <point x="66" y="327"/>
      <point x="74.5" y="322"/>
      <point x="74.5" y="312" type="curve" smooth="yes"/>
      <point x="74.5" y="308.5"/>
      <point x="67.5" y="257.5"/>
      <point x="64.5" y="230" type="curve" smooth="yes"/>
      <point x="63" y="220.5"/>
      <point x="58" y="216"/>
      <point x="48.5" y="216" type="curve" smooth="yes"/>
    </contour>
  </outline>
</glyph>
<glyph name="parenright" format="1">
  <advance width="141"/>
  <unicode hex="0029"/>
  <outline>
    <contour>
      <point x="32.5" y="-97" type="curve" smooth="yes"/>
      <point x="23.5" y="-97"/>
      <point x="6" y="-86"/>
      <point x="6" y="-75.5" type="curve" smooth="yes"/>
      <point x="6" y="-72.5"/>
      <point x="6.5" y="-69.5"/>
      <point x="8.5" y="-66" type="curve" smooth="yes"/>
      <point x="46" y="4.5"/>
      <point x="60.5" y="64.5"/>
      <point x="60.5" y="133.5" type="curve" smooth="yes"/>
      <point x="60.5" y="203.5"/>
      <point x="46" y="263.5"/>
      <point x="8.5" y="334" type="curve" smooth="yes"/>
      <point x="6.5" y="337.5"/>
      <point x="6" y="340.5"/>
      <point x="6" y="343.5" type="curve" smooth="yes"/>
      <point x="6" y="354"/>
      <point x="23.5" y="365"/>
      <point x="32.5" y="365" type="curve" smooth="yes"/>
      <point x="37.5" y="365"/>
      <point x="41.5" y="362.5"/>
      <point x="45" y="357.5" type="curve" smooth="yes"/>
      <point x="90.5" y="292.5"/>
      <point x="115" y="215"/>
      <point x="115" y="133.5" type="curve" smooth="yes"/>
      <point x="115" y="52.5"/>
      <point x="90.5" y="-24.5"/>
      <point x="45" y="-89.5" type="curve" smooth="yes"/>
      <point x="41.5" y="-94.5"/>
      <point x="37.5" y="-97"/>
    </contour>
  </outline>
</glyph>
<glyph name="asterisk" format="1">
  <advance width="174"/>
  <unicode hex="002A"/>
  <outline>
    <contour>
      <point x="46" y="191.5" type="curve" smooth="yes"/>
      <point x="39.5" y="191.5"/>
      <point x="30.5" y="199.5"/>
      <point x="30.5" y="205" type="curve" smooth="yes"/>
      <point x="30.5" y="208"/>
      <point x="31.5" y="211"/>
      <point x="34.5" y="214.5" type="curve" smooth="yes"/>
      <point x="60.5" y="251" type="line"/>
      <point x="25.5" y="262.5" type="line" smooth="yes"/>
      <point x="18.5" y="264.5"/>
      <point x="15.5" y="268"/>
      <point x="15.5" y="273" type="curve" smooth="yes"/>
      <point x="15.5" y="279.5"/>
      <point x="18.5" y="290.5"/>
      <point x="28.5" y="290.5" type="curve" smooth="yes"/>
      <point x="30.5" y="290.5"/>
      <point x="32.5" y="290"/>
      <point x="35" y="289.5" type="curve" smooth="yes"/>
      <point x="71" y="277.5" type="line"/>
      <point x="71" y="316" type="line" smooth="yes"/>
      <point x="71" y="325.5"/>
      <point x="75" y="330"/>
      <point x="85" y="330" type="curve" smooth="yes"/>
      <point x="94.5" y="330"/>
      <point x="99" y="325.5"/>
      <point x="99" y="316" type="curve" smooth="yes"/>
      <point x="99" y="277.5" type="line"/>
      <point x="133.5" y="289.5" type="line" smooth="yes"/>
      <point x="136" y="290"/>
      <point x="138" y="290.5"/>
      <point x="140" y="290.5" type="curve" smooth="yes"/>
      <point x="146" y="290.5"/>
      <point x="153.5" y="284.5"/>
      <point x="153.5" y="273" type="curve" smooth="yes"/>
      <point x="153.5" y="267.5"/>
      <point x="150" y="264.5"/>
      <point x="143" y="262.5" type="curve" smooth="yes"/>
      <point x="107.5" y="251" type="line"/>
      <point x="134" y="214.5" type="line" smooth="yes"/>
      <point x="137" y="211"/>
      <point x="138" y="208"/>
      <point x="138" y="205" type="curve" smooth="yes"/>
      <point x="138" y="199.5"/>
      <point x="128.5" y="191.5"/>
      <point x="122.5" y="191.5" type="curve" smooth="yes"/>
      <point x="119" y="191.5"/>
      <point x="115" y="194"/>
      <point x="112" y="198.5" type="curve" smooth="yes"/>
      <point x="84.5" y="237" type="line"/>
      <point x="57" y="198.5" type="line" smooth="yes"/>
      <point x="53" y="193.5"/>
      <point x="49.5" y="191.5"/>
    </contour>
  </outline>
</glyph>
<glyph name="plus" format="1">
  <advance width="261"/>
  <unicode hex="002B"/>
  <outline>
    <contour>
      <point x="127" y="0" type="line" smooth="yes"/>
      <point x="110.5" y="0"/>
      <point x="103.5" y="4"/>
      <point x="103.5" y="14" type="curve" smooth="yes"/>
      <point x="103.5" y="85" type="line"/>
      <point x="33" y="85" type="line" smooth="yes"/>
      <point x="23.5" y="85"/>
      <point x="19" y="92"/>
      <point x="19" y="108" type="curve" smooth="yes"/>
      <point x="19" y="111.5" type="line" smooth="yes"/>
      <point x="19" y="127.5"/>
      <point x="23.5" y="134.5"/>
      <point x="33" y="134.5" type="curve" smooth="yes"/>
      <point x="103.5" y="134.5" type="line"/>
      <point x="103.5" y="206.5" type="line" smooth="yes"/>
      <point x="103.5" y="216"/>
      <point x="110.5" y="220.5"/>
      <point x="127" y="220.5" type="curve" smooth="yes"/>
      <point x="133.5" y="220.5" type="line" smooth="yes"/>
      <point x="149.5" y="220.5"/>
      <point x="156.5" y="216"/>
      <point x="156.5" y="206.5" type="curve" smooth="yes"/>
      <point x="156.5" y="134.5" type="line"/>
      <point x="228" y="134.5" type="line" smooth="yes"/>
      <point x="237.5" y="134.5"/>
      <point x="242" y="127.5"/>
      <point x="242" y="111.5" type="curve" smooth="yes"/>
      <point x="242" y="108" type="line" smooth="yes"/>
      <point x="242" y="92"/>
      <point x="237.5" y="85"/>
      <point x="228" y="85" type="curve" smooth="yes"/>
      <point x="156.5" y="85" type="line"/>
      <point x="156.5" y="14" type="line" smooth="yes"/>
      <point x="156.5" y="4"/>
      <point x="149.5" y="0"/>
      <point x="133.5" y="0" type="curve" smooth="yes"/>
    </contour>
  </outline>
</glyph>
<glyph name="one" format="1">
  <advance width="250"/>
  <unicode hex="0031"/>
  <outline>
    <contour>
      <point x="33.5" y="0" type="line" smooth="yes"/>
      <point x="24" y="0"/>
      <point x="19.5" y="7"/>
      <point x="19.5" y="23.5" type="curve" smooth="yes"/>
      <point x="19.5" y="31" type="line" smooth="yes"/>
      <point x="19.5" y="47.5"/>
      <point x="24" y="54.5"/>
      <point x="33.5" y="54.5" type="curve" smooth="yes"/>
      <point x="95.5" y="54.5" type="line"/>
      <point x="95.5" y="264" type="line"/>
      <point x="32" y="254.5" type="line" smooth="yes"/>
      <point x="20" y="254.5"/>
      <point x="17" y="280.5"/>
      <point x="17" y="293.5" type="curve" smooth="yes"/>
      <point x="17" y="300.5"/>
      <point x="21.5" y="305"/>
      <point x="29.5" y="306.5" type="curve" smooth="yes"/>
      <point x="145.5" y="328" type="line" smooth="yes"/>
      <point x="153" y="328"/>
      <point x="164.5" y="322.5"/>
      <point x="164.5" y="317" type="curve" smooth="yes"/>
      <point x="164.5" y="54.5" type="line"/>
      <point x="214.5" y="54.5" type="line" smooth="yes"/>
      <point x="224" y="54.5"/>
      <point x="228.5" y="47.5"/>
      <point x="228.5" y="31" type="curve" smooth="yes"/>
      <point x="228.5" y="23.5" type="line" smooth="yes"/>
      <point x="228.5" y="7"/>
      <point x="224" y="0"/>
      <point x="214.5" y="0" type="curve" smooth="yes"/>
    </contour>
  </outline>
</glyph>
<glyph name="five" format="1">
  <advance width="250"/>
  <unicode hex="0035"/>
  <outline>
    <contour>
      <point x="109" y="-3.5" type="curve" smooth="yes"/>
      <point x="56.5" y="-3.5"/>
      <point x="17.5" y="11"/>
      <point x="17.5" y="30" type="curve" smooth="yes"/>
      <point x="17.5" y="38"/>
      <point x="32" y="66.5"/>
      <point x="43" y="66.5" type="curve" smooth="yes"/>
      <point x="48" y="66.5"/>
      <point x="71.5" y="51"/>
      <point x="108.5" y="51" type="curve" smooth="yes"/>
      <point x="139" y="51"/>
      <point x="158.5" y="68.5"/>
      <point x="158.5" y="99" type="curve" smooth="yes"/>
      <point x="158.5" y="131.5"/>
      <point x="143" y="150.5"/>
      <point x="100" y="150.5" type="curve" smooth="yes"/>
      <point x="49.5" y="150.5" type="line" smooth="yes"/>
      <point x="36" y="150.5"/>
      <point x="32" y="156"/>
      <point x="32" y="169" type="curve" smooth="yes"/>
      <point x="41" y="307.5" type="line" smooth="yes"/>
      <point x="42" y="320.5"/>
      <point x="47" y="326"/>
      <point x="60.5" y="326" type="curve" smooth="yes"/>
      <point x="198" y="326" type="line" smooth="yes"/>
      <point x="208" y="326"/>
      <point x="212" y="319"/>
      <point x="212" y="303" type="curve" smooth="yes"/>
      <point x="212" y="290.5" type="line" smooth="yes"/>
      <point x="212" y="277.5"/>
      <point x="208" y="271.5"/>
      <point x="198" y="271.5" type="curve" smooth="yes"/>
      <point x="104" y="271.5" type="line"/>
      <point x="99.5" y="205" type="line"/>
      <point x="111.5" y="205" type="line" smooth="yes"/>
      <point x="181.5" y="205"/>
      <point x="228.5" y="181"/>
      <point x="228.5" y="100.5" type="curve" smooth="yes"/>
      <point x="228.5" y="22"/>
      <point x="165.5" y="-3.5"/>
    </contour>
  </outline>
</glyph>
<glyph name="semicolon" format="1">
  <advance width="93"/>
  <unicode hex="003B"/>
  <outline>
    <contour>
      <point x="38" y="172" type="line" smooth="yes"/>
      <point x="18.5" y="172"/>
      <point x="10.5" y="177"/>
      <point x="10.5" y="187" type="curve" smooth="yes"/>
      <point x="10.5" y="229.5" type="line" smooth="yes"/>
      <point x="10.5" y="239.5"/>
      <point x="18.5" y="244.5"/>
      <point x="38" y="244.5" type="curve" smooth="yes"/>
      <point x="53" y="244.5" type="line" smooth="yes"/>
      <point x="72.5" y="244.5"/>
      <point x="81" y="239.5"/>
      <point x="81" y="229.5" type="curve" smooth="yes"/>
      <point x="81" y="187" type="line" smooth="yes"/>
      <point x="81" y="177"/>
      <point x="72.5" y="172"/>
      <point x="53" y="172" type="curve" smooth="yes"/>
    </contour>
    <contour>
      <point x="17" y="-58" type="curve" smooth="yes"/>
      <point x="8.5" y="-58"/>
      <point x="-4" y="-55.5"/>
      <point x="-4" y="-48" type="curve" smooth="yes"/>
      <point x="-4" y="-44"/>
      <point x="-2.5" y="-38.5"/>
      <point x="0" y="-32.5" type="curve" smooth="yes"/>
      <point x="6" y="-17.5"/>
      <point x="16.5" y="5.5"/>
      <point x="16.5" y="51.5" type="curve" smooth="yes"/>
      <point x="16.5" y="64"/>
      <point x="24.5" y="72"/>
      <point x="44.5" y="72" type="curve" smooth="yes"/>
      <point x="53" y="72" type="line" smooth="yes"/>
      <point x="72.5" y="72"/>
      <point x="81" y="63"/>
      <point x="81" y="51.5" type="curve" smooth="yes"/>
      <point x="81" y="-1"/>
      <point x="37.5" y="-58"/>
    </contour>
  </outline>
</glyph>
<glyph name="at" format="1">
  <advance width="454"/>
  <unicode hex="0040"/>
  <outline>
    <contour>
      <point x="249" y="330" type="curve" smooth="yes"/>
      <point x="342.5" y="330"/>
      <point x="404" y="270"/>
      <point x="404" y="178.5" type="curve" smooth="yes"/>
      <point x="404" y="94"/>
      <point x="356.5" y="27"/>
      <point x="295.5" y="27" type="curve" smooth="yes"/>
      <point x="266" y="27"/>
      <point x="248" y="42"/>
      <point x="242.5" y="57" type="curve"/>
      <point x="232" y="40"/>
      <point x="213" y="27"/>
      <point x="189.5" y="27" type="curve" smooth="yes"/>
      <point x="152" y="27"/>
      <point x="127" y="56.5"/>
      <point x="127" y="111.5" type="curve" smooth="yes"/>
      <point x="127" y="186.5"/>
      <point x="162" y="236.5"/>
      <point x="213" y="236.5" type="curve" smooth="yes"/>
      <point x="235.5" y="236.5"/>
      <point x="252.5" y="223.5"/>
      <point x="260.5" y="216" type="curve"/>
      <point x="264" y="229"/>
      <point x="267.5" y="234.5"/>
      <point x="284.5" y="234.5" type="curve" smooth="yes"/>
      <point x="290.5" y="234.5" type="line" smooth="yes"/>
      <point x="306" y="234.5"/>
      <point x="312" y="229.5"/>
      <point x="312" y="222.5" type="curve" smooth="yes"/>
      <point x="312" y="220"/>
      <point x="298" y="91"/>
      <point x="298" y="82.5" type="curve" smooth="yes"/>
      <point x="298" y="71.5"/>
      <point x="303" y="65.5"/>
      <point x="314" y="65.5" type="curve" smooth="yes"/>
      <point x="346.5" y="65.5"/>
      <point x="374" y="117.5"/>
      <point x="374" y="178.5" type="curve" smooth="yes"/>
      <point x="374" y="254.5"/>
      <point x="324" y="305"/>
      <point x="249" y="305" type="curve" smooth="yes"/>
      <point x="148" y="305"/>
      <point x="69" y="220"/>
      <point x="69" y="112" type="curve" smooth="yes"/>
      <point x="69" y="26"/>
      <point x="118.5" y="-32"/>
      <point x="191" y="-32" type="curve" smooth="yes"/>
      <point x="236.5" y="-32"/>
      <point x="251.5" y="-18.5"/>
      <point x="263" y="-18.5" type="curve" smooth="yes"/>
      <point x="267" y="-18.5"/>
      <point x="269.5" y="-23.5"/>
      <point x="269.5" y="-34" type="curve" smooth="yes"/>
      <point x="269.5" y="-52"/>
      <point x="215" y="-57.5"/>
      <point x="191" y="-57.5" type="curve" smooth="yes"/>
      <point x="100.5" y="-57.5"/>
      <point x="39" y="11"/>
      <point x="39" y="112" type="curve" smooth="yes"/>
      <point x="39" y="234.5"/>
      <point x="131" y="330"/>
    </contour>
    <contour>
      <point x="242" y="96.5" type="curve"/>
      <point x="243.5" y="124.5"/>
      <point x="245.5" y="152.5"/>
      <point x="251.5" y="180.5" type="curve"/>
      <point x="245" y="186.5"/>
      <point x="237" y="191"/>
      <point x="226.5" y="191" type="curve" smooth="yes"/>
      <point x="200.5" y="191"/>
      <point x="185" y="165"/>
      <point x="185" y="115" type="curve" smooth="yes"/>
      <point x="185" y="88"/>
      <point x="194" y="74"/>
      <point x="211.5" y="74" type="curve" smooth="yes"/>
      <point x="224" y="74"/>
      <point x="234" y="84.5"/>
    </contour>
  </outline>
</glyph>
<glyph name="H" format="1">
  <advance width="342"/>
  <unicode hex="0048"/>
  <outline>
    <contour>
      <point x="171" y="326" type="move" name="Anchor-1"/>
    </contour>
    <contour>
      <point x="178" y="0" type="move" name="Anchor-0"/>
    </contour>
    <contour>
      <point x="67" y="-1" type="line" smooth="yes"/>
      <point x="47.5" y="-1"/>
      <point x="39" y="4"/>
      <point x="39" y="14" type="curve" smooth="yes"/>
      <point x="39" y="312" type="line" smooth="yes"/>
      <point x="39" y="322"/>
      <point x="47.5" y="327"/>
      <point x="67" y="327" type="curve" smooth="yes"/>
      <point x="83.5" y="327" type="line" smooth="yes"/>
      <point x="103" y="327"/>
      <point x="111.5" y="322"/>
      <point x="111.5" y="312" type="curve" smooth="yes"/>
      <point x="111.5" y="197" type="line"/>
      <point x="237" y="197" type="line"/>
      <point x="237" y="312" type="line" smooth="yes"/>
      <point x="237" y="322"/>
      <point x="245.5" y="327"/>
      <point x="265" y="327" type="curve" smooth="yes"/>
      <point x="281.5" y="327" type="line" smooth="yes"/>
      <point x="301" y="327"/>
      <point x="309.5" y="322"/>
      <point x="309.5" y="312" type="curve" smooth="yes"/>
      <point x="309.5" y="14" type="line" smooth="yes"/>
      <point x="309.5" y="4"/>
      <point x="301" y="-1"/>
      <point x="281.5" y="-1" type="curve" smooth="yes"/>
      <point x="265" y="-1" type="line" smooth="yes"/>
      <point x="245.5" y="-1"/>
      <point x="237" y="4"/>
      <point x="237" y="14" type="curve" smooth="yes"/>
      <point x="237" y="135.5" type="line"/>
      <point x="111.5" y="135.5" type="line"/>
      <point x="111.5" y="14" type="line" smooth="yes"/>
      <point x="111.5" y="4"/>
      <point x="103" y="-1"/>
      <point x="83.5" y="-1" type="curve" smooth="yes"/>
    </contour>
  </outline>
</glyph>
<glyph name="M" format="1">
  <advance width="393"/>
  <unicode hex="004D"/>
  <outline>
    <contour>
      <point x="60" y="-1" type="line" smooth="yes"/>
      <point x="40.5" y="-1"/>
      <point x="32" y="4"/>
      <point x="32" y="14" type="curve" smooth="yes"/>
      <point x="32" y="312" type="line" smooth="yes"/>
      <point x="32" y="322"/>
      <point x="40.5" y="327"/>
      <point x="60" y="327" type="curve" smooth="yes"/>
      <point x="85" y="327" type="line" smooth="yes"/>
      <point x="98.5" y="327"/>
      <point x="109" y="324"/>
      <point x="114" y="314.5" type="curve" smooth="yes"/>
      <point x="192.5" y="175" type="line"/>
      <point x="196" y="168.5" type="line"/>
      <point x="200.5" y="176.5" type="line"/>
      <point x="279" y="314.5" type="line" smooth="yes"/>
      <point x="284.5" y="324"/>
      <point x="295" y="327"/>
      <point x="308.5" y="327" type="curve" smooth="yes"/>
      <point x="332.5" y="327" type="line" smooth="yes"/>
      <point x="352.5" y="327"/>
      <point x="360.5" y="322"/>
      <point x="360.5" y="312" type="curve" smooth="yes"/>
      <point x="360.5" y="14" type="line" smooth="yes"/>
      <point x="360.5" y="4"/>
      <point x="352.5" y="-1"/>
      <point x="332.5" y="-1" type="curve" smooth="yes"/>
      <point x="319" y="-1" type="line" smooth="yes"/>
      <point x="299.5" y="-1"/>
      <point x="291" y="4"/>
      <point x="291" y="14" type="curve" smooth="yes"/>
      <point x="291" y="207" type="line"/>
      <point x="289.5" y="207.5" type="line"/>
      <point x="222" y="86.5" type="line" smooth="yes"/>
      <point x="217.5" y="81"/>
      <point x="212" y="78"/>
      <point x="203" y="78" type="curve" smooth="yes"/>
      <point x="189.5" y="78" type="line" smooth="yes"/>
      <point x="181" y="78"/>
      <point x="175" y="81"/>
      <point x="171" y="86.5" type="curve" smooth="yes"/>
      <point x="103.5" y="207.5" type="line"/>
      <point x="101.5" y="207" type="line"/>
      <point x="101.5" y="14" type="line" smooth="yes"/>
      <point x="101.5" y="4"/>
      <point x="93" y="-1"/>
      <point x="73.5" y="-1" type="curve" smooth="yes"/>
    </contour>
  </outline>
</glyph>
<glyph name="P" format="1">
  <advance width="266"/>
  <unicode hex="0050"/>
  <outline>
    <contour>
      <point x="60" y="-1" type="line" smooth="yes"/>
      <point x="40.5" y="-1"/>
      <point x="32" y="4"/>
      <point x="32" y="14" type="curve" smooth="yes"/>
      <point x="32" y="307.5" type="line" smooth="yes"/>
      <point x="32" y="320.5"/>
      <point x="37.5" y="326"/>
      <point x="51" y="326" type="curve" smooth="yes"/>
      <point x="148.5" y="326" type="line" smooth="yes"/>
      <point x="190" y="326"/>
      <point x="259.5" y="314"/>
      <point x="259.5" y="224" type="curve" smooth="yes"/>
      <point x="259.5" y="134"/>
      <point x="178.5" y="122"/>
      <point x="153.5" y="122" type="curve" smooth="yes"/>
      <point x="104" y="122" type="line"/>
      <point x="104" y="14" type="line" smooth="yes"/>
      <point x="104" y="4"/>
      <point x="95.5" y="-1"/>
      <point x="76" y="-1" type="curve" smooth="yes"/>
    </contour>
    <contour>
      <point x="104" y="183.5" type="line"/>
      <point x="145.5" y="183.5" type="line" smooth="yes"/>
      <point x="163" y="183.5"/>
      <point x="186" y="190.5"/>
      <point x="186" y="224" type="curve" smooth="yes"/>
      <point x="186" y="257.5"/>
      <point x="163" y="265"/>
      <point x="145.5" y="265" type="curve" smooth="yes"/>
      <point x="104" y="265" type="line"/>
    </contour>
  </outline>
</glyph>
<glyph name="Q" format="1">
  <advance width="341"/>
  <unicode hex="0051"/>
  <outline>
    <contour>
      <point x="298.5" y="-68" type="curve" smooth="yes"/>
      <point x="294" y="-68"/>
      <point x="295.5" y="-67.5"/>
      <point x="106" y="7.5" type="curve" smooth="yes"/>
      <point x="51" y="29"/>
      <point x="21" y="82.5"/>
      <point x="21" y="163" type="curve" smooth="yes"/>
      <point x="21" y="270.5"/>
      <point x="74.5" y="330"/>
      <point x="170.5" y="330" type="curve" smooth="yes"/>
      <point x="266.5" y="330"/>
      <point x="319.5" y="270.5"/>
      <point x="319.5" y="163" type="curve" smooth="yes"/>
      <point x="319.5" y="89.5"/>
      <point x="293.5" y="38.5"/>
      <point x="246.5" y="14.5" type="curve"/>
      <point x="246.5" y="12.5" type="line"/>
      <point x="318" y="-13" type="line" smooth="yes"/>
      <point x="322" y="-14.5"/>
      <point x="324.5" y="-17"/>
      <point x="324.5" y="-20.5" type="curve" smooth="yes"/>
      <point x="324.5" y="-28"/>
      <point x="313.5" y="-68"/>
    </contour>
    <contour>
      <point x="170.5" y="55.5" type="curve" smooth="yes"/>
      <point x="220.5" y="55.5"/>
      <point x="246" y="93"/>
      <point x="246" y="163" type="curve" smooth="yes"/>
      <point x="246" y="231.5"/>
      <point x="220.5" y="268.5"/>
      <point x="170.5" y="268.5" type="curve" smooth="yes"/>
      <point x="120.5" y="268.5"/>
      <point x="94.5" y="231.5"/>
      <point x="94.5" y="163" type="curve" smooth="yes"/>
      <point x="94.5" y="93"/>
      <point x="120.5" y="55.5"/>
    </contour>
  </outline>
</glyph>
<glyph name="S" format="1">
  <advance width="233"/>
  <unicode hex="0053"/>
  <outline>
    <contour>
      <point x="117" y="326" type="move" name="Anchor-1"/>
    </contour>
    <contour>
      <point x="117" y="0" type="move" name="Anchor-0"/>
    </contour>
    <contour>
      <point x="120" y="-3.5" type="curve" smooth="yes"/>
      <point x="49" y="-3.5"/>
      <point x="10.5" y="21.5"/>
      <point x="10.5" y="37.5" type="curve" smooth="yes"/>
      <point x="10.5" y="51.5"/>
      <point x="29.5" y="79"/>
      <point x="39" y="79" type="curve" smooth="yes"/>
      <point x="47.5" y="79"/>
      <point x="70.5" y="57.5"/>
      <point x="107.5" y="57.5" type="curve" smooth="yes"/>
      <point x="127.5" y="57.5"/>
      <point x="151.5" y="63.5"/>
      <point x="151.5" y="90" type="curve" smooth="yes"/>
      <point x="151.5" y="118"/>
      <point x="114.5" y="126"/>
      <point x="79.5" y="142" type="curve" smooth="yes"/>
      <point x="47.5" y="157.5"/>
      <point x="17" y="180"/>
      <point x="17" y="236" type="curve" smooth="yes"/>
      <point x="17" y="303"/>
      <point x="72.5" y="330"/>
      <point x="127" y="330" type="curve" smooth="yes"/>
      <point x="176.5" y="330"/>
      <point x="211" y="312.5"/>
      <point x="211" y="297.5" type="curve" smooth="yes"/>
      <point x="211" y="284.5"/>
      <point x="196.5" y="257"/>
      <point x="185.5" y="257" type="curve" smooth="yes"/>
      <point x="179.5" y="257"/>
      <point x="165" y="268.5"/>
      <point x="133.5" y="268.5" type="curve" smooth="yes"/>
      <point x="97.5" y="268.5"/>
      <point x="90.5" y="253"/>
      <point x="90.5" y="242.5" type="curve" smooth="yes"/>
      <point x="90.5" y="216.5"/>
      <point x="113" y="207.5"/>
      <point x="140.5" y="196.5" type="curve" smooth="yes"/>
      <point x="178.5" y="181"/>
      <point x="225" y="161.5"/>
      <point x="225" y="98.5" type="curve" smooth="yes"/>
      <point x="225" y="22.5"/>
      <point x="170.5" y="-3.5"/>
    </contour>
  </outline>
</glyph>
<glyph name="W" format="1">
  <advance width="411"/>
  <unicode hex="0057"/>
  <outline>
    <contour>
      <point x="206" y="326" type="move" name="Anchor-1"/>
    </contour>
    <contour>
      <point x="0" y="0" type="move" name="Anchor-0"/>
    </contour>
    <contour>
      <point x="98.5" y="-1" type="line" smooth="yes"/>
      <point x="83.5" y="-1"/>
      <point x="74" y="2.5"/>
      <point x="72.5" y="9" type="curve" smooth="yes"/>
      <point x="-1" y="308" type="line" smooth="yes"/>
      <point x="-2" y="311"/>
      <point x="-2" y="313"/>
      <point x="-2" y="315" type="curve" smooth="yes"/>
      <point x="-2" y="322.5"/>
      <point x="7" y="327"/>
      <point x="27" y="327" type="curve" smooth="yes"/>
      <point x="39" y="327" type="line" smooth="yes"/>
      <point x="57.5" y="327"/>
      <point x="68" y="322.5"/>
      <point x="70.5" y="312.5" type="curve" smooth="yes"/>
      <point x="105.5" y="162.5" type="line" smooth="yes"/>
      <point x="109" y="147"/>
      <point x="114" y="121.5"/>
      <point x="120" y="95.5" type="curve"/>
      <point x="124" y="121.5"/>
      <point x="131.5" y="147"/>
      <point x="135.5" y="162.5" type="curve" smooth="yes"/>
      <point x="174" y="317.5" type="line" smooth="yes"/>
      <point x="175.5" y="325"/>
      <point x="184.5" y="327"/>
      <point x="199.5" y="327" type="curve" smooth="yes"/>
      <point x="217" y="327" type="line" smooth="yes"/>
      <point x="232" y="327"/>
      <point x="241" y="325"/>
      <point x="243" y="317.5" type="curve" smooth="yes"/>
      <point x="279.5" y="162.5" type="line" smooth="yes"/>
      <point x="284" y="145"/>
      <point x="290" y="118.5"/>
      <point x="295.5" y="92.5" type="curve"/>
      <point x="301.5" y="118"/>
      <point x="307" y="145"/>
      <point x="311.5" y="162.5" type="curve" smooth="yes"/>
      <point x="347.5" y="312.5" type="line" smooth="yes"/>
      <point x="350" y="322.5"/>
      <point x="360.5" y="327"/>
      <point x="379" y="327" type="curve" smooth="yes"/>
      <point x="384" y="327" type="line" smooth="yes"/>
      <point x="404" y="327"/>
      <point x="413" y="322.5"/>
      <point x="413" y="315" type="curve" smooth="yes"/>
      <point x="413" y="313"/>
      <point x="412.5" y="311"/>
      <point x="412" y="308" type="curve" smooth="yes"/>
      <point x="336" y="9" type="line" smooth="yes"/>
      <point x="334" y="2.5"/>
      <point x="323.5" y="-1"/>
      <point x="310.5" y="-1" type="curve" smooth="yes"/>
      <point x="276.5" y="-1" type="line" smooth="yes"/>
      <point x="263.5" y="-1"/>
      <point x="252" y="2.5"/>
      <point x="250.5" y="9" type="curve" smooth="yes"/>
      <point x="212.5" y="170" type="line"/>
      <point x="205" y="202" type="line"/>
      <point x="197" y="170" type="line"/>
      <point x="157.5" y="9" type="line" smooth="yes"/>
      <point x="155.5" y="2.5"/>
      <point x="145" y="-1"/>
      <point x="132" y="-1" type="curve" smooth="yes"/>
    </contour>
  </outline>
</glyph>
<glyph name="bracketleft" format="1">
  <advance width="136"/>
  <unicode hex="005B"/>
  <outline>
    <contour>
      <point x="49" y="-64.5" type="line" smooth="yes"/>
      <point x="36" y="-64.5"/>
      <point x="30.5" y="-58.5"/>
      <point x="30.5" y="-45.5" type="curve" smooth="yes"/>
      <point x="30.5" y="339" type="line" smooth="yes"/>
      <point x="30.5" y="352.5"/>
      <point x="36" y="358"/>
      <point x="49" y="358" type="curve" smooth="yes"/>
      <point x="107.5" y="358" type="line" smooth="yes"/>
      <point x="117.5" y="358"/>
      <point x="121.5" y="352.5"/>
      <point x="121.5" y="339" type="curve" smooth="yes"/>
      <point x="121.5" y="332.5" type="line" smooth="yes"/>
      <point x="121.5" y="319"/>
      <point x="117.5" y="313.5"/>
      <point x="107.5" y="313.5" type="curve" smooth="yes"/>
      <point x="84" y="313.5" type="line"/>
      <point x="84" y="-20" type="line"/>
      <point x="107.5" y="-20" type="line" smooth="yes"/>
      <point x="117.5" y="-20"/>
      <point x="121.5" y="-25.5"/>
      <point x="121.5" y="-38.5" type="curve" smooth="yes"/>
      <point x="121.5" y="-45.5" type="line" smooth="yes"/>
      <point x="121.5" y="-58.5"/>
      <point x="117.5" y="-64.5"/>
      <point x="107.5" y="-64.5" type="curve" smooth="yes"/>
    </contour>
  </outline>
</glyph>
<glyph name="underscore" format="1">
  <advance width="249"/>
  <unicode hex="005F"/>
  <outline>
    <contour>
      <point x="4.5" y="-66.5" type="line" smooth="yes"/>
      <point x="-5" y="-66.5"/>
      <point x="-9.5" y="-59.5"/>
      <point x="-9.5" y="-43.5" type="curve" smooth="yes"/>
      <point x="-9.5" y="-40" type="line" smooth="yes"/>
      <point x="-9.5" y="-24"/>
      <point x="-5" y="-17"/>
      <point x="4.5" y="-17" type="curve" smooth="yes"/>
      <point x="244.5" y="-17" type="line" smooth="yes"/>
      <point x="254.5" y="-17"/>
      <point x="258.5" y="-24"/>
      <point x="258.5" y="-40" type="curve" smooth="yes"/>
      <point x="258.5" y="-43.5" type="line" smooth="yes"/>
      <point x="258.5" y="-59.5"/>
      <point x="254.5" y="-66.5"/>
      <point x="244.5" y="-66.5" type="curve" smooth="yes"/>
    </contour>
  </outline>
</glyph>
<glyph name="grave" format="1">
  <advance width="149"/>
  <unicode hex="0060"/>
  <outline>
    <contour>
      <point x="108.5" y="268" type="curve" smooth="yes"/>
      <point x="86.5" y="268"/>
      <point x="79" y="274"/>
      <point x="73.5" y="279.5" type="curve" smooth="yes"/>
      <point x="28.5" y="329"/>
      <point x="25" y="330"/>
      <point x="25" y="335.5" type="curve" smooth="yes"/>
      <point x="25" y="340.5"/>
      <point x="34.5" y="342"/>
      <point x="53" y="342" type="curve" smooth="yes"/>
      <point x="72" y="342"/>
      <point x="87" y="339"/>
      <point x="92.5" y="329.5" type="curve" smooth="yes"/>
      <point x="114" y="291.5"/>
      <point x="123" y="280"/>
      <point x="123" y="275" type="curve" smooth="yes"/>
      <point x="123" y="270"/>
      <point x="120" y="268"/>
    </contour>
  </outline>
</glyph>
<glyph name="j" format="1">
  <advance width="129"/>
  <unicode hex="006A"/>
  <outline>
    <contour>
      <point x="60.5" y="284" type="line" smooth="yes"/>
      <point x="41" y="284"/>
      <point x="32.5" y="289"/>
      <point x="32.5" y="298.5" type="curve" smooth="yes"/>
      <point x="32.5" y="336.5" type="line" smooth="yes"/>
      <point x="32.5" y="346"/>
      <point x="41" y="351.5"/>
      <point x="60.5" y="351.5" type="curve" smooth="yes"/>
      <point x="73.5" y="351.5" type="line" smooth="yes"/>
      <point x="93" y="351.5"/>
      <point x="101.5" y="346"/>
      <point x="101.5" y="336.5" type="curve" smooth="yes"/>
      <point x="101.5" y="298.5" type="line" smooth="yes"/>
      <point x="101.5" y="289"/>
      <point x="93" y="284"/>
      <point x="73.5" y="284" type="curve" smooth="yes"/>
    </contour>
    <contour>
      <point x="33.5" y="-99" type="curve" smooth="yes"/>
      <point x="-3.5" y="-99"/>
      <point x="-15" y="-92.5"/>
      <point x="-15" y="-74.5" type="curve" smooth="yes"/>
      <point x="-15" y="-64"/>
      <point x="-8" y="-42.5"/>
      <point x="2" y="-42.5" type="curve" smooth="yes"/>
      <point x="4.5" y="-42.5"/>
      <point x="10.5" y="-44.5"/>
      <point x="16" y="-44.5" type="curve" smooth="yes"/>
      <point x="28" y="-44.5"/>
      <point x="32.5" y="-38"/>
      <point x="32.5" y="-24" type="curve" smooth="yes"/>
      <point x="32.5" y="229.5" type="line" smooth="yes"/>
      <point x="32.5" y="239.5"/>
      <point x="41" y="244.5"/>
      <point x="60.5" y="244.5" type="curve" smooth="yes"/>
      <point x="73.5" y="244.5" type="line" smooth="yes"/>
      <point x="93" y="244.5"/>
      <point x="101.5" y="239.5"/>
      <point x="101.5" y="229.5" type="curve" smooth="yes"/>
      <point x="101.5" y="-23.5" type="line" smooth="yes"/>
      <point x="101.5" y="-74"/>
      <point x="72" y="-99"/>
    </contour>
  </outline>
</glyph>
<glyph name="z" format="1">
  <advance width="228"/>
  <unicode hex="007A"/>
  <outline>
    <contour>
      <point x="114" y="244" type="move" name="Anchor-1"/>
    </contour>
    <contour>
      <point x="113" y="0" type="move" name="Anchor-0"/>
    </contour>
    <contour>
      <point x="26" y="0" type="line" smooth="yes"/>
      <point x="20" y="0"/>
      <point x="12.5" y="23.5"/>
      <point x="12.5" y="35.5" type="curve" smooth="yes"/>
      <point x="12.5" y="38"/>
      <point x="13" y="40.5"/>
      <point x="14" y="42" type="curve" smooth="yes"/>
      <point x="120.5" y="189" type="line"/>
      <point x="34" y="189" type="line" smooth="yes"/>
      <point x="24" y="189"/>
      <point x="20" y="196"/>
      <point x="20" y="212.5" type="curve" smooth="yes"/>
      <point x="20" y="220.5" type="line" smooth="yes"/>
      <point x="20" y="236.5"/>
      <point x="24" y="243.5"/>
      <point x="34" y="243.5" type="curve" smooth="yes"/>
      <point x="199" y="243.5" type="line" smooth="yes"/>
      <point x="204" y="243.5"/>
      <point x="212.5" y="221"/>
      <point x="212.5" y="208" type="curve" smooth="yes"/>
      <point x="212.5" y="204.5"/>
      <point x="212" y="202"/>
      <point x="211" y="201" type="curve" smooth="yes"/>
      <point x="105" y="54.5" type="line"/>
      <point x="200.5" y="54.5" type="line" smooth="yes"/>
      <point x="210" y="54.5"/>
      <point x="214.5" y="47.5"/>
      <point x="214.5" y="31" type="curve" smooth="yes"/>
      <point x="214.5" y="23.5" type="line" smooth="yes"/>
      <point x="214.5" y="7"/>
      <point x="210" y="0"/>
      <point x="200.5" y="0" type="curve" smooth="yes"/>
    </contour>
  </outline>
</glyph>
<glyph name="bar" format="1">
  <advance width="117"/>
  <unicode hex="007C"/>
  <outline>
    <contour>
      <point x="55" y="-64.5" type="line" smooth="yes"/>
      <point x="38.5" y="-64.5"/>
      <point x="31.5" y="-60"/>
      <point x="31.5" y="-50.5" type="curve" smooth="yes"/>
      <point x="31.5" y="344" type="line" smooth="yes"/>
      <point x="31.5" y="353.5"/>
      <point x="38.5" y="358"/>
      <point x="55" y="358" type="curve" smooth="yes"/>
      <point x="62" y="358" type="line" smooth="yes"/>
      <point x="78.5" y="358"/>
      <point x="85.5" y="353.5"/>
      <point x="85.5" y="344" type="curve" smooth="yes"/>
      <point x="85.5" y="-50.5" type="line" smooth="yes"/>
      <point x="85.5" y="-60"/>
      <point x="78.5" y="-64.5"/>
      <point x="62" y="-64.5" type="curve" smooth="yes"/>
    </contour>
  </outline>
</glyph>
<glyph name="currency" format="1">
  <advance width="249"/>
  <unicode hex="00A4"/>
  <outline>
    <contour>
      <point x="51" y="33.5" type="curve" smooth="yes"/>
      <point x="47" y="33.5"/>
      <point x="43" y="35.5"/>
      <point x="39" y="39" type="curve" smooth="yes"/>
      <point x="25" y="53" type="line" smooth="yes"/>
      <point x="21.5" y="57"/>
      <point x="19.5" y="61"/>
      <point x="19.5" y="65" type="curve" smooth="yes"/>
      <point x="19.5" y="69"/>
      <point x="21.5" y="72.5"/>
      <point x="25" y="76.5" type="curve" smooth="yes"/>
      <point x="35.5" y="86.5" type="line"/>
      <point x="27.5" y="100.5"/>
      <point x="23" y="117"/>
      <point x="23" y="134.5" type="curve" smooth="yes"/>
      <point x="23" y="152.5"/>
      <point x="27.5" y="169.5"/>
      <point x="36.5" y="184" type="curve"/>
      <point x="24" y="196.5" type="line" smooth="yes"/>
      <point x="20" y="200.5"/>
      <point x="18" y="204.5"/>
      <point x="18" y="208.5" type="curve" smooth="yes"/>
      <point x="18" y="212.5"/>
      <point x="20" y="216"/>
      <point x="24" y="220" type="curve" smooth="yes"/>
      <point x="37.5" y="234" type="line" smooth="yes"/>
      <point x="41.5" y="237.5"/>
      <point x="45.5" y="239.5"/>
      <point x="49.5" y="239.5" type="curve" smooth="yes"/>
      <point x="53.5" y="239.5"/>
      <point x="57.5" y="237.5"/>
      <point x="61" y="234" type="curve" smooth="yes"/>
      <point x="74" y="221" type="line"/>
      <point x="88" y="228.5"/>
      <point x="104" y="233"/>
      <point x="121" y="233" type="curve" smooth="yes"/>
      <point x="138.5" y="233"/>
      <point x="154.5" y="228.5"/>
      <point x="169" y="220.5" type="curve"/>
      <point x="182.5" y="234" type="line" smooth="yes"/>
      <point x="186.5" y="237.5"/>
      <point x="190.5" y="239.5"/>
      <point x="194.5" y="239.5" type="curve" smooth="yes"/>
      <point x="198.5" y="239.5"/>
      <point x="202" y="237.5"/>
      <point x="206" y="234" type="curve" smooth="yes"/>
      <point x="220" y="220" type="line" smooth="yes"/>
      <point x="223.5" y="216"/>
      <point x="225.5" y="212.5"/>
      <point x="225.5" y="208.5" type="curve" smooth="yes"/>
      <point x="225.5" y="204.5"/>
      <point x="223.5" y="200.5"/>
      <point x="220" y="196.5" type="curve" smooth="yes"/>
      <point x="206.5" y="183" type="line"/>
      <point x="215" y="168.5"/>
      <point x="219.5" y="152.5"/>
      <point x="219.5" y="134.5" type="curve" smooth="yes"/>
      <point x="219.5" y="117.5"/>
      <point x="215" y="101.5"/>
      <point x="207.5" y="87.5" type="curve"/>
      <point x="218.5" y="76.5" type="line" smooth="yes"/>
      <point x="222.5" y="72.5"/>
      <point x="224" y="69"/>
      <point x="224" y="65" type="curve" smooth="yes"/>
      <point x="224" y="61"/>
      <point x="222.5" y="57"/>
      <point x="218.5" y="53" type="curve" smooth="yes"/>
      <point x="204.5" y="39" type="line" smooth="yes"/>
      <point x="201" y="35.5"/>
      <point x="197" y="33.5"/>
      <point x="193" y="33.5" type="curve" smooth="yes"/>
      <point x="189" y="33.5"/>
      <point x="185" y="35.5"/>
      <point x="181.5" y="39" type="curve" smooth="yes"/>
      <point x="170.5" y="50" type="line"/>
      <point x="156" y="41"/>
      <point x="139" y="36.5"/>
      <point x="121" y="36.5" type="curve" smooth="yes"/>
      <point x="103.5" y="36.5"/>
      <point x="86.5" y="41"/>
      <point x="72" y="49" type="curve"/>
      <point x="62.5" y="39" type="line" smooth="yes"/>
      <point x="58.5" y="35.5"/>
      <point x="55" y="33.5"/>
    </contour>
    <contour>
      <point x="121" y="89.5" type="curve" smooth="yes"/>
      <point x="146.5" y="89.5"/>
      <point x="166.5" y="109.5"/>
      <point x="166.5" y="134.5" type="curve" smooth="yes"/>
      <point x="166.5" y="160"/>
      <point x="146.5" y="180"/>
      <point x="121" y="180" type="curve" smooth="yes"/>
      <point x="96" y="180"/>
      <point x="76" y="160"/>
      <point x="76" y="134.5" type="curve" smooth="yes"/>
      <point x="76" y="109.5"/>
      <point x="96" y="89.5"/>
    </contour>
  </outline>
</glyph>
<glyph name="copyright" format="1">
  <advance width="345"/>
  <unicode hex="00A9"/>
  <outline>
    <contour>
      <point x="171.5" y="-3.5" type="curve" smooth="yes"/>
      <point x="79" y="-3.5"/>
      <point x="4.5" y="71"/>
      <point x="4.5" y="163" type="curve" smooth="yes"/>
      <point x="4.5" y="255.5"/>
      <point x="79" y="330"/>
      <point x="171.5" y="330" type="curve" smooth="yes"/>
      <point x="264" y="330"/>
      <point x="338.5" y="255.5"/>
      <point x="338.5" y="163" type="curve" smooth="yes"/>
      <point x="338.5" y="71"/>
      <point x="264" y="-3.5"/>
    </contour>
    <contour>
      <point x="171.5" y="26" type="curve" smooth="yes"/>
      <point x="247" y="26"/>
      <point x="308.5" y="87.5"/>
      <point x="308.5" y="163" type="curve" smooth="yes"/>
      <point x="308.5" y="238.5"/>
      <point x="247" y="300"/>
      <point x="171.5" y="300" type="curve" smooth="yes"/>
      <point x="96" y="300"/>
      <point x="34.5" y="238.5"/>
      <point x="34.5" y="163" type="curve" smooth="yes"/>
      <point x="34.5" y="87.5"/>
      <point x="96" y="26"/>
    </contour>
    <contour>
      <point x="177.5" y="71" type="curve" smooth="yes"/>
      <point x="119.5" y="71"/>
      <point x="92" y="100"/>
      <point x="92" y="164.5" type="curve" smooth="yes"/>
      <point x="92" y="226.5"/>
      <point x="120.5" y="257"/>
      <point x="178.5" y="257" type="curve" smooth="yes"/>
      <point x="202" y="257"/>
      <point x="233" y="250"/>
      <point x="233" y="239" type="curve" smooth="yes"/>
      <point x="233" y="231.5"/>
      <point x="222.5" y="214.5"/>
      <point x="216" y="214.5" type="curve" smooth="yes"/>
      <point x="213" y="214.5"/>
      <point x="202.5" y="222.5"/>
      <point x="178" y="222.5" type="curve" smooth="yes"/>
      <point x="147.5" y="222.5"/>
      <point x="133" y="203"/>
      <point x="133" y="164.5" type="curve" smooth="yes"/>
      <point x="133" y="125.5"/>
      <point x="147.5" y="105"/>
      <point x="177.5" y="105" type="curve" smooth="yes"/>
      <point x="202" y="105"/>
      <point x="216" y="115.5"/>
      <point x="220" y="115.5" type="curve" smooth="yes"/>
      <point x="228.5" y="115.5"/>
      <point x="235.5" y="97"/>
      <point x="235.5" y="92.5" type="curve" smooth="yes"/>
      <point x="235.5" y="77"/>
      <point x="198" y="71"/>
    </contour>
  </outline>
</glyph>
<glyph name="logicalnot" format="1">
  <advance width="261"/>
  <unicode hex="00AC"/>
  <outline>
    <contour>
      <point x="219" y="33.5" type="line" smooth="yes"/>
      <point x="206" y="33.5"/>
      <point x="200.5" y="38.5"/>
      <point x="200.5" y="48.5" type="curve" smooth="yes"/>
      <point x="200.5" y="113" type="line"/>
      <point x="28" y="113" type="line" smooth="yes"/>
      <point x="18" y="113"/>
      <point x="14" y="120"/>
      <point x="14" y="136" type="curve" smooth="yes"/>
      <point x="14" y="139.5" type="line" smooth="yes"/>
      <point x="14" y="155.5"/>
      <point x="18" y="162.5"/>
      <point x="28" y="162.5" type="curve" smooth="yes"/>
      <point x="228.5" y="162.5" type="line" smooth="yes"/>
      <point x="241.5" y="162.5"/>
      <point x="247" y="157"/>
      <point x="247" y="144" type="curve" smooth="yes"/>
      <point x="247" y="48.5" type="line" smooth="yes"/>
      <point x="247" y="38.5"/>
      <point x="241.5" y="33.5"/>
      <point x="228.5" y="33.5" type="curve" smooth="yes"/>
    </contour>
  </outline>
</glyph>
<glyph name="degree" format="1">
  <advance width="161"/>
  <unicode hex="00B0"/>
  <outline>
    <contour>
      <point x="79" y="206.5" type="curve" smooth="yes"/>
      <point x="45" y="206.5"/>
      <point x="17.5" y="234"/>
      <point x="17.5" y="268" type="curve" smooth="yes"/>
      <point x="17.5" y="302"/>
      <point x="45" y="330"/>
      <point x="79" y="330" type="curve" smooth="yes"/>
      <point x="113" y="330"/>
      <point x="141" y="302"/>
      <point x="141" y="268" type="curve" smooth="yes"/>
      <point x="141" y="234"/>
      <point x="113" y="206.5"/>
    </contour>
    <contour>
      <point x="79" y="235.5" type="curve" smooth="yes"/>
      <point x="96.5" y="235.5"/>
      <point x="111" y="250"/>
      <point x="111" y="268" type="curve" smooth="yes"/>
      <point x="111" y="286"/>
      <point x="96.5" y="301"/>
      <point x="79" y="301" type="curve" smooth="yes"/>
      <point x="62" y="301"/>
      <point x="48" y="286"/>
      <point x="48" y="268" type="curve" smooth="yes"/>
      <point x="48" y="250"/>
      <point x="62" y="235.5"/>
    </contour>
  </outline>
</glyph>
<glyph name="uni00B2" format="1">
  <advance width="149"/>
  <unicode hex="00B2"/>
  <outline>
    <contour>
      <point x="15.5" y="136" type="line" smooth="yes"/>
      <point x="11" y="136"/>
      <point x="7.5" y="152.5"/>
      <point x="7.5" y="160.5" type="curve" smooth="yes"/>
      <point x="7.5" y="162"/>
      <point x="8" y="163.5"/>
      <point x="8.5" y="164.5" type="curve" smooth="yes"/>
      <point x="77.5" y="248.5" type="line" smooth="yes"/>
      <point x="83.5" y="256"/>
      <point x="87.5" y="264.5"/>
      <point x="87.5" y="275" type="curve" smooth="yes"/>
      <point x="87.5" y="290"/>
      <point x="76.5" y="297"/>
      <point x="62.5" y="297" type="curve" smooth="yes"/>
      <point x="44.5" y="297"/>
      <point x="34.5" y="285.5"/>
      <point x="31" y="285.5" type="curve" smooth="yes"/>
      <point x="22.5" y="285.5"/>
      <point x="15" y="297"/>
      <point x="15" y="304.5" type="curve" smooth="yes"/>
      <point x="15" y="320"/>
      <point x="43.5" y="329"/>
      <point x="69.5" y="329" type="curve" smooth="yes"/>
      <point x="107" y="329"/>
      <point x="128.5" y="306.5"/>
      <point x="128.5" y="276" type="curve" smooth="yes"/>
      <point x="128.5" y="258"/>
      <point x="121.5" y="243.5"/>
      <point x="112" y="231" type="curve" smooth="yes"/>
      <point x="61" y="168" type="line"/>
      <point x="123.5" y="168" type="line" smooth="yes"/>
      <point x="129.5" y="168"/>
      <point x="132" y="164"/>
      <point x="132" y="154.5" type="curve" smooth="yes"/>
      <point x="132" y="150" type="line" smooth="yes"/>
      <point x="132" y="140.5"/>
      <point x="129.5" y="136"/>
      <point x="123.5" y="136" type="curve" smooth="yes"/>
    </contour>
  </outline>
</glyph>
<glyph name="uni00B3" format="1">
  <advance width="149"/>
  <unicode hex="00B3"/>
  <outline>
    <contour>
      <point x="69" y="133.5" type="curve" smooth="yes"/>
      <point x="48.5" y="133.5"/>
      <point x="10" y="139.5"/>
      <point x="10" y="156.5" type="curve" smooth="yes"/>
      <point x="10" y="161.5"/>
      <point x="17" y="177"/>
      <point x="23.5" y="177" type="curve" smooth="yes"/>
      <point x="28" y="177"/>
      <point x="40.5" y="166"/>
      <point x="63" y="166" type="curve" smooth="yes"/>
      <point x="79" y="166"/>
      <point x="90" y="175.5"/>
      <point x="90" y="192.5" type="curve" smooth="yes"/>
      <point x="90" y="210.5"/>
      <point x="81" y="220.5"/>
      <point x="58" y="220.5" type="curve" smooth="yes"/>
      <point x="50.5" y="220.5" type="line" smooth="yes"/>
      <point x="44.5" y="220.5"/>
      <point x="42" y="224.5"/>
      <point x="42" y="234" type="curve" smooth="yes"/>
      <point x="42" y="239" type="line" smooth="yes"/>
      <point x="42" y="249"/>
      <point x="44.5" y="252.5"/>
      <point x="50.5" y="252.5" type="curve" smooth="yes"/>
      <point x="55.5" y="252.5" type="line" smooth="yes"/>
      <point x="73" y="252.5"/>
      <point x="84" y="262"/>
      <point x="84" y="275.5" type="curve" smooth="yes"/>
      <point x="84" y="289"/>
      <point x="76.5" y="298"/>
      <point x="61.5" y="298" type="curve" smooth="yes"/>
      <point x="40.5" y="298"/>
      <point x="34" y="289"/>
      <point x="29.5" y="289" type="curve" smooth="yes"/>
      <point x="24" y="289"/>
      <point x="15.5" y="302.5"/>
      <point x="15.5" y="310" type="curve" smooth="yes"/>
      <point x="15.5" y="323.5"/>
      <point x="41.5" y="330"/>
      <point x="68.5" y="330" type="curve" smooth="yes"/>
      <point x="103" y="330"/>
      <point x="125" y="311.5"/>
      <point x="125" y="282" type="curve" smooth="yes"/>
      <point x="125" y="263.5"/>
      <point x="115" y="249.5"/>
      <point x="99.5" y="242.5" type="curve"/>
      <point x="99.5" y="240.5" type="line"/>
      <point x="120.5" y="232"/>
      <point x="131" y="214.5"/>
      <point x="131" y="192" type="curve" smooth="yes"/>
      <point x="131" y="155.5"/>
      <point x="106" y="133.5"/>
    </contour>
  </outline>
</glyph>
<glyph name="acute" format="1">
  <advance width="149"/>
  <unicode hex="00B4"/>
  <outline>
    <contour>
      <point x="39.5" y="268" type="curve" smooth="yes"/>
      <point x="28.5" y="268"/>
      <point x="25" y="270"/>
      <point x="25" y="275" type="curve" smooth="yes"/>
      <point x="25" y="280"/>
      <point x="34" y="291.5"/>
      <point x="55.5" y="329.5" type="curve" smooth="yes"/>
      <point x="61" y="339"/>
      <point x="76.5" y="342"/>
      <point x="95" y="342" type="curve" smooth="yes"/>
      <point x="113.5" y="342"/>
      <point x="123" y="340.5"/>
      <point x="123" y="335.5" type="curve" smooth="yes"/>
      <point x="123" y="330"/>
      <point x="120" y="329"/>
      <point x="74.5" y="279.5" type="curve" smooth="yes"/>
      <point x="69.5" y="274"/>
      <point x="61.5" y="268"/>
    </contour>
  </outline>
</glyph>
<glyph name="uni00B9" format="1">
  <advance width="101"/>
  <unicode hex="00B9"/>
  <outline>
    <contour>
      <point x="69" y="136.5" type="line" smooth="yes"/>
      <point x="58" y="136.5"/>
      <point x="52.5" y="140"/>
      <point x="52.5" y="145.5" type="curve" smooth="yes"/>
      <point x="52.5" y="291" type="line"/>
      <point x="16" y="284.5" type="line" smooth="yes"/>
      <point x="9" y="284.5"/>
      <point x="7" y="300.5"/>
      <point x="7" y="308" type="curve" smooth="yes"/>
      <point x="7" y="312"/>
      <point x="9.5" y="315"/>
      <point x="14" y="316" type="curve" smooth="yes"/>
      <point x="82" y="328" type="line" smooth="yes"/>
      <point x="85.5" y="328"/>
      <point x="92.5" y="325"/>
      <point x="92.5" y="321.5" type="curve" smooth="yes"/>
      <point x="92.5" y="145.5" type="line" smooth="yes"/>
      <point x="92.5" y="140"/>
      <point x="87.5" y="136.5"/>
      <point x="76.5" y="136.5" type="curve" smooth="yes"/>
    </contour>
  </outline>
</glyph>
<glyph name="guillemotright" format="1">
  <advance width="220"/>
  <unicode hex="00BB"/>
  <outline>
    <contour>
      <point x="47" y="21.5" type="curve" smooth="yes"/>
      <point x="37" y="21.5"/>
      <point x="19.5" y="35"/>
      <point x="19.5" y="44.5" type="curve" smooth="yes"/>
      <point x="19.5" y="48"/>
      <point x="21" y="51.5"/>
      <point x="24" y="55" type="curve" smooth="yes"/>
      <point x="75" y="120" type="line"/>
      <point x="24" y="185.5" type="line" smooth="yes"/>
      <point x="21" y="189"/>
      <point x="19.5" y="192.5"/>
      <point x="19.5" y="195.5" type="curve" smooth="yes"/>
      <point x="19.5" y="206.5"/>
      <point x="38" y="218.5"/>
      <point x="47" y="218.5" type="curve" smooth="yes"/>
      <point x="51.5" y="218.5"/>
      <point x="55.5" y="216.5"/>
      <point x="59.5" y="212" type="curve" smooth="yes"/>
      <point x="119" y="140.5" type="line" smooth="yes"/>
      <point x="124.5" y="134"/>
      <point x="126.5" y="128.5"/>
      <point x="126.5" y="120" type="curve" smooth="yes"/>
      <point x="126.5" y="112"/>
      <point x="124.5" y="106"/>
      <point x="119" y="99.5" type="curve" smooth="yes"/>
      <point x="59.5" y="28.5" type="line" smooth="yes"/>
      <point x="55.5" y="24"/>
      <point x="51.5" y="21.5"/>
    </contour>
    <contour>
      <point x="140" y="21.5" type="curve" smooth="yes"/>
      <point x="129.5" y="21.5"/>
      <point x="112.5" y="35"/>
      <point x="112.5" y="44.5" type="curve" smooth="yes"/>
      <point x="112.5" y="48"/>
      <point x="113.5" y="51.5"/>
      <point x="116.5" y="55" type="curve" smooth="yes"/>
      <point x="168" y="120" type="line"/>
      <point x="116.5" y="185.5" type="line" smooth="yes"/>
      <point x="113.5" y="189"/>
      <point x="112.5" y="192.5"/>
      <point x="112.5" y="195.5" type="curve" smooth="yes"/>
      <point x="112.5" y="206.5"/>
      <point x="131" y="218.5"/>
      <point x="140" y="218.5" type="curve" smooth="yes"/>
      <point x="144.5" y="218.5"/>
      <point x="148" y="216.5"/>
      <point x="152.5" y="212" type="curve" smooth="yes"/>
      <point x="211.5" y="140.5" type="line" smooth="yes"/>
      <point x="217" y="134"/>
      <point x="219" y="128.5"/>
      <point x="219" y="120" type="curve" smooth="yes"/>
      <point x="219" y="112"/>
      <point x="217" y="106"/>
      <point x="211.5" y="99.5" type="curve" smooth="yes"/>
      <point x="152.5" y="28.5" type="line" smooth="yes"/>
      <point x="148" y="24"/>
      <point x="144" y="21.5"/>
    </contour>
  </outline>
</glyph>
<glyph name="questiondown" format="1">
  <advance width="198"/>
  <unicode hex="00BF"/>
  <outline>
    <contour>
      <point x="118" y="172" type="line" smooth="yes"/>
      <point x="98.5" y="172"/>
      <point x="90" y="177"/>
      <point x="90" y="187" type="curve" smooth="yes"/>
      <point x="90" y="229.5" type="line" smooth="yes"/>
      <point x="90" y="239.5"/>
      <point x="98.5" y="244.5"/>
      <point x="118" y="244.5" type="curve" smooth="yes"/>
      <point x="133" y="244.5" type="line" smooth="yes"/>
      <point x="152.5" y="244.5"/>
      <point x="161" y="239.5"/>
      <point x="161" y="229.5" type="curve" smooth="yes"/>
      <point x="161" y="187" type="line" smooth="yes"/>
      <point x="161" y="177"/>
      <point x="152.5" y="172"/>
      <point x="133" y="172" type="curve" smooth="yes"/>
    </contour>
    <contour>
      <point x="109.5" y="-86" type="curve" smooth="yes"/>
      <point x="47" y="-86"/>
      <point x="8.5" y="-54.5"/>
      <point x="8.5" y="-3.5" type="curve" smooth="yes"/>
      <point x="8.5" y="68"/>
      <point x="86.5" y="83"/>
      <point x="95" y="127.5" type="curve" smooth="yes"/>
      <point x="98" y="137.5"/>
      <point x="104.5" y="140.5"/>
      <point x="120" y="140.5" type="curve" smooth="yes"/>
      <point x="130.5" y="140.5" type="line" smooth="yes"/>
      <point x="147" y="140.5"/>
      <point x="153.5" y="136.5"/>
      <point x="153.5" y="127" type="curve" smooth="yes"/>
      <point x="153.5" y="100"/>
      <point x="138.5" y="78"/>
      <point x="122" y="58" type="curve" smooth="yes"/>
      <point x="102.5" y="35.5"/>
      <point x="81" y="17"/>
      <point x="81" y="1.5" type="curve" smooth="yes"/>
      <point x="81" y="-15"/>
      <point x="92" y="-24.5"/>
      <point x="115.5" y="-24.5" type="curve" smooth="yes"/>
      <point x="142.5" y="-24.5"/>
      <point x="161" y="-10.5"/>
      <point x="168" y="-10.5" type="curve" smooth="yes"/>
      <point x="181" y="-10.5"/>
      <point x="197" y="-38.5"/>
      <point x="197" y="-48.5" type="curve" smooth="yes"/>
      <point x="197" y="-76"/>
      <point x="146" y="-86"/>
    </contour>
  </outline>
</glyph>
<glyph name="Atilde" format="1">
  <advance width="286"/>
  <unicode hex="00C3"/>
  <outline>
    <contour>
      <point x="143" y="326" type="move" name="Anchor-1"/>
    </contour>
    <contour>
      <point x="145" y="0" type="move" name="Anchor-0"/>
    </contour>
    <contour>
      <point x="69.5" y="353" type="curve" smooth="yes"/>
      <point x="64" y="354" type="line" smooth="yes"/>
      <point x="56.5" y="356.5"/>
      <point x="54" y="361.5"/>
      <point x="54" y="367" type="curve" smooth="yes"/>
      <point x="54" y="369"/>
      <point x="54.5" y="371.5"/>
      <point x="55" y="373.5" type="curve" smooth="yes"/>
      <point x="61.5" y="390"/>
      <point x="79" y="406"/>
      <point x="106" y="406" type="curve" smooth="yes"/>
      <point x="122" y="406"/>
      <point x="156" y="393.5"/>
      <point x="171.5" y="392.5" type="curve" smooth="yes"/>
      <point x="175.5" y="392.5"/>
      <point x="181.5" y="393.5"/>
      <point x="187" y="400" type="curve" smooth="yes"/>
      <point x="192" y="406"/>
      <point x="195.5" y="408"/>
      <point x="200" y="408" type="curve" smooth="yes"/>
      <point x="201.5" y="408"/>
      <point x="204" y="407.5"/>
      <point x="205.5" y="407" type="curve" smooth="yes"/>
      <point x="211" y="405.5" type="line" smooth="yes"/>
      <point x="219" y="403"/>
      <point x="221.5" y="398"/>
      <point x="221.5" y="393" type="curve" smooth="yes"/>
      <point x="221.5" y="390.5"/>
      <point x="221" y="388"/>
      <point x="220.5" y="386.5" type="curve" smooth="yes"/>
      <point x="214" y="369.5"/>
      <point x="196" y="353.5"/>
      <point x="169.5" y="353.5" type="curve" smooth="yes"/>
      <point x="153.5" y="353.5"/>
      <point x="119" y="366.5"/>
      <point x="104" y="367" type="curve" smooth="yes"/>
      <point x="100" y="367"/>
      <point x="94" y="366.5"/>
      <point x="88.5" y="360" type="curve" smooth="yes"/>
      <point x="83.5" y="353.5"/>
      <point x="79.5" y="352"/>
      <point x="75" y="352" type="curve" smooth="yes"/>
      <point x="73.5" y="352"/>
      <point x="71.5" y="352"/>
    </contour>
    <contour>
      <point x="28.5" y="-1" type="line" smooth="yes"/>
      <point x="9" y="-1"/>
      <point x="0" y="3"/>
      <point x="0" y="9.5" type="curve" smooth="yes"/>
      <point x="0" y="11.5"/>
      <point x="1" y="14.5"/>
      <point x="2" y="17.5" type="curve" smooth="yes"/>
      <point x="104.5" y="317.5" type="line" smooth="yes"/>
      <point x="107" y="325"/>
      <point x="117.5" y="327"/>
      <point x="131" y="327" type="curve" smooth="yes"/>
      <point x="155" y="327" type="line" smooth="yes"/>
      <point x="168.5" y="327"/>
      <point x="179" y="325"/>
      <point x="181.5" y="317.5" type="curve" smooth="yes"/>
      <point x="284.5" y="17.5" type="line" smooth="yes"/>
      <point x="285" y="14.5"/>
      <point x="285.5" y="11.5"/>
      <point x="285.5" y="9.5" type="curve" smooth="yes"/>
      <point x="285.5" y="3"/>
      <point x="278.5" y="-1"/>
      <point x="262.5" y="-1" type="curve" smooth="yes"/>
      <point x="242" y="-1" type="line" smooth="yes"/>
      <point x="228.5" y="-1"/>
      <point x="218" y="1.5"/>
      <point x="216" y="9" type="curve" smooth="yes"/>
      <point x="197" y="65.5" type="line"/>
      <point x="87" y="65.5" type="line"/>
      <point x="68.5" y="9" type="line" smooth="yes"/>
      <point x="66" y="2"/>
      <point x="58" y="-1"/>
      <point x="47" y="-1" type="curve" smooth="yes"/>
    </contour>
    <contour>
      <point x="107" y="127" type="line"/>
      <point x="177" y="127" type="line"/>
      <point x="150.5" y="210" type="line" smooth="yes"/>
      <point x="147.5" y="220"/>
      <point x="145.5" y="230"/>
      <point x="143.5" y="240" type="curve"/>
      <point x="141.5" y="240" type="line"/>
      <point x="140" y="230"/>
      <point x="138.5" y="220"/>
      <point x="134.5" y="210" type="curve" smooth="yes"/>
    </contour>
  </outline>
</glyph>
<glyph name="Idieresis" format="1">
  <advance width="132"/>
  <unicode hex="00CF"/>
  <outline>
    <contour>
      <point x="66" y="326" type="move" name="Anchor-1"/>
    </contour>
    <contour>
      <point x="66" y="0" type="move" name="Anchor-0"/>
    </contour>
    <contour>
      <point x="23.5" y="352" type="curve" smooth="yes"/>
      <point x="4" y="352"/>
      <point x="-4.5" y="357"/>
      <point x="-4.5" y="367" type="curve" smooth="yes"/>
      <point x="-4.5" y="394.5" type="line" smooth="yes"/>
      <point x="-4.5" y="404.5"/>
      <point x="4" y="409.5"/>
      <point x="23.5" y="409.5" type="curve" smooth="yes"/>
      <point x="43" y="409.5"/>
      <point x="51.5" y="404.5"/>
      <point x="51.5" y="394.5" type="curve" smooth="yes"/>
      <point x="51.5" y="367" type="line" smooth="yes"/>
      <point x="51.5" y="357"/>
      <point x="43" y="352"/>
    </contour>
    <contour>
      <point x="107.5" y="352" type="curve" smooth="yes"/>
      <point x="88" y="352"/>
      <point x="79.5" y="357"/>
      <point x="79.5" y="367" type="curve" smooth="yes"/>
      <point x="79.5" y="394.5" type="line" smooth="yes"/>
      <point x="79.5" y="404.5"/>
      <point x="88" y="409.5"/>
      <point x="107.5" y="409.5" type="curve" smooth="yes"/>
      <point x="127" y="409.5"/>
      <point x="135.5" y="404.5"/>
      <point x="135.5" y="394.5" type="curve" smooth="yes"/>
      <point x="135.5" y="367" type="line" smooth="yes"/>
      <point x="135.5" y="357"/>
      <point x="127" y="352"/>
    </contour>
    <contour>
      <point x="57.5" y="-1.5" type="line" smooth="yes"/>
      <point x="37.5" y="-1.5"/>
      <point x="29.5" y="4"/>
      <point x="29.5" y="14" type="curve" smooth="yes"/>
      <point x="29.5" y="312" type="line" smooth="yes"/>
      <point x="29.5" y="322"/>
      <point x="37.5" y="327.5"/>
      <point x="57.5" y="327.5" type="curve" smooth="yes"/>
      <point x="73.5" y="327.5" type="line" smooth="yes"/>
      <point x="93" y="327.5"/>
      <point x="101.5" y="322"/>
      <point x="101.5" y="312" type="curve" smooth="yes"/>
      <point x="101.5" y="14" type="line" smooth="yes"/>
      <point x="101.5" y="4"/>
      <point x="93" y="-1.5"/>
      <point x="73.5" y="-1.5" type="curve" smooth="yes"/>
    </contour>
  </outline>
</glyph>
<glyph name="Eth" format="1">
  <advance width="325"/>
  <unicode hex="00D0"/>
  <outline>
    <contour>
      <point x="51.5" y="0" type="line" smooth="yes"/>
      <point x="38.5" y="0"/>
      <point x="33" y="5.5"/>
      <point x="33" y="18.5" type="curve" smooth="yes"/>
      <point x="33" y="135.5" type="line"/>
      <point x="19.5" y="135.5" type="line" smooth="yes"/>
      <point x="10" y="135.5"/>
      <point x="5.5" y="142.5"/>
      <point x="5.5" y="159" type="curve" smooth="yes"/>
      <point x="5.5" y="173" type="line" smooth="yes"/>
      <point x="5.5" y="189"/>
      <point x="10" y="196"/>
      <point x="19.5" y="196" type="curve" smooth="yes"/>
      <point x="33" y="196" type="line"/>
      <point x="33" y="307.5" type="line" smooth="yes"/>
      <point x="33" y="320.5"/>
      <point x="38.5" y="326"/>
      <point x="51.5" y="326" type="curve" smooth="yes"/>
      <point x="156" y="326" type="line" smooth="yes"/>
      <point x="252" y="326"/>
      <point x="305" y="268.5"/>
      <point x="305" y="163" type="curve" smooth="yes"/>
      <point x="305" y="58"/>
      <point x="252" y="0"/>
      <point x="156" y="0" type="curve" smooth="yes"/>
    </contour>
    <contour>
      <point x="105.5" y="61" type="line"/>
      <point x="156" y="61" type="line" smooth="yes"/>
      <point x="206" y="61"/>
      <point x="231.5" y="97"/>
      <point x="231.5" y="163" type="curve" smooth="yes"/>
      <point x="231.5" y="229.5"/>
      <point x="206" y="265"/>
      <point x="156" y="265" type="curve" smooth="yes"/>
      <point x="105.5" y="265" type="line"/>
      <point x="105.5" y="196" type="line"/>
      <point x="133" y="196" type="line" smooth="yes"/>
      <point x="142.5" y="196"/>
      <point x="147" y="189"/>
      <point x="147" y="173" type="curve" smooth="yes"/>
      <point x="147" y="159" type="line" smooth="yes"/>
      <point x="147" y="142.5"/>
      <point x="142.5" y="135.5"/>
      <point x="133" y="135.5" type="curve" smooth="yes"/>
      <point x="105.5" y="135.5" type="line"/>
    </contour>
  </outline>
</glyph>
<glyph name="Oacute" format="1">
  <advance width="341"/>
  <unicode hex="00D3"/>
  <outline>
    <contour>
      <point x="171" y="326" type="move" name="Anchor-1"/>
    </contour>
    <contour>
      <point x="171" y="0" type="move" name="Anchor-0"/>
    </contour>
    <contour>
      <point x="152" y="350.5" type="curve" smooth="yes"/>
      <point x="141" y="350.5"/>
      <point x="137.5" y="352.5"/>
      <point x="137.5" y="357.5" type="curve" smooth="yes"/>
      <point x="137.5" y="362.5"/>
      <point x="146.5" y="374"/>
      <point x="168" y="412" type="curve" smooth="yes"/>
      <point x="173.5" y="421.5"/>
      <point x="189" y="424.5"/>
      <point x="207.5" y="424.5" type="curve" smooth="yes"/>
      <point x="226" y="424.5"/>
      <point x="235.5" y="423"/>
      <point x="235.5" y="418" type="curve" smooth="yes"/>
      <point x="235.5" y="412.5"/>
      <point x="232.5" y="411.5"/>
      <point x="187" y="362" type="curve" smooth="yes"/>
      <point x="182" y="356.5"/>
      <point x="174" y="350.5"/>
    </contour>
    <contour>
      <point x="170.5" y="-3.5" type="curve" smooth="yes"/>
      <point x="74.5" y="-3.5"/>
      <point x="21" y="55.5"/>
      <point x="21" y="163" type="curve" smooth="yes"/>
      <point x="21" y="270.5"/>
      <point x="74.5" y="330"/>
      <point x="170.5" y="330" type="curve" smooth="yes"/>
      <point x="266.5" y="330"/>
      <point x="319.5" y="270.5"/>
      <point x="319.5" y="163" type="curve" smooth="yes"/>
      <point x="319.5" y="55.5"/>
      <point x="266.5" y="-3.5"/>
    </contour>
    <contour>
      <point x="170.5" y="57.5" type="curve" smooth="yes"/>
      <point x="220.5" y="57.5"/>
      <point x="246" y="94.5"/>
      <point x="246" y="163" type="curve" smooth="yes"/>
      <point x="246" y="231.5"/>
      <point x="220.5" y="268.5"/>
      <point x="170.5" y="268.5" type="curve" smooth="yes"/>
      <point x="120.5" y="268.5"/>
      <point x="94.5" y="231.5"/>
      <point x="94.5" y="163" type="curve" smooth="yes"/>
      <point x="94.5" y="94.5"/>
      <point x="120.5" y="57.5"/>
    </contour>
  </outline>
</glyph>
<glyph name="Otilde" format="1">
  <advance width="341"/>
  <unicode hex="00D5"/>
  <outline>
    <contour>
      <point x="171" y="326" type="move" name="Anchor-1"/>
    </contour>
    <contour>
      <point x="171" y="0" type="move" name="Anchor-0"/>
    </contour>
    <contour>
      <point x="97" y="353" type="curve" smooth="yes"/>
      <point x="91.5" y="354" type="line" smooth="yes"/>
      <point x="84" y="356.5"/>
      <point x="81.5" y="361.5"/>
      <point x="81.5" y="367" type="curve" smooth="yes"/>
      <point x="81.5" y="369"/>
      <point x="82" y="371.5"/>
      <point x="82.5" y="373.5" type="curve" smooth="yes"/>
      <point x="89" y="390"/>
      <point x="106.5" y="406"/>
      <point x="133.5" y="406" type="curve" smooth="yes"/>
      <point x="149.5" y="406"/>
      <point x="183.5" y="393.5"/>
      <point x="199" y="392.5" type="curve" smooth="yes"/>
      <point x="203" y="392.5"/>
      <point x="209" y="393.5"/>
      <point x="214.5" y="400" type="curve" smooth="yes"/>
      <point x="219.5" y="406"/>
      <point x="223" y="408"/>
      <point x="227.5" y="408" type="curve" smooth="yes"/>
      <point x="229" y="408"/>
      <point x="231.5" y="407.5"/>
      <point x="233" y="407" type="curve" smooth="yes"/>
      <point x="238.5" y="405.5" type="line" smooth="yes"/>
      <point x="246.5" y="403"/>
      <point x="249" y="398"/>
      <point x="249" y="393" type="curve" smooth="yes"/>
      <point x="249" y="390.5"/>
      <point x="248.5" y="388"/>
      <point x="248" y="386.5" type="curve" smooth="yes"/>
      <point x="241.5" y="369.5"/>
      <point x="223.5" y="353.5"/>
      <point x="197" y="353.5" type="curve" smooth="yes"/>
      <point x="181" y="353.5"/>
      <point x="146.5" y="366.5"/>
      <point x="131.5" y="367" type="curve" smooth="yes"/>
      <point x="127.5" y="367"/>
      <point x="121.5" y="366.5"/>
      <point x="116" y="360" type="curve" smooth="yes"/>
      <point x="111" y="353.5"/>
      <point x="107" y="352"/>
      <point x="102.5" y="352" type="curve" smooth="yes"/>
      <point x="101" y="352"/>
      <point x="99" y="352"/>
    </contour>
    <contour>
      <point x="170.5" y="-3.5" type="curve" smooth="yes"/>
      <point x="74.5" y="-3.5"/>
      <point x="21" y="55.5"/>
      <point x="21" y="163" type="curve" smooth="yes"/>
      <point x="21" y="270.5"/>
      <point x="74.5" y="330"/>
      <point x="170.5" y="330" type="curve" smooth="yes"/>
      <point x="266.5" y="330"/>
      <point x="319.5" y="270.5"/>
      <point x="319.5" y="163" type="curve" smooth="yes"/>
      <point x="319.5" y="55.5"/>
      <point x="266.5" y="-3.5"/>
    </contour>
    <contour>
      <point x="170.5" y="57.5" type="curve" smooth="yes"/>
      <point x="220.5" y="57.5"/>
      <point x="246" y="94.5"/>
      <point x="246" y="163" type="curve" smooth="yes"/>
      <point x="246" y="231.5"/>
      <point x="220.5" y="268.5"/>
      <point x="170.5" y="268.5" type="curve" smooth="yes"/>
      <point x="120.5" y="268.5"/>
      <point x="94.5" y="231.5"/>
      <point x="94.5" y="163" type="curve" smooth="yes"/>
      <point x="94.5" y="94.5"/>
      <point x="120.5" y="57.5"/>
    </contour>
  </outline>
</glyph>
<glyph name="Odieresis" format="1">
  <advance width="341"/>
  <unicode hex="00D6"/>
  <outline>
    <contour>
      <point x="171" y="326" type="move" name="Anchor-1"/>
    </contour>
    <contour>
      <point x="171" y="0" type="move" name="Anchor-0"/>
    </contour>
    <contour>
      <point x="128.5" y="352" type="curve" smooth="yes"/>
      <point x="109" y="352"/>
      <point x="100.5" y="357"/>
      <point x="100.5" y="367" type="curve" smooth="yes"/>
      <point x="100.5" y="394.5" type="line" smooth="yes"/>
      <point x="100.5" y="404.5"/>
      <point x="109" y="409.5"/>
      <point x="128.5" y="409.5" type="curve" smooth="yes"/>
      <point x="148" y="409.5"/>
      <point x="156.5" y="404.5"/>
      <point x="156.5" y="394.5" type="curve" smooth="yes"/>
      <point x="156.5" y="367" type="line" smooth="yes"/>
      <point x="156.5" y="357"/>
      <point x="148" y="352"/>
    </contour>
    <contour>
      <point x="212.5" y="352" type="curve" smooth="yes"/>
      <point x="193" y="352"/>
      <point x="184.5" y="357"/>
      <point x="184.5" y="367" type="curve" smooth="yes"/>
      <point x="184.5" y="394.5" type="line" smooth="yes"/>
      <point x="184.5" y="404.5"/>
      <point x="193" y="409.5"/>
      <point x="212.5" y="409.5" type="curve" smooth="yes"/>
      <point x="232" y="409.5"/>
      <point x="240.5" y="404.5"/>
      <point x="240.5" y="394.5" type="curve" smooth="yes"/>
      <point x="240.5" y="367" type="line" smooth="yes"/>
      <point x="240.5" y="357"/>
      <point x="232" y="352"/>
    </contour>
    <contour>
      <point x="170.5" y="-3.5" type="curve" smooth="yes"/>
      <point x="74.5" y="-3.5"/>
      <point x="21" y="55.5"/>
      <point x="21" y="163" type="curve" smooth="yes"/>
      <point x="21" y="270.5"/>
      <point x="74.5" y="330"/>
      <point x="170.5" y="330" type="curve" smooth="yes"/>
      <point x="266.5" y="330"/>
      <point x="319.5" y="270.5"/>
      <point x="319.5" y="163" type="curve" smooth="yes"/>
      <point x="319.5" y="55.5"/>
      <point x="266.5" y="-3.5"/>
    </contour>
    <contour>
      <point x="170.5" y="57.5" type="curve" smooth="yes"/>
      <point x="220.5" y="57.5"/>
      <point x="246" y="94.5"/>
      <point x="246" y="163" type="curve" smooth="yes"/>
      <point x="246" y="231.5"/>
      <point x="220.5" y="268.5"/>
      <point x="170.5" y="268.5" type="curve" smooth="yes"/>
      <point x="120.5" y="268.5"/>
      <point x="94.5" y="231.5"/>
      <point x="94.5" y="163" type="curve" smooth="yes"/>
      <point x="94.5" y="94.5"/>
      <point x="120.5" y="57.5"/>
    </contour>
  </outline>
</glyph>
<glyph name="multiply" format="1">
  <advance width="261"/>
  <unicode hex="00D7"/>
  <outline>
    <contour>
      <point x="50" y="5" type="curve" smooth="yes"/>
      <point x="44.5" y="5"/>
      <point x="39" y="9"/>
      <point x="32" y="16" type="curve" smooth="yes"/>
      <point x="30" y="18" type="line" smooth="yes"/>
      <point x="23" y="25"/>
      <point x="19" y="31"/>
      <point x="19" y="36" type="curve" smooth="yes"/>
      <point x="19" y="38.5"/>
      <point x="20.5" y="41.5"/>
      <point x="23.5" y="44.5" type="curve" smooth="yes"/>
      <point x="92" y="113" type="line"/>
      <point x="23.5" y="181.5" type="line" smooth="yes"/>
      <point x="20.5" y="184"/>
      <point x="19" y="187"/>
      <point x="19" y="190" type="curve" smooth="yes"/>
      <point x="19" y="195"/>
      <point x="23" y="201"/>
      <point x="30" y="208" type="curve" smooth="yes"/>
      <point x="32" y="210" type="line" smooth="yes"/>
      <point x="39" y="217"/>
      <point x="44.5" y="221"/>
      <point x="50" y="221" type="curve" smooth="yes"/>
      <point x="52.5" y="221"/>
      <point x="55.5" y="219.5"/>
      <point x="58" y="216.5" type="curve" smooth="yes"/>
      <point x="127" y="148" type="line"/>
      <point x="195.5" y="216.5" type="line" smooth="yes"/>
      <point x="198" y="219.5"/>
      <point x="201" y="221"/>
      <point x="204" y="221" type="curve" smooth="yes"/>
      <point x="209" y="221"/>
      <point x="215" y="217"/>
      <point x="222" y="210" type="curve" smooth="yes"/>
      <point x="224" y="208" type="line" smooth="yes"/>
      <point x="231" y="201"/>
      <point x="235" y="195"/>
      <point x="235" y="190" type="curve" smooth="yes"/>
      <point x="235" y="187"/>
      <point x="233.5" y="184"/>
      <point x="230.5" y="181.5" type="curve" smooth="yes"/>
      <point x="162" y="113" type="line"/>
      <point x="230.5" y="44.5" type="line" smooth="yes"/>
      <point x="233.5" y="41.5"/>
      <point x="235" y="38.5"/>
      <point x="235" y="36" type="curve" smooth="yes"/>
      <point x="235" y="31"/>
      <point x="231" y="25"/>
      <point x="224" y="18" type="curve" smooth="yes"/>
      <point x="222" y="16" type="line" smooth="yes"/>
      <point x="215" y="9"/>
      <point x="209" y="5"/>
      <point x="204" y="5" type="curve" smooth="yes"/>
      <point x="201" y="5"/>
      <point x="198" y="6.5"/>
      <point x="195.5" y="9.5" type="curve" smooth="yes"/>
      <point x="127" y="78" type="line"/>
      <point x="58" y="9.5" type="line" smooth="yes"/>
      <point x="55.5" y="6.5"/>
      <point x="52.5" y="5"/>
    </contour>
  </outline>
</glyph>
<glyph name="Oslash" format="1">
  <advance width="341"/>
  <unicode hex="00D8"/>
  <outline>
    <contour>
      <point x="171" y="326" type="move" name="Anchor-1"/>
    </contour>
    <contour>
      <point x="0" y="0" type="move" name="Anchor-0"/>
    </contour>
    <contour>
      <point x="170.5" y="-3.5" type="curve" smooth="yes"/>
      <point x="127.5" y="-3.5"/>
      <point x="93" y="8"/>
      <point x="68.5" y="31" type="curve"/>
      <point x="41.5" y="0" type="line" smooth="yes"/>
      <point x="38" y="-3.5"/>
      <point x="34.5" y="-5.5"/>
      <point x="31" y="-5.5" type="curve" smooth="yes"/>
      <point x="24" y="-5.5"/>
      <point x="9" y="7"/>
      <point x="9" y="16" type="curve" smooth="yes"/>
      <point x="9" y="18.5"/>
      <point x="10.5" y="22"/>
      <point x="13.5" y="25" type="curve" smooth="yes"/>
      <point x="44.5" y="60" type="line"/>
      <point x="29" y="86.5"/>
      <point x="21" y="121"/>
      <point x="21" y="163" type="curve" smooth="yes"/>
      <point x="21" y="270.5"/>
      <point x="74.5" y="330"/>
      <point x="170.5" y="330" type="curve" smooth="yes"/>
      <point x="207" y="330"/>
      <point x="237.5" y="321"/>
      <point x="261" y="304.5" type="curve"/>
      <point x="285" y="332" type="line" smooth="yes"/>
      <point x="288.5" y="335.5"/>
      <point x="291.5" y="337.5"/>
      <point x="295.5" y="337.5" type="curve" smooth="yes"/>
      <point x="303.5" y="337.5"/>
      <point x="318" y="324.5"/>
      <point x="318" y="316" type="curve" smooth="yes"/>
      <point x="318" y="313"/>
      <point x="316.5" y="310"/>
      <point x="313" y="306.5" type="curve" smooth="yes"/>
      <point x="288" y="278" type="line"/>
      <point x="308.5" y="250"/>
      <point x="319.5" y="211.5"/>
      <point x="319.5" y="163" type="curve" smooth="yes"/>
      <point x="319.5" y="55.5"/>
      <point x="266.5" y="-3.5"/>
    </contour>
    <contour>
      <point x="98.5" y="121" type="curve"/>
      <point x="216" y="253.5" type="line"/>
      <point x="204" y="263.5"/>
      <point x="188.5" y="268.5"/>
      <point x="170.5" y="268.5" type="curve" smooth="yes"/>
      <point x="120.5" y="268.5"/>
      <point x="94.5" y="231.5"/>
      <point x="94.5" y="163" type="curve" smooth="yes"/>
      <point x="94.5" y="147.5"/>
      <point x="96" y="133.5"/>
    </contour>
    <contour>
      <point x="170.5" y="57.5" type="curve" smooth="yes"/>
      <point x="220.5" y="57.5"/>
      <point x="246" y="94.5"/>
      <point x="246" y="163" type="curve" smooth="yes"/>
      <point x="246" y="186"/>
      <point x="243" y="205.5"/>
      <point x="237" y="221" type="curve"/>
      <point x="115" y="83" type="line"/>
      <point x="127.5" y="66"/>
      <point x="146.5" y="57.5"/>
    </contour>
  </outline>
</glyph>
<glyph name="Ucircumflex" format="1">
  <advance width="332"/>
  <unicode hex="00DB"/>
  <outline>
    <contour>
      <point x="244" y="379" type="move" name="Anchor-1"/>
    </contour>
    <contour>
      <point x="166" y="0" type="move" name="Anchor-0"/>
    </contour>
    <contour>
      <point x="111" y="349" type="line" smooth="yes"/>
      <point x="104.5" y="349"/>
      <point x="102" y="350.5"/>
      <point x="102" y="353.5" type="curve" smooth="yes"/>
      <point x="102" y="355.5"/>
      <point x="103" y="358"/>
      <point x="104.5" y="360.5" type="curve" smooth="yes"/>
      <point x="135" y="408" type="line" smooth="yes"/>
      <point x="140" y="416.5"/>
      <point x="150" y="417"/>
      <point x="163.5" y="417" type="curve" smooth="yes"/>
      <point x="168.5" y="417" type="line" smooth="yes"/>
      <point x="182" y="417"/>
      <point x="192" y="416.5"/>
      <point x="197" y="408" type="curve" smooth="yes"/>
      <point x="227" y="360.5" type="line" smooth="yes"/>
      <point x="229" y="358"/>
      <point x="230" y="355.5"/>
      <point x="230" y="353.5" type="curve" smooth="yes"/>
      <point x="230" y="350.5"/>
      <point x="226.5" y="349"/>
      <point x="220.5" y="349" type="curve" smooth="yes"/>
      <point x="210.5" y="349" type="line" smooth="yes"/>
      <point x="197" y="349"/>
      <point x="185" y="351.5"/>
      <point x="178.5" y="360" type="curve" smooth="yes"/>
      <point x="165.5" y="379" type="line"/>
      <point x="152.5" y="360.5" type="line" smooth="yes"/>
      <point x="145.5" y="351"/>
      <point x="135" y="349"/>
      <point x="121.5" y="349" type="curve" smooth="yes"/>
    </contour>
    <contour>
      <point x="166" y="-3.5" type="curve" smooth="yes"/>
      <point x="80.5" y="-3.5"/>
      <point x="31" y="37.5"/>
      <point x="31" y="109" type="curve" smooth="yes"/>
      <point x="31" y="312" type="line" smooth="yes"/>
      <point x="31" y="322"/>
      <point x="39" y="327"/>
      <point x="58.5" y="327" type="curve" smooth="yes"/>
      <point x="74.5" y="327" type="line" smooth="yes"/>
      <point x="94" y="327"/>
      <point x="102.5" y="322"/>
      <point x="102.5" y="312" type="curve" smooth="yes"/>
      <point x="102.5" y="113.5" type="line" smooth="yes"/>
      <point x="102.5" y="81"/>
      <point x="128" y="57.5"/>
      <point x="166" y="57.5" type="curve" smooth="yes"/>
      <point x="203.5" y="57.5"/>
      <point x="229.5" y="81"/>
      <point x="229.5" y="113.5" type="curve" smooth="yes"/>
      <point x="229.5" y="312" type="line" smooth="yes"/>
      <point x="229.5" y="322"/>
      <point x="238" y="327"/>
      <point x="257.5" y="327" type="curve" smooth="yes"/>
      <point x="273" y="327" type="line" smooth="yes"/>
      <point x="292.5" y="327"/>
      <point x="301" y="322"/>
      <point x="301" y="312" type="curve" smooth="yes"/>
      <point x="301" y="109" type="line" smooth="yes"/>
      <point x="301" y="37.5"/>
      <point x="251" y="-3.5"/>
    </contour>
  </outline>
</glyph>
<glyph name="adieresis" format="1">
  <advance width="254"/>
  <unicode hex="00E4"/>
  <outline>
    <contour>
      <point x="127" y="244" type="move" name="Anchor-1"/>
    </contour>
    <contour>
      <point x="127" y="0" type="move" name="Anchor-0"/>
    </contour>
    <contour>
      <point x="85" y="269.5" type="curve" smooth="yes"/>
      <point x="65.5" y="269.5"/>
      <point x="57" y="274.5"/>
      <point x="57" y="284.5" type="curve" smooth="yes"/>
      <point x="57" y="312" type="line" smooth="yes"/>
      <point x="57" y="322"/>
      <point x="65.5" y="327"/>
      <point x="85" y="327" type="curve" smooth="yes"/>
      <point x="104.5" y="327"/>
      <point x="113" y="322"/>
      <point x="113" y="312" type="curve" smooth="yes"/>
      <point x="113" y="284.5" type="line" smooth="yes"/>
      <point x="113" y="274.5"/>
      <point x="104.5" y="269.5"/>
    </contour>
    <contour>
      <point x="169" y="269.5" type="curve" smooth="yes"/>
      <point x="149.5" y="269.5"/>
      <point x="141" y="274.5"/>
      <point x="141" y="284.5" type="curve" smooth="yes"/>
      <point x="141" y="312" type="line" smooth="yes"/>
      <point x="141" y="322"/>
      <point x="149.5" y="327"/>
      <point x="169" y="327" type="curve" smooth="yes"/>
      <point x="188.5" y="327"/>
      <point x="197" y="322"/>
      <point x="197" y="312" type="curve" smooth="yes"/>
      <point x="197" y="284.5" type="line" smooth="yes"/>
      <point x="197" y="274.5"/>
      <point x="188.5" y="269.5"/>
    </contour>
    <contour>
      <point x="88.5" y="-3.5" type="curve" smooth="yes"/>
      <point x="38" y="-3.5"/>
      <point x="19.5" y="26"/>
      <point x="19.5" y="64.5" type="curve" smooth="yes"/>
      <point x="19.5" y="102.5"/>
      <point x="35" y="151"/>
      <point x="153.5" y="151" type="curve"/>
      <point x="153.5" y="166.5" type="line" smooth="yes"/>
      <point x="153.5" y="184"/>
      <point x="142.5" y="193"/>
      <point x="117" y="193" type="curve" smooth="yes"/>
      <point x="83" y="193"/>
      <point x="63" y="178"/>
      <point x="57.5" y="178" type="curve" smooth="yes"/>
      <point x="47.5" y="178"/>
      <point x="33" y="205.5"/>
      <point x="33" y="215.5" type="curve" smooth="yes"/>
      <point x="33" y="231"/>
      <point x="70.5" y="247.5"/>
      <point x="122" y="247.5" type="curve" smooth="yes"/>
      <point x="195.5" y="247.5"/>
      <point x="222.5" y="215"/>
      <point x="222.5" y="169.5" type="curve" smooth="yes"/>
      <point x="222.5" y="82" type="line" smooth="yes"/>
      <point x="222.5" y="34"/>
      <point x="228" y="24"/>
      <point x="228" y="14.5" type="curve" smooth="yes"/>
      <point x="228" y="3.5"/>
      <point x="187.5" y="-0.5"/>
      <point x="175.5" y="-0.5" type="curve" smooth="yes"/>
      <point x="161" y="-0.5"/>
      <point x="160" y="19"/>
      <point x="157" y="31.5" type="curve"/>
      <point x="154" y="25.5"/>
      <point x="131.5" y="-3.5"/>
    </contour>
    <contour>
      <point x="111.5" y="51" type="curve" smooth="yes"/>
      <point x="129" y="51"/>
      <point x="146" y="63.5"/>
      <point x="153.5" y="80" type="curve"/>
      <point x="153.5" y="106" type="line"/>
      <point x="109" y="106"/>
      <point x="88" y="93.5"/>
      <point x="88" y="71.5" type="curve" smooth="yes"/>
      <point x="88" y="59.5"/>
      <point x="96" y="51"/>
    </contour>
  </outline>
</glyph>
<glyph name="aring" format="1">
  <advance width="254"/>
  <unicode hex="00E5"/>
  <outline>
    <contour>
      <point x="127" y="244" type="move" name="Anchor-1"/>
    </contour>
    <contour>
      <point x="127" y="0" type="move" name="Anchor-0"/>
    </contour>
    <contour>
      <point x="126.5" y="256.5" type="curve" smooth="yes"/>
      <point x="100.5" y="256.5"/>
      <point x="80.5" y="276.5"/>
      <point x="80.5" y="302.5" type="curve" smooth="yes"/>
      <point x="80.5" y="328.5"/>
      <point x="100.5" y="349"/>
      <point x="126.5" y="349" type="curve" smooth="yes"/>
      <point x="152.5" y="349"/>
      <point x="173" y="328.5"/>
      <point x="173" y="302.5" type="curve" smooth="yes"/>
      <point x="173" y="276.5"/>
      <point x="152.5" y="256.5"/>
    </contour>
    <contour>
      <point x="126.5" y="285" type="curve" smooth="yes"/>
      <point x="136" y="285"/>
      <point x="144" y="292.5"/>
      <point x="144" y="302" type="curve" smooth="yes"/>
      <point x="144" y="311.5"/>
      <point x="136" y="319"/>
      <point x="126.5" y="319" type="curve" smooth="yes"/>
      <point x="117" y="319"/>
      <point x="110" y="311.5"/>
      <point x="110" y="302" type="curve" smooth="yes"/>
      <point x="110" y="292.5"/>
      <point x="117" y="285"/>
    </contour>
    <contour>
      <point x="88.5" y="-3.5" type="curve" smooth="yes"/>
      <point x="38" y="-3.5"/>
      <point x="19.5" y="26"/>
      <point x="19.5" y="64.5" type="curve" smooth="yes"/>
      <point x="19.5" y="102.5"/>
      <point x="35" y="151"/>
      <point x="153.5" y="151" type="curve"/>
      <point x="153.5" y="166.5" type="line" smooth="yes"/>
      <point x="153.5" y="184"/>
      <point x="142.5" y="193"/>
      <point x="117" y="193" type="curve" smooth="yes"/>
      <point x="83" y="193"/>
      <point x="63" y="178"/>
      <point x="57.5" y="178" type="curve" smooth="yes"/>
      <point x="47.5" y="178"/>
      <point x="33" y="205.5"/>
      <point x="33" y="215.5" type="curve" smooth="yes"/>
      <point x="33" y="231"/>
      <point x="70.5" y="247.5"/>
      <point x="122" y="247.5" type="curve" smooth="yes"/>
      <point x="195.5" y="247.5"/>
      <point x="222.5" y="215"/>
      <point x="222.5" y="169.5" type="curve" smooth="yes"/>
      <point x="222.5" y="82" type="line" smooth="yes"/>
      <point x="222.5" y="34"/>
      <point x="228" y="24"/>
      <point x="228" y="14.5" type="curve" smooth="yes"/>
      <point x="228" y="3.5"/>
      <point x="187.5" y="-0.5"/>
      <point x="175.5" y="-0.5" type="curve" smooth="yes"/>
      <point x="161" y="-0.5"/>
      <point x="160" y="19"/>
      <point x="157" y="31.5" type="curve"/>
      <point x="154" y="25.5"/>
      <point x="131.5" y="-3.5"/>
    </contour>
    <contour>
      <point x="111.5" y="51" type="curve" smooth="yes"/>
      <point x="129" y="51"/>
      <point x="146" y="63.5"/>
      <point x="153.5" y="80" type="curve"/>
      <point x="153.5" y="106" type="line"/>
      <point x="109" y="106"/>
      <point x="88" y="93.5"/>
      <point x="88" y="71.5" type="curve" smooth="yes"/>
      <point x="88" y="59.5"/>
      <point x="96" y="51"/>
    </contour>
  </outline>
</glyph>
<glyph name="eacute" format="1">
  <advance width="251"/>
  <unicode hex="00E9"/>
  <outline>
    <contour>
      <point x="126" y="244" type="move" name="Anchor-1"/>
    </contour>
    <contour>
      <point x="126" y="0" type="move" name="Anchor-0"/>
    </contour>
    <contour>
      <point x="107.5" y="268" type="curve" smooth="yes"/>
      <point x="96.5" y="268"/>
      <point x="93" y="270"/>
      <point x="93" y="275" type="curve" smooth="yes"/>
      <point x="93" y="280"/>
      <point x="102" y="291.5"/>
      <point x="123.5" y="329.5" type="curve" smooth="yes"/>
      <point x="129" y="339"/>
      <point x="144.5" y="342"/>
      <point x="163" y="342" type="curve" smooth="yes"/>
      <point x="181.5" y="342"/>
      <point x="191" y="340.5"/>
      <point x="191" y="335.5" type="curve" smooth="yes"/>
      <point x="191" y="330"/>
      <point x="188" y="329"/>
      <point x="142.5" y="279.5" type="curve" smooth="yes"/>
      <point x="137.5" y="274"/>
      <point x="129.5" y="268"/>
    </contour>
    <contour>
      <point x="141" y="-3.5" type="curve" smooth="yes"/>
      <point x="57" y="-3.5"/>
      <point x="19.5" y="45"/>
      <point x="19.5" y="120" type="curve" smooth="yes"/>
      <point x="19.5" y="212"/>
      <point x="66" y="247.5"/>
      <point x="133" y="247.5" type="curve" smooth="yes"/>
      <point x="206" y="247.5"/>
      <point x="233.5" y="192"/>
      <point x="233.5" y="127" type="curve" smooth="yes"/>
      <point x="233.5" y="119.5"/>
      <point x="216" y="99.5"/>
      <point x="209.5" y="99.5" type="curve" smooth="yes"/>
      <point x="91" y="99.5" type="line"/>
      <point x="94" y="62.5"/>
      <point x="114" y="51"/>
      <point x="144.5" y="51" type="curve" smooth="yes"/>
      <point x="174" y="51"/>
      <point x="194.5" y="65"/>
      <point x="201" y="65" type="curve" smooth="yes"/>
      <point x="211" y="65"/>
      <point x="225" y="39"/>
      <point x="225" y="30" type="curve" smooth="yes"/>
      <point x="225" y="6.5"/>
      <point x="167.5" y="-3.5"/>
    </contour>
    <contour>
      <point x="91" y="146" type="curve"/>
      <point x="166.5" y="146" type="line"/>
      <point x="166.5" y="173"/>
      <point x="156" y="193"/>
      <point x="133" y="193" type="curve" smooth="yes"/>
      <point x="113" y="193"/>
      <point x="96.5" y="181.5"/>
    </contour>
  </outline>
</glyph>
<glyph name="iacute" format="1">
  <advance width="124"/>
  <unicode hex="00ED"/>
  <outline>
    <contour>
      <point x="62" y="244" type="move" name="Anchor-1"/>
    </contour>
    <contour>
      <point x="61" y="0" type="move" name="Anchor-0"/>
    </contour>
    <contour>
      <point x="43.5" y="268" type="curve" smooth="yes"/>
      <point x="32.5" y="268"/>
      <point x="29" y="270"/>
      <point x="29" y="275" type="curve" smooth="yes"/>
      <point x="29" y="280"/>
      <point x="38" y="291.5"/>
      <point x="59.5" y="329.5" type="curve" smooth="yes"/>
      <point x="65" y="339"/>
      <point x="80.5" y="342"/>
      <point x="99" y="342" type="curve" smooth="yes"/>
      <point x="117.5" y="342"/>
      <point x="127" y="340.5"/>
      <point x="127" y="335.5" type="curve" smooth="yes"/>
      <point x="127" y="330"/>
      <point x="124" y="329"/>
      <point x="78.5" y="279.5" type="curve" smooth="yes"/>
      <point x="73.5" y="274"/>
      <point x="65.5" y="268"/>
    </contour>
    <contour>
      <point x="55.5" y="-1" type="line" smooth="yes"/>
      <point x="36" y="-1"/>
      <point x="27.5" y="4"/>
      <point x="27.5" y="14" type="curve" smooth="yes"/>
      <point x="27.5" y="229.5" type="line" smooth="yes"/>
      <point x="27.5" y="239.5"/>
      <point x="36" y="244.5"/>
      <point x="55.5" y="244.5" type="curve" smooth="yes"/>
      <point x="68.5" y="244.5" type="line" smooth="yes"/>
      <point x="88" y="244.5"/>
      <point x="96.5" y="239.5"/>
      <point x="96.5" y="229.5" type="curve" smooth="yes"/>
      <point x="96.5" y="14" type="line" smooth="yes"/>
      <point x="96.5" y="4"/>
      <point x="88" y="-1"/>
      <point x="68.5" y="-1" type="curve" smooth="yes"/>
    </contour>
  </outline>
</glyph>
<glyph name="idieresis" format="1">
  <advance width="124"/>
  <unicode hex="00EF"/>
  <outline>
    <contour>
      <point x="62" y="244" type="move" name="Anchor-1"/>
    </contour>
    <contour>
      <point x="61" y="0" type="move" name="Anchor-0"/>
    </contour>
    <contour>
      <point x="20" y="269.5" type="curve" smooth="yes"/>
      <point x="0.5" y="269.5"/>
      <point x="-8" y="274.5"/>
      <point x="-8" y="284.5" type="curve" smooth="yes"/>
      <point x="-8" y="312" type="line" smooth="yes"/>
      <point x="-8" y="322"/>
      <point x="0.5" y="327"/>
      <point x="20" y="327" type="curve" smooth="yes"/>
      <point x="39.5" y="327"/>
      <point x="48" y="322"/>
      <point x="48" y="312" type="curve" smooth="yes"/>
      <point x="48" y="284.5" type="line" smooth="yes"/>
      <point x="48" y="274.5"/>
      <point x="39.5" y="269.5"/>
    </contour>
    <contour>
      <point x="104" y="269.5" type="curve" smooth="yes"/>
      <point x="84.5" y="269.5"/>
      <point x="76" y="274.5"/>
      <point x="76" y="284.5" type="curve" smooth="yes"/>
      <point x="76" y="312" type="line" smooth="yes"/>
      <point x="76" y="322"/>
      <point x="84.5" y="327"/>
      <point x="104" y="327" type="curve" smooth="yes"/>
      <point x="123.5" y="327"/>
      <point x="132" y="322"/>
      <point x="132" y="312" type="curve" smooth="yes"/>
      <point x="132" y="284.5" type="line" smooth="yes"/>
      <point x="132" y="274.5"/>
      <point x="123.5" y="269.5"/>
    </contour>
    <contour>
      <point x="55.5" y="-1" type="line" smooth="yes"/>
      <point x="36" y="-1"/>
      <point x="27.5" y="4"/>
      <point x="27.5" y="14" type="curve" smooth="yes"/>
      <point x="27.5" y="229.5" type="line" smooth="yes"/>
      <point x="27.5" y="239.5"/>
      <point x="36" y="244.5"/>
      <point x="55.5" y="244.5" type="curve" smooth="yes"/>
      <point x="68.5" y="244.5" type="line" smooth="yes"/>
      <point x="88" y="244.5"/>
      <point x="96.5" y="239.5"/>
      <point x="96.5" y="229.5" type="curve" smooth="yes"/>
      <point x="96.5" y="14" type="line" smooth="yes"/>
      <point x="96.5" y="4"/>
      <point x="88" y="-1"/>
      <point x="68.5" y="-1" type="curve" smooth="yes"/>
    </contour>
  </outline>
</glyph>
<glyph name="oacute" format="1">
  <advance width="265"/>
  <unicode hex="00F3"/>
  <outline>
    <contour>
      <point x="133" y="244" type="move" name="Anchor-1"/>
    </contour>
    <contour>
      <point x="136" y="0" type="move" name="Anchor-0"/>
    </contour>
    <contour>
      <point x="114.5" y="268" type="curve" smooth="yes"/>
      <point x="103.5" y="268"/>
      <point x="100" y="270"/>
      <point x="100" y="275" type="curve" smooth="yes"/>
      <point x="100" y="280"/>
      <point x="109" y="291.5"/>
      <point x="130.5" y="329.5" type="curve" smooth="yes"/>
      <point x="136" y="339"/>
      <point x="151.5" y="342"/>
      <point x="170" y="342" type="curve" smooth="yes"/>
      <point x="188.5" y="342"/>
      <point x="198" y="340.5"/>
      <point x="198" y="335.5" type="curve" smooth="yes"/>
      <point x="198" y="330"/>
      <point x="195" y="329"/>
      <point x="149.5" y="279.5" type="curve" smooth="yes"/>
      <point x="144.5" y="274"/>
      <point x="136.5" y="268"/>
    </contour>
    <contour>
      <point x="133" y="-3.5" type="curve" smooth="yes"/>
      <point x="58.5" y="-3.5"/>
      <point x="19.5" y="41"/>
      <point x="19.5" y="122" type="curve" smooth="yes"/>
      <point x="19.5" y="203"/>
      <point x="58.5" y="247.5"/>
      <point x="133" y="247.5" type="curve" smooth="yes"/>
      <point x="207" y="247.5"/>
      <point x="245.5" y="203"/>
      <point x="245.5" y="122" type="curve" smooth="yes"/>
      <point x="245.5" y="41"/>
      <point x="207" y="-3.5"/>
    </contour>
    <contour>
      <point x="133" y="51" type="curve" smooth="yes"/>
      <point x="162.5" y="51"/>
      <point x="175.5" y="75.5"/>
      <point x="175.5" y="122" type="curve" smooth="yes"/>
      <point x="175.5" y="168.5"/>
      <point x="162.5" y="193"/>
      <point x="133" y="193" type="curve" smooth="yes"/>
      <point x="103" y="193"/>
      <point x="89.5" y="168.5"/>
      <point x="89.5" y="122" type="curve" smooth="yes"/>
      <point x="89.5" y="75.5"/>
      <point x="103" y="51"/>
    </contour>
  </outline>
</glyph>
<glyph name="ucircumflex" format="1">
  <advance width="260"/>
  <unicode hex="00FB"/>
  <outline>
    <contour>
      <point x="208" y="296" type="move" name="Anchor-1"/>
    </contour>
    <contour>
      <point x="117" y="0" type="move" name="Anchor-0"/>
    </contour>
    <contour>
      <point x="75" y="266.5" type="line" smooth="yes"/>
      <point x="68.5" y="266.5"/>
      <point x="66" y="268"/>
      <point x="66" y="271" type="curve" smooth="yes"/>
      <point x="66" y="273"/>
      <point x="67" y="275.5"/>
      <point x="68.5" y="278" type="curve" smooth="yes"/>
      <point x="99" y="325.5" type="line" smooth="yes"/>
      <point x="104" y="334"/>
      <point x="114" y="334.5"/>
      <point x="127.5" y="334.5" type="curve" smooth="yes"/>
      <point x="132.5" y="334.5" type="line" smooth="yes"/>
      <point x="146" y="334.5"/>
      <point x="156" y="334"/>
      <point x="161" y="325.5" type="curve" smooth="yes"/>
      <point x="191" y="278" type="line" smooth="yes"/>
      <point x="193" y="275.5"/>
      <point x="194" y="273"/>
      <point x="194" y="271" type="curve" smooth="yes"/>
      <point x="194" y="268"/>
      <point x="190.5" y="266.5"/>
      <point x="184.5" y="266.5" type="curve" smooth="yes"/>
      <point x="174.5" y="266.5" type="line" smooth="yes"/>
      <point x="161" y="266.5"/>
      <point x="149" y="269"/>
      <point x="142.5" y="277.5" type="curve" smooth="yes"/>
      <point x="129.5" y="296.5" type="line"/>
      <point x="116.5" y="278" type="line" smooth="yes"/>
      <point x="109.5" y="268.5"/>
      <point x="99" y="266.5"/>
      <point x="85.5" y="266.5" type="curve" smooth="yes"/>
    </contour>
    <contour>
      <point x="96" y="-3.5" type="curve" smooth="yes"/>
      <point x="49.5" y="-3.5"/>
      <point x="27.5" y="20"/>
      <point x="27.5" y="72" type="curve" smooth="yes"/>
      <point x="27.5" y="229.5" type="line" smooth="yes"/>
      <point x="27.5" y="239.5"/>
      <point x="36" y="244.5"/>
      <point x="55.5" y="244.5" type="curve" smooth="yes"/>
      <point x="68.5" y="244.5" type="line" smooth="yes"/>
      <point x="88" y="244.5"/>
      <point x="96.5" y="239.5"/>
      <point x="96.5" y="229.5" type="curve" smooth="yes"/>
      <point x="96.5" y="82" type="line" smooth="yes"/>
      <point x="96.5" y="64"/>
      <point x="104" y="53"/>
      <point x="124.5" y="53" type="curve" smooth="yes"/>
      <point x="143.5" y="53"/>
      <point x="156" y="69.5"/>
      <point x="161.5" y="80" type="curve"/>
      <point x="161.5" y="229.5" type="line" smooth="yes"/>
      <point x="161.5" y="239.5"/>
      <point x="170" y="244.5"/>
      <point x="189.5" y="244.5" type="curve" smooth="yes"/>
      <point x="202.5" y="244.5" type="line" smooth="yes"/>
      <point x="222.5" y="244.5"/>
      <point x="230.5" y="239.5"/>
      <point x="230.5" y="229.5" type="curve" smooth="yes"/>
      <point x="230.5" y="82" type="line" smooth="yes"/>
      <point x="230.5" y="34"/>
      <point x="236.5" y="24"/>
      <point x="236.5" y="14.5" type="curve" smooth="yes"/>
      <point x="236.5" y="3.5"/>
      <point x="195.5" y="-0.5"/>
      <point x="184" y="-0.5" type="curve" smooth="yes"/>
      <point x="169" y="-0.5"/>
      <point x="168" y="19"/>
      <point x="165.5" y="31.5" type="curve"/>
      <point x="152" y="14"/>
      <point x="126.5" y="-3.5"/>
    </contour>
  </outline>
</glyph>
<glyph name="yacute" format="1">
  <advance width="224"/>
  <unicode hex="00FD"/>
  <outline>
    <contour>
      <point x="113" y="244" type="move" name="Anchor-1"/>
    </contour>
    <contour>
      <point x="168" y="0" type="move" name="Anchor-0"/>
    </contour>
    <contour>
      <point x="94" y="268" type="curve" smooth="yes"/>
      <point x="83" y="268"/>
      <point x="79.5" y="270"/>
      <point x="79.5" y="275" type="curve" smooth="yes"/>
      <point x="79.5" y="280"/>
      <point x="88.5" y="291.5"/>
      <point x="110" y="329.5" type="curve" smooth="yes"/>
      <point x="115.5" y="339"/>
      <point x="131" y="342"/>
      <point x="149.5" y="342" type="curve" smooth="yes"/>
      <point x="168" y="342"/>
      <point x="177.5" y="340.5"/>
      <point x="177.5" y="335.5" type="curve" smooth="yes"/>
      <point x="177.5" y="330"/>
      <point x="174.5" y="329"/>
      <point x="129" y="279.5" type="curve" smooth="yes"/>
      <point x="124" y="274"/>
      <point x="116" y="268"/>
    </contour>
    <contour>
      <point x="80" y="-96" type="line" smooth="yes"/>
      <point x="61" y="-96"/>
      <point x="52" y="-92.5"/>
      <point x="52" y="-86" type="curve" smooth="yes"/>
      <point x="52" y="-84"/>
      <point x="52.5" y="-81"/>
      <point x="54" y="-78" type="curve" smooth="yes"/>
      <point x="83.5" y="0" type="line"/>
      <point x="6.5" y="226" type="line" smooth="yes"/>
      <point x="5.5" y="229.5"/>
      <point x="4.5" y="232"/>
      <point x="4.5" y="234.5" type="curve" smooth="yes"/>
      <point x="4.5" y="241"/>
      <point x="13.5" y="244.5"/>
      <point x="33" y="244.5" type="curve" smooth="yes"/>
      <point x="48" y="244.5" type="line" smooth="yes"/>
      <point x="61.5" y="244.5"/>
      <point x="72" y="242.5"/>
      <point x="74" y="235" type="curve" smooth="yes"/>
      <point x="101.5" y="148.5" type="line" smooth="yes"/>
      <point x="105" y="138"/>
      <point x="110.5" y="112.5"/>
      <point x="114.5" y="92.5" type="curve"/>
      <point x="116.5" y="92.5" type="line"/>
      <point x="120.5" y="112.5"/>
      <point x="126.5" y="138.5"/>
      <point x="129.5" y="148.5" type="curve" smooth="yes"/>
      <point x="157" y="235" type="line" smooth="yes"/>
      <point x="159.5" y="242.5"/>
      <point x="169.5" y="244.5"/>
      <point x="183" y="244.5" type="curve" smooth="yes"/>
      <point x="194.5" y="244.5" type="line" smooth="yes"/>
      <point x="214" y="244.5"/>
      <point x="222.5" y="241"/>
      <point x="222.5" y="234.5" type="curve" smooth="yes"/>
      <point x="222.5" y="232"/>
      <point x="222" y="229.5"/>
      <point x="221" y="226" type="curve" smooth="yes"/>
      <point x="114" y="-86" type="line" smooth="yes"/>
      <point x="111.5" y="-93.5"/>
      <point x="101.5" y="-96"/>
      <point x="88" y="-96" type="curve" smooth="yes"/>
    </contour>
  </outline>
</glyph>
<glyph name="cacute" format="1">
  <advance width="226"/>
  <unicode hex="0107"/>
  <outline>
    <contour>
      <point x="128" y="244" type="move" name="Anchor-1"/>
    </contour>
    <contour>
      <point x="136" y="0" type="move" name="Anchor-0"/>
    </contour>
    <contour>
      <point x="109.5" y="268" type="curve" smooth="yes"/>
      <point x="98.5" y="268"/>
      <point x="95" y="270"/>
      <point x="95" y="275" type="curve" smooth="yes"/>
      <point x="95" y="280"/>
      <point x="104" y="291.5"/>
      <point x="125.5" y="329.5" type="curve" smooth="yes"/>
      <point x="131" y="339"/>
      <point x="146.5" y="342"/>
      <point x="165" y="342" type="curve" smooth="yes"/>
      <point x="183.5" y="342"/>
      <point x="193" y="340.5"/>
      <point x="193" y="335.5" type="curve" smooth="yes"/>
      <point x="193" y="330"/>
      <point x="190" y="329"/>
      <point x="144.5" y="279.5" type="curve" smooth="yes"/>
      <point x="139.5" y="274"/>
      <point x="131.5" y="268"/>
    </contour>
    <contour>
      <point x="137" y="-3.5" type="curve" smooth="yes"/>
      <point x="57.5" y="-3.5"/>
      <point x="19.5" y="37"/>
      <point x="19.5" y="120" type="curve" smooth="yes"/>
      <point x="19.5" y="203"/>
      <point x="56" y="247.5"/>
      <point x="139.5" y="247.5" type="curve" smooth="yes"/>
      <point x="172.5" y="247.5"/>
      <point x="216.5" y="236.5"/>
      <point x="216.5" y="215.5" type="curve" smooth="yes"/>
      <point x="216.5" y="206.5"/>
      <point x="200" y="179.5"/>
      <point x="192" y="179.5" type="curve" smooth="yes"/>
      <point x="190" y="179.5"/>
      <point x="187.5" y="181"/>
      <point x="183.5" y="182.5" type="curve" smooth="yes"/>
      <point x="175" y="187"/>
      <point x="162.5" y="193"/>
      <point x="143" y="193" type="curve" smooth="yes"/>
      <point x="106" y="193"/>
      <point x="90.5" y="169.5"/>
      <point x="90.5" y="122" type="curve" smooth="yes"/>
      <point x="90.5" y="74"/>
      <point x="105" y="51"/>
      <point x="140.5" y="51" type="curve" smooth="yes"/>
      <point x="162" y="51"/>
      <point x="177" y="57.5"/>
      <point x="186" y="61.5" type="curve" smooth="yes"/>
      <point x="189.5" y="63"/>
      <point x="192.5" y="64.5"/>
      <point x="194.5" y="64.5" type="curve" smooth="yes"/>
      <point x="204.5" y="64.5"/>
      <point x="218.5" y="38"/>
      <point x="218.5" y="29" type="curve" smooth="yes"/>
      <point x="218.5" y="3"/>
      <point x="152.5" y="-3.5"/>
    </contour>
  </outline>
</glyph>
<glyph name="cdotaccent" format="1">
  <advance width="226"/>
  <unicode hex="010B"/>
  <outline>
    <contour>
      <point x="128" y="244" type="move" name="Anchor-1"/>
    </contour>
    <contour>
      <point x="136" y="0" type="move" name="Anchor-0"/>
    </contour>
    <contour>
      <point x="128" y="269.5" type="curve" smooth="yes"/>
      <point x="108.5" y="269.5"/>
      <point x="100" y="274.5"/>
      <point x="100" y="284.5" type="curve" smooth="yes"/>
      <point x="100" y="312" type="line" smooth="yes"/>
      <point x="100" y="322"/>
      <point x="108.5" y="327"/>
      <point x="128" y="327" type="curve" smooth="yes"/>
      <point x="147.5" y="327"/>
      <point x="156" y="322"/>
      <point x="156" y="312" type="curve" smooth="yes"/>
      <point x="156" y="284.5" type="line" smooth="yes"/>
      <point x="156" y="274.5"/>
      <point x="147.5" y="269.5"/>
    </contour>
    <contour>
      <point x="137" y="-3.5" type="curve" smooth="yes"/>
      <point x="57.5" y="-3.5"/>
      <point x="19.5" y="37"/>
      <point x="19.5" y="120" type="curve" smooth="yes"/>
      <point x="19.5" y="203"/>
      <point x="56" y="247.5"/>
      <point x="139.5" y="247.5" type="curve" smooth="yes"/>
      <point x="172.5" y="247.5"/>
      <point x="216.5" y="236.5"/>
      <point x="216.5" y="215.5" type="curve" smooth="yes"/>
      <point x="216.5" y="206.5"/>
      <point x="200" y="179.5"/>
      <point x="192" y="179.5" type="curve" smooth="yes"/>
      <point x="190" y="179.5"/>
      <point x="187.5" y="181"/>
      <point x="183.5" y="182.5" type="curve" smooth="yes"/>
      <point x="175" y="187"/>
      <point x="162.5" y="193"/>
      <point x="143" y="193" type="curve" smooth="yes"/>
      <point x="106" y="193"/>
      <point x="90.5" y="169.5"/>
      <point x="90.5" y="122" type="curve" smooth="yes"/>
      <point x="90.5" y="74"/>
      <point x="105" y="51"/>
      <point x="140.5" y="51" type="curve" smooth="yes"/>
      <point x="162" y="51"/>
      <point x="177" y="57.5"/>
      <point x="186" y="61.5" type="curve" smooth="yes"/>
      <point x="189.5" y="63"/>
      <point x="192.5" y="64.5"/>
      <point x="194.5" y="64.5" type="curve" smooth="yes"/>
      <point x="204.5" y="64.5"/>
      <point x="218.5" y="38"/>
      <point x="218.5" y="29" type="curve" smooth="yes"/>
      <point x="218.5" y="3"/>
      <point x="152.5" y="-3.5"/>
    </contour>
  </outline>
</glyph>
<glyph name="Ccaron" format="1">
  <advance width="289"/>
  <unicode hex="010C"/>
  <outline>
    <contour>
      <point x="172" y="326" type="move" name="Anchor-1"/>
    </contour>
    <contour>
      <point x="174" y="0" type="move" name="Anchor-0"/>
    </contour>
    <contour>
      <point x="169" y="349" type="line" smooth="yes"/>
      <point x="155.5" y="349"/>
      <point x="145.5" y="349.5"/>
      <point x="140.5" y="358" type="curve" smooth="yes"/>
      <point x="110" y="405.5" type="line" smooth="yes"/>
      <point x="108.5" y="408"/>
      <point x="107.5" y="410.5"/>
      <point x="107.5" y="412.5" type="curve" smooth="yes"/>
      <point x="107.5" y="415.5"/>
      <point x="110" y="417"/>
      <point x="116.5" y="417" type="curve" smooth="yes"/>
      <point x="127" y="417" type="line" smooth="yes"/>
      <point x="140.5" y="417"/>
      <point x="151" y="415"/>
      <point x="158" y="405.5" type="curve" smooth="yes"/>
      <point x="171" y="387.5" type="line"/>
      <point x="184" y="406" type="line" smooth="yes"/>
      <point x="190.5" y="415"/>
      <point x="202.5" y="417"/>
      <point x="216" y="417" type="curve" smooth="yes"/>
      <point x="226" y="417" type="line" smooth="yes"/>
      <point x="232" y="417"/>
      <point x="235.5" y="415.5"/>
      <point x="235.5" y="412.5" type="curve" smooth="yes"/>
      <point x="235.5" y="410.5"/>
      <point x="234.5" y="408"/>
      <point x="232.5" y="405.5" type="curve" smooth="yes"/>
      <point x="202.5" y="358" type="line" smooth="yes"/>
      <point x="197.5" y="349.5"/>
      <point x="187.5" y="349"/>
      <point x="174" y="349" type="curve" smooth="yes"/>
    </contour>
    <contour>
      <point x="174.5" y="-3.5" type="curve" smooth="yes"/>
      <point x="70" y="-3.5"/>
      <point x="21" y="49"/>
      <point x="21" y="164" type="curve" smooth="yes"/>
      <point x="21" y="275"/>
      <point x="73" y="330"/>
      <point x="176.5" y="330" type="curve" smooth="yes"/>
      <point x="217.5" y="330"/>
      <point x="274" y="317"/>
      <point x="274" y="297.5" type="curve" smooth="yes"/>
      <point x="274" y="284.5"/>
      <point x="255.5" y="253.5"/>
      <point x="243.5" y="253.5" type="curve" smooth="yes"/>
      <point x="238" y="253.5"/>
      <point x="219.5" y="268.5"/>
      <point x="175" y="268.5" type="curve" smooth="yes"/>
      <point x="120" y="268.5"/>
      <point x="94.5" y="233.5"/>
      <point x="94.5" y="163.5" type="curve" smooth="yes"/>
      <point x="94.5" y="93.5"/>
      <point x="120.5" y="57.5"/>
      <point x="174.5" y="57.5" type="curve" smooth="yes"/>
      <point x="218.5" y="57.5"/>
      <point x="243.5" y="76"/>
      <point x="250.5" y="76" type="curve" smooth="yes"/>
      <point x="265.5" y="76"/>
      <point x="278" y="43.5"/>
      <point x="278" y="35.5" type="curve" smooth="yes"/>
      <point x="278" y="7.5"/>
      <point x="211.5" y="-3.5"/>
    </contour>
  </outline>
</glyph>
<glyph name="Dcaron" format="1">
  <advance width="324"/>
  <unicode hex="010E"/>
  <outline>
    <contour>
      <point x="155" y="326" type="move" name="Anchor-1"/>
    </contour>
    <contour>
      <point x="154" y="0" type="move" name="Anchor-0"/>
    </contour>
    <contour>
      <point x="152.5" y="349" type="line" smooth="yes"/>
      <point x="139" y="349"/>
      <point x="129" y="349.5"/>
      <point x="124" y="358" type="curve" smooth="yes"/>
      <point x="93.5" y="405.5" type="line" smooth="yes"/>
      <point x="92" y="408"/>
      <point x="91" y="410.5"/>
      <point x="91" y="412.5" type="curve" smooth="yes"/>
      <point x="91" y="415.5"/>
      <point x="93.5" y="417"/>
      <point x="100" y="417" type="curve" smooth="yes"/>
      <point x="110.5" y="417" type="line" smooth="yes"/>
      <point x="124" y="417"/>
      <point x="134.5" y="415"/>
      <point x="141.5" y="405.5" type="curve" smooth="yes"/>
      <point x="154.5" y="387.5" type="line"/>
      <point x="167.5" y="406" type="line" smooth="yes"/>
      <point x="174" y="415"/>
      <point x="186" y="417"/>
      <point x="199.5" y="417" type="curve" smooth="yes"/>
      <point x="209.5" y="417" type="line" smooth="yes"/>
      <point x="215.5" y="417"/>
      <point x="219" y="415.5"/>
      <point x="219" y="412.5" type="curve" smooth="yes"/>
      <point x="219" y="410.5"/>
      <point x="218" y="408"/>
      <point x="216" y="405.5" type="curve" smooth="yes"/>
      <point x="186" y="358" type="line" smooth="yes"/>
      <point x="181" y="349.5"/>
      <point x="171" y="349"/>
      <point x="157.5" y="349" type="curve" smooth="yes"/>
    </contour>
    <contour>
      <point x="51" y="0" type="line" smooth="yes"/>
      <point x="37.5" y="0"/>
      <point x="32" y="5.5"/>
      <point x="32" y="18.5" type="curve" smooth="yes"/>
      <point x="32" y="307.5" type="line" smooth="yes"/>
      <point x="32" y="320.5"/>
      <point x="37.5" y="326"/>
      <point x="51" y="326" type="curve" smooth="yes"/>
      <point x="155" y="326" type="line" smooth="yes"/>
      <point x="251" y="326"/>
      <point x="304.5" y="268.5"/>
      <point x="304.5" y="163" type="curve" smooth="yes"/>
      <point x="304.5" y="58"/>
      <point x="251" y="0"/>
      <point x="155" y="0" type="curve" smooth="yes"/>
    </contour>
    <contour>
      <point x="104.5" y="61" type="line"/>
      <point x="155" y="61" type="line" smooth="yes"/>
      <point x="205" y="61"/>
      <point x="230.5" y="97"/>
      <point x="230.5" y="163" type="curve" smooth="yes"/>
      <point x="230.5" y="229.5"/>
      <point x="205" y="265"/>
      <point x="155" y="265" type="curve" smooth="yes"/>
      <point x="104.5" y="265" type="line"/>
    </contour>
  </outline>
</glyph>
<glyph name="ebreve" format="1">
  <advance width="251"/>
  <unicode hex="0115"/>
  <outline>
    <contour>
      <point x="126" y="320" type="move" name="Anchor-1"/>
    </contour>
    <contour>
      <point x="126" y="0" type="move" name="Anchor-0"/>
    </contour>
    <contour>
      <point x="126" y="268" type="curve" smooth="yes"/>
      <point x="85.5" y="268"/>
      <point x="57.5" y="293.5"/>
      <point x="57.5" y="320" type="curve" smooth="yes"/>
      <point x="57.5" y="328.5"/>
      <point x="63.5" y="333"/>
      <point x="74" y="333" type="curve" smooth="yes"/>
      <point x="82" y="333"/>
      <point x="85" y="329.5"/>
      <point x="89.5" y="325" type="curve" smooth="yes"/>
      <point x="95.5" y="318.5"/>
      <point x="102.5" y="310.5"/>
      <point x="126" y="310.5" type="curve" smooth="yes"/>
      <point x="151.5" y="310.5"/>
      <point x="158" y="319"/>
      <point x="164" y="325.5" type="curve" smooth="yes"/>
      <point x="167.5" y="330"/>
      <point x="171" y="333"/>
      <point x="178.5" y="333" type="curve" smooth="yes"/>
      <point x="188.5" y="333"/>
      <point x="194.5" y="328.5"/>
      <point x="194.5" y="320" type="curve" smooth="yes"/>
      <point x="194.5" y="293.5"/>
      <point x="166.5" y="268"/>
    </contour>
    <contour>
      <point x="141" y="-3.5" type="curve" smooth="yes"/>
      <point x="57" y="-3.5"/>
      <point x="19.5" y="45"/>
      <point x="19.5" y="120" type="curve" smooth="yes"/>
      <point x="19.5" y="212"/>
      <point x="66" y="247.5"/>
      <point x="133" y="247.5" type="curve" smooth="yes"/>
      <point x="206" y="247.5"/>
      <point x="233.5" y="192"/>
      <point x="233.5" y="127" type="curve" smooth="yes"/>
      <point x="233.5" y="119.5"/>
      <point x="216" y="99.5"/>
      <point x="209.5" y="99.5" type="curve" smooth="yes"/>
      <point x="91" y="99.5" type="line"/>
      <point x="94" y="62.5"/>
      <point x="114" y="51"/>
      <point x="144.5" y="51" type="curve" smooth="yes"/>
      <point x="174" y="51"/>
      <point x="194.5" y="65"/>
      <point x="201" y="65" type="curve" smooth="yes"/>
      <point x="211" y="65"/>
      <point x="225" y="39"/>
      <point x="225" y="30" type="curve" smooth="yes"/>
      <point x="225" y="6.5"/>
      <point x="167.5" y="-3.5"/>
    </contour>
    <contour>
      <point x="91" y="146" type="curve"/>
      <point x="166.5" y="146" type="line"/>
      <point x="166.5" y="173"/>
      <point x="156" y="193"/>
      <point x="133" y="193" type="curve" smooth="yes"/>
      <point x="113" y="193"/>
      <point x="96.5" y="181.5"/>
    </contour>
  </outline>
</glyph>
<glyph name="Gcommaaccent" format="1">
  <advance width="313"/>
  <unicode hex="0122"/>
  <outline>
    <contour>
      <point x="163" y="326" type="move" name="Anchor-1"/>
    </contour>
    <contour>
      <point x="166" y="-95" type="move" name="Anchor-0"/>
    </contour>
    <contour>
      <point x="174.5" y="-3.5" type="curve" smooth="yes"/>
      <point x="70" y="-3.5"/>
      <point x="21" y="49"/>
      <point x="21" y="164" type="curve" smooth="yes"/>
      <point x="21" y="275"/>
      <point x="73" y="330"/>
      <point x="176.5" y="330" type="curve" smooth="yes"/>
      <point x="217.5" y="330"/>
      <point x="276.5" y="317"/>
      <point x="276.5" y="297.5" type="curve" smooth="yes"/>
      <point x="276.5" y="284.5"/>
      <point x="257.5" y="253.5"/>
      <point x="246" y="253.5" type="curve" smooth="yes"/>
      <point x="240.5" y="253.5"/>
      <point x="219.5" y="268.5"/>
      <point x="175" y="268.5" type="curve" smooth="yes"/>
      <point x="120" y="268.5"/>
      <point x="94.5" y="233.5"/>
      <point x="94.5" y="163.5" type="curve" smooth="yes"/>
      <point x="94.5" y="93.5"/>
      <point x="120.5" y="57.5"/>
      <point x="174.5" y="57.5" type="curve" smooth="yes"/>
      <point x="187.5" y="57.5"/>
      <point x="198" y="58"/>
      <point x="210.5" y="60.5" type="curve"/>
      <point x="210.5" y="120" type="line"/>
      <point x="169.5" y="120" type="line" smooth="yes"/>
      <point x="160" y="120"/>
      <point x="155.5" y="127"/>
      <point x="155.5" y="143" type="curve" smooth="yes"/>
      <point x="155.5" y="158" type="line" smooth="yes"/>
      <point x="155.5" y="174.5"/>
      <point x="160" y="181.5"/>
      <point x="169.5" y="181.5" type="curve" smooth="yes"/>
      <point x="264" y="181.5" type="line" smooth="yes"/>
      <point x="277.5" y="181.5"/>
      <point x="283" y="175.5"/>
      <point x="283" y="162.5" type="curve" smooth="yes"/>
      <point x="283" y="33" type="line" smooth="yes"/>
      <point x="283" y="1"/>
      <point x="207.5" y="-3.5"/>
    </contour>
    <contour>
      <point x="144" y="-112" type="curve" smooth="yes"/>
      <point x="135.5" y="-112"/>
      <point x="123" y="-109"/>
      <point x="123" y="-101.5" type="curve" smooth="yes"/>
      <point x="123" y="-93"/>
      <point x="134.5" y="-81.5"/>
      <point x="134.5" y="-44.5" type="curve" smooth="yes"/>
      <point x="134.5" y="-31.5"/>
      <point x="142.5" y="-24"/>
      <point x="162" y="-24" type="curve" smooth="yes"/>
      <point x="171" y="-24" type="line" smooth="yes"/>
      <point x="187.5" y="-24"/>
      <point x="194.5" y="-32.5"/>
      <point x="194.5" y="-44.5" type="curve" smooth="yes"/>
      <point x="194.5" y="-75.5"/>
      <point x="160.5" y="-112"/>
    </contour>
  </outline>
</glyph>
<glyph name="Hbar" format="1">
  <advance width="342"/>
  <unicode hex="0126"/>
  <outline>
    <contour>
      <point x="171" y="326" type="move" name="Anchor-1"/>
    </contour>
    <contour>
      <point x="178" y="0" type="move" name="Anchor-0"/>
    </contour>
    <contour>
      <point x="314.5" y="266" type="line" smooth="yes"/>
      <point x="324" y="266"/>
      <point x="328" y="260.5"/>
      <point x="328" y="247.5" type="curve" smooth="yes"/>
      <point x="328" y="240.5" type="line" smooth="yes"/>
      <point x="328" y="227.5"/>
      <point x="324" y="222"/>
      <point x="314.5" y="222" type="curve" smooth="yes"/>
      <point x="309.5" y="222" type="line"/>
      <point x="309.5" y="14" type="line" smooth="yes"/>
      <point x="309.5" y="4"/>
      <point x="301" y="-1"/>
      <point x="281.5" y="-1" type="curve" smooth="yes"/>
      <point x="265" y="-1" type="line" smooth="yes"/>
      <point x="245.5" y="-1"/>
      <point x="237" y="4"/>
      <point x="237" y="14" type="curve" smooth="yes"/>
      <point x="237" y="135.5" type="line"/>
      <point x="111.5" y="135.5" type="line"/>
      <point x="111.5" y="14" type="line" smooth="yes"/>
      <point x="111.5" y="4"/>
      <point x="103" y="-1"/>
      <point x="83.5" y="-1" type="curve" smooth="yes"/>
      <point x="67" y="-1" type="line" smooth="yes"/>
      <point x="47.5" y="-1"/>
      <point x="39" y="4"/>
      <point x="39" y="14" type="curve" smooth="yes"/>
      <point x="39" y="222" type="line"/>
      <point x="27.5" y="222" type="line" smooth="yes"/>
      <point x="18" y="222"/>
      <point x="13.5" y="227.5"/>
      <point x="13.5" y="240.5" type="curve" smooth="yes"/>
      <point x="13.5" y="247.5" type="line" smooth="yes"/>
      <point x="13.5" y="260.5"/>
      <point x="18" y="266"/>
      <point x="27.5" y="266" type="curve" smooth="yes"/>
      <point x="39" y="266" type="line"/>
      <point x="39" y="312" type="line" smooth="yes"/>
      <point x="39" y="322"/>
      <point x="47.5" y="327"/>
      <point x="67" y="327" type="curve" smooth="yes"/>
      <point x="83.5" y="327" type="line" smooth="yes"/>
      <point x="103" y="327"/>
      <point x="111.5" y="322"/>
      <point x="111.5" y="312" type="curve" smooth="yes"/>
      <point x="111.5" y="266" type="line"/>
      <point x="237" y="266" type="line"/>
      <point x="237" y="312" type="line" smooth="yes"/>
      <point x="237" y="322"/>
      <point x="245.5" y="327"/>
      <point x="265" y="327" type="curve" smooth="yes"/>
      <point x="281.5" y="327" type="line" smooth="yes"/>
      <point x="301" y="327"/>
      <point x="309.5" y="322"/>
      <point x="309.5" y="312" type="curve" smooth="yes"/>
      <point x="309.5" y="266" type="line"/>
    </contour>
    <contour>
      <point x="237" y="197" type="line"/>
      <point x="237" y="222" type="line"/>
      <point x="111.5" y="222" type="line"/>
      <point x="111.5" y="197" type="line"/>
    </contour>
  </outline>
</glyph>
<glyph name="Ibreve" format="1">
  <advance width="132"/>
  <unicode hex="012C"/>
  <outline>
    <contour>
      <point x="66" y="402" type="move" name="Anchor-1"/>
    </contour>
    <contour>
      <point x="66" y="0" type="move" name="Anchor-0"/>
    </contour>
    <contour>
      <point x="65.5" y="350.5" type="curve" smooth="yes"/>
      <point x="25" y="350.5"/>
      <point x="-3" y="376"/>
      <point x="-3" y="402.5" type="curve" smooth="yes"/>
      <point x="-3" y="411"/>
      <point x="3" y="415.5"/>
      <point x="13.5" y="415.5" type="curve" smooth="yes"/>
      <point x="21.5" y="415.5"/>
      <point x="24.5" y="412"/>
      <point x="29" y="407.5" type="curve" smooth="yes"/>
      <point x="35" y="401"/>
      <point x="42" y="393"/>
      <point x="65.5" y="393" type="curve" smooth="yes"/>
      <point x="91" y="393"/>
      <point x="97.5" y="401.5"/>
      <point x="103.5" y="408" type="curve" smooth="yes"/>
      <point x="107" y="412.5"/>
      <point x="110.5" y="415.5"/>
      <point x="118" y="415.5" type="curve" smooth="yes"/>
      <point x="128" y="415.5"/>
      <point x="134" y="411"/>
      <point x="134" y="402.5" type="curve" smooth="yes"/>
      <point x="134" y="376"/>
      <point x="106" y="350.5"/>
    </contour>
    <contour>
      <point x="57.5" y="-1.5" type="line" smooth="yes"/>
      <point x="37.5" y="-1.5"/>
      <point x="29.5" y="4"/>
      <point x="29.5" y="14" type="curve" smooth="yes"/>
      <point x="29.5" y="312" type="line" smooth="yes"/>
      <point x="29.5" y="322"/>
      <point x="37.5" y="327.5"/>
      <point x="57.5" y="327.5" type="curve" smooth="yes"/>
      <point x="73.5" y="327.5" type="line" smooth="yes"/>
      <point x="93" y="327.5"/>
      <point x="101.5" y="322"/>
      <point x="101.5" y="312" type="curve" smooth="yes"/>
      <point x="101.5" y="14" type="line" smooth="yes"/>
      <point x="101.5" y="4"/>
      <point x="93" y="-1.5"/>
      <point x="73.5" y="-1.5" type="curve" smooth="yes"/>
    </contour>
  </outline>
</glyph>
<glyph name="ibreve" format="1">
  <advance width="124"/>
  <unicode hex="012D"/>
  <outline>
    <contour>
      <point x="62" y="320" type="move" name="Anchor-1"/>
    </contour>
    <contour>
      <point x="61" y="0" type="move" name="Anchor-0"/>
    </contour>
    <contour>
      <point x="62" y="268" type="curve" smooth="yes"/>
      <point x="21.5" y="268"/>
      <point x="-6.5" y="293.5"/>
      <point x="-6.5" y="320" type="curve" smooth="yes"/>
      <point x="-6.5" y="328.5"/>
      <point x="-0.5" y="333"/>
      <point x="10" y="333" type="curve" smooth="yes"/>
      <point x="18" y="333"/>
      <point x="21" y="329.5"/>
      <point x="25.5" y="325" type="curve" smooth="yes"/>
      <point x="31.5" y="318.5"/>
      <point x="38.5" y="310.5"/>
      <point x="62" y="310.5" type="curve" smooth="yes"/>
      <point x="87.5" y="310.5"/>
      <point x="94" y="319"/>
      <point x="100" y="325.5" type="curve" smooth="yes"/>
      <point x="103.5" y="330"/>
      <point x="107" y="333"/>
      <point x="114.5" y="333" type="curve" smooth="yes"/>
      <point x="124.5" y="333"/>
      <point x="130.5" y="328.5"/>
      <point x="130.5" y="320" type="curve" smooth="yes"/>
      <point x="130.5" y="293.5"/>
      <point x="102.5" y="268"/>
    </contour>
    <contour>
      <point x="55.5" y="-1" type="line" smooth="yes"/>
      <point x="36" y="-1"/>
      <point x="27.5" y="4"/>
      <point x="27.5" y="14" type="curve" smooth="yes"/>
      <point x="27.5" y="229.5" type="line" smooth="yes"/>
      <point x="27.5" y="239.5"/>
      <point x="36" y="244.5"/>
      <point x="55.5" y="244.5" type="curve" smooth="yes"/>
      <point x="68.5" y="244.5" type="line" smooth="yes"/>
      <point x="88" y="244.5"/>
      <point x="96.5" y="239.5"/>
      <point x="96.5" y="229.5" type="curve" smooth="yes"/>
      <point x="96.5" y="14" type="line" smooth="yes"/>
      <point x="96.5" y="4"/>
      <point x="88" y="-1"/>
      <point x="68.5" y="-1" type="curve" smooth="yes"/>
    </contour>
  </outline>
</glyph>
<glyph name="Idotaccent" format="1">
  <advance width="132"/>
  <unicode hex="0130"/>
  <outline>
    <contour>
      <point x="66" y="326" type="move" name="Anchor-1"/>
    </contour>
    <contour>
      <point x="66" y="0" type="move" name="Anchor-0"/>
    </contour>
    <contour>
      <point x="65.5" y="352" type="curve" smooth="yes"/>
      <point x="46" y="352"/>
      <point x="37.5" y="357"/>
      <point x="37.5" y="367" type="curve" smooth="yes"/>
      <point x="37.5" y="394.5" type="line" smooth="yes"/>
      <point x="37.5" y="404.5"/>
      <point x="46" y="409.5"/>
      <point x="65.5" y="409.5" type="curve" smooth="yes"/>
      <point x="85" y="409.5"/>
      <point x="93.5" y="404.5"/>
      <point x="93.5" y="394.5" type="curve" smooth="yes"/>
      <point x="93.5" y="367" type="line" smooth="yes"/>
      <point x="93.5" y="357"/>
      <point x="85" y="352"/>
    </contour>
    <contour>
      <point x="57.5" y="-1.5" type="line" smooth="yes"/>
      <point x="37.5" y="-1.5"/>
      <point x="29.5" y="4"/>
      <point x="29.5" y="14" type="curve" smooth="yes"/>
      <point x="29.5" y="312" type="line" smooth="yes"/>
      <point x="29.5" y="322"/>
      <point x="37.5" y="327.5"/>
      <point x="57.5" y="327.5" type="curve" smooth="yes"/>
      <point x="73.5" y="327.5" type="line" smooth="yes"/>
      <point x="93" y="327.5"/>
      <point x="101.5" y="322"/>
      <point x="101.5" y="312" type="curve" smooth="yes"/>
      <point x="101.5" y="14" type="line" smooth="yes"/>
      <point x="101.5" y="4"/>
      <point x="93" y="-1.5"/>
      <point x="73.5" y="-1.5" type="curve" smooth="yes"/>
    </contour>
  </outline>
</glyph>
<glyph name="IJ" format="1">
  <advance width="319"/>
  <unicode hex="0132"/>
  <outline>
    <contour>
      <point x="253" y="326" type="move" name="Anchor-1"/>
    </contour>
    <contour>
      <point x="66" y="0" type="move" name="Anchor-0"/>
    </contour>
    <contour>
      <point x="57.5" y="-1.5" type="line" smooth="yes"/>
      <point x="37.5" y="-1.5"/>
      <point x="29.5" y="4"/>
      <point x="29.5" y="14" type="curve" smooth="yes"/>
      <point x="29.5" y="312" type="line" smooth="yes"/>
      <point x="29.5" y="322"/>
      <point x="37.5" y="327.5"/>
      <point x="57.5" y="327.5" type="curve" smooth="yes"/>
      <point x="73.5" y="327.5" type="line" smooth="yes"/>
      <point x="93" y="327.5"/>
      <point x="101.5" y="322"/>
      <point x="101.5" y="312" type="curve" smooth="yes"/>
      <point x="101.5" y="14" type="line" smooth="yes"/>
      <point x="101.5" y="4"/>
      <point x="93" y="-1.5"/>
      <point x="73.5" y="-1.5" type="curve" smooth="yes"/>
    </contour>
    <contour>
      <point x="189.5" y="-3.5" type="curve" smooth="yes"/>
      <point x="178" y="-3.5"/>
      <point x="131.5" y="-2.5"/>
      <point x="131.5" y="17.5" type="curve" smooth="yes"/>
      <point x="131.5" y="26"/>
      <point x="136" y="59.5"/>
      <point x="150.5" y="61" type="curve" smooth="yes"/>
      <point x="155.5" y="61"/>
      <point x="162" y="57.5"/>
      <point x="176.5" y="57.5" type="curve" smooth="yes"/>
      <point x="204.5" y="57.5"/>
      <point x="216" y="72"/>
      <point x="216" y="106" type="curve" smooth="yes"/>
      <point x="216" y="312" type="line" smooth="yes"/>
      <point x="216" y="322"/>
      <point x="224" y="327.5"/>
      <point x="244" y="327.5" type="curve" smooth="yes"/>
      <point x="260" y="327.5" type="line" smooth="yes"/>
      <point x="279.5" y="327.5"/>
      <point x="288" y="322"/>
      <point x="288" y="312" type="curve" smooth="yes"/>
      <point x="288" y="94" type="line" smooth="yes"/>
      <point x="288" y="35"/>
      <point x="258.5" y="-3.5"/>
    </contour>
  </outline>
</glyph>
<glyph name="Jcircumflex" format="1">
  <advance width="188"/>
  <unicode hex="0134"/>
  <outline>
    <contour>
      <point x="200" y="379" type="move" name="Anchor-1"/>
    </contour>
    <contour>
      <point x="0" y="0" type="move" name="Anchor-0"/>
    </contour>
    <contour>
      <point x="66.5" y="349" type="line" smooth="yes"/>
      <point x="60" y="349"/>
      <point x="57.5" y="350.5"/>
      <point x="57.5" y="353.5" type="curve" smooth="yes"/>
      <point x="57.5" y="355.5"/>
      <point x="58.5" y="358"/>
      <point x="60" y="360.5" type="curve" smooth="yes"/>
      <point x="90.5" y="408" type="line" smooth="yes"/>
      <point x="95.5" y="416.5"/>
      <point x="105.5" y="417"/>
      <point x="119" y="417" type="curve" smooth="yes"/>
      <point x="124" y="417" type="line" smooth="yes"/>
      <point x="137.5" y="417"/>
      <point x="147.5" y="416.5"/>
      <point x="152.5" y="408" type="curve" smooth="yes"/>
      <point x="182.5" y="360.5" type="line" smooth="yes"/>
      <point x="184.5" y="358"/>
      <point x="185.5" y="355.5"/>
      <point x="185.5" y="353.5" type="curve" smooth="yes"/>
      <point x="185.5" y="350.5"/>
      <point x="182" y="349"/>
      <point x="176" y="349" type="curve" smooth="yes"/>
      <point x="166" y="349" type="line" smooth="yes"/>
      <point x="152.5" y="349"/>
      <point x="140.5" y="351.5"/>
      <point x="134" y="360" type="curve" smooth="yes"/>
      <point x="121" y="379" type="line"/>
      <point x="108" y="360.5" type="line" smooth="yes"/>
      <point x="101" y="351"/>
      <point x="90.5" y="349"/>
      <point x="77" y="349" type="curve" smooth="yes"/>
    </contour>
    <contour>
      <point x="58" y="-3.5" type="curve" smooth="yes"/>
      <point x="46.5" y="-3.5"/>
      <point x="0" y="-2.5"/>
      <point x="0" y="17.5" type="curve" smooth="yes"/>
      <point x="0" y="26"/>
      <point x="4.5" y="59.5"/>
      <point x="19" y="61" type="curve" smooth="yes"/>
      <point x="24" y="61"/>
      <point x="30.5" y="57.5"/>
      <point x="45" y="57.5" type="curve" smooth="yes"/>
      <point x="73" y="57.5"/>
      <point x="84.5" y="72"/>
      <point x="84.5" y="106" type="curve" smooth="yes"/>
      <point x="84.5" y="312" type="line" smooth="yes"/>
      <point x="84.5" y="322"/>
      <point x="92.5" y="327.5"/>
      <point x="112.5" y="327.5" type="curve" smooth="yes"/>
      <point x="128.5" y="327.5" type="line" smooth="yes"/>
      <point x="148" y="327.5"/>
      <point x="156.5" y="322"/>
      <point x="156.5" y="312" type="curve" smooth="yes"/>
      <point x="156.5" y="94" type="line" smooth="yes"/>
      <point x="156.5" y="35"/>
      <point x="127" y="-3.5"/>
    </contour>
  </outline>
</glyph>
<glyph name="lacute" format="1">
  <advance width="139"/>
  <unicode hex="013A"/>
  <outline>
    <contour>
      <point x="64" y="336" type="move" name="Anchor-1"/>
    </contour>
    <contour>
      <point x="86" y="0" type="move" name="Anchor-0"/>
    </contour>
    <contour>
      <point x="45" y="360" type="curve" smooth="yes"/>
      <point x="34" y="360"/>
      <point x="30.5" y="362"/>
      <point x="30.5" y="367" type="curve" smooth="yes"/>
      <point x="30.5" y="372"/>
      <point x="39.5" y="383.5"/>
      <point x="61" y="421.5" type="curve" smooth="yes"/>
      <point x="66.5" y="431"/>
      <point x="82" y="434"/>
      <point x="100.5" y="434" type="curve" smooth="yes"/>
      <point x="119" y="434"/>
      <point x="128.5" y="432.5"/>
      <point x="128.5" y="427.5" type="curve" smooth="yes"/>
      <point x="128.5" y="422"/>
      <point x="125.5" y="421"/>
      <point x="80" y="371.5" type="curve" smooth="yes"/>
      <point x="75" y="366"/>
      <point x="67" y="360"/>
    </contour>
    <contour>
      <point x="97.5" y="-3.5" type="curve" smooth="yes"/>
      <point x="53.5" y="-3.5"/>
      <point x="29.5" y="20"/>
      <point x="29.5" y="72" type="curve" smooth="yes"/>
      <point x="29.5" y="336.5" type="line" smooth="yes"/>
      <point x="29.5" y="346"/>
      <point x="37.5" y="351.5"/>
      <point x="57.5" y="351.5" type="curve" smooth="yes"/>
      <point x="70.5" y="351.5" type="line" smooth="yes"/>
      <point x="90" y="351.5"/>
      <point x="98.5" y="346"/>
      <point x="98.5" y="336.5" type="curve" smooth="yes"/>
      <point x="98.5" y="71" type="line" smooth="yes"/>
      <point x="98.5" y="57"/>
      <point x="103" y="51"/>
      <point x="115" y="51" type="curve" smooth="yes"/>
      <point x="119.5" y="51"/>
      <point x="125" y="52.5"/>
      <point x="127.5" y="52.5" type="curve" smooth="yes"/>
      <point x="137" y="52.5"/>
      <point x="142" y="23"/>
      <point x="142" y="19" type="curve" smooth="yes"/>
      <point x="142" y="-2.5"/>
      <point x="112" y="-3.5"/>
    </contour>
  </outline>
</glyph>
<glyph name="Lcaron" format="1">
  <advance width="226"/>
  <unicode hex="013D"/>
  <outline>
    <contour>
      <point x="70" y="326" type="move" name="Anchor-1"/>
    </contour>
    <contour>
      <point x="113" y="0" type="move" name="Anchor-0"/>
    </contour>
    <contour>
      <point x="51" y="0" type="line" smooth="yes"/>
      <point x="37.5" y="0"/>
      <point x="32" y="5.5"/>
      <point x="32" y="18.5" type="curve" smooth="yes"/>
      <point x="32" y="312" type="line" smooth="yes"/>
      <point x="32" y="322"/>
      <point x="40.5" y="327"/>
      <point x="60" y="327" type="curve" smooth="yes"/>
      <point x="76" y="327" type="line" smooth="yes"/>
      <point x="95.5" y="327"/>
      <point x="104" y="322"/>
      <point x="104" y="312" type="curve" smooth="yes"/>
      <point x="104" y="61" type="line"/>
      <point x="208" y="61" type="line" smooth="yes"/>
      <point x="217.5" y="61"/>
      <point x="222" y="54"/>
      <point x="222" y="37.5" type="curve" smooth="yes"/>
      <point x="222" y="23.5" type="line" smooth="yes"/>
      <point x="222" y="7"/>
      <point x="217.5" y="0"/>
      <point x="208" y="0" type="curve" smooth="yes"/>
    </contour>
    <contour>
      <point x="167.5" y="238" type="curve" smooth="yes"/>
      <point x="159" y="238"/>
      <point x="146.5" y="241"/>
      <point x="146.5" y="248.5" type="curve" smooth="yes"/>
      <point x="146.5" y="272"/>
      <point x="148.5" y="289.5"/>
      <point x="148.5" y="305.5" type="curve" smooth="yes"/>
      <point x="148.5" y="318.5"/>
      <point x="156.5" y="326"/>
      <point x="176.5" y="326" type="curve" smooth="yes"/>
      <point x="185" y="326" type="line" smooth="yes"/>
      <point x="201.5" y="326"/>
      <point x="208.5" y="317.5"/>
      <point x="208.5" y="305.5" type="curve" smooth="yes"/>
      <point x="208.5" y="274.5"/>
      <point x="181" y="239"/>
    </contour>
  </outline>
</glyph>
<glyph name="Ncommaaccent" format="1">
  <advance width="335"/>
  <unicode hex="0145"/>
  <outline>
    <contour>
      <point x="168" y="326" type="move" name="Anchor-1"/>
    </contour>
    <contour>
      <point x="168" y="-95" type="move" name="Anchor-0"/>
    </contour>
    <contour>
      <point x="60" y="-1" type="line" smooth="yes"/>
      <point x="40.5" y="-1"/>
      <point x="32" y="4"/>
      <point x="32" y="14" type="curve" smooth="yes"/>
      <point x="32" y="312" type="line" smooth="yes"/>
      <point x="32" y="322"/>
      <point x="40.5" y="327"/>
      <point x="60" y="327" type="curve" smooth="yes"/>
      <point x="80" y="327" type="line" smooth="yes"/>
      <point x="93.5" y="327"/>
      <point x="104" y="325.5"/>
      <point x="111" y="314.5" type="curve" smooth="yes"/>
      <point x="221" y="145" type="line"/>
      <point x="233.5" y="126" type="line"/>
      <point x="233.5" y="312" type="line" smooth="yes"/>
      <point x="233.5" y="322"/>
      <point x="242" y="327"/>
      <point x="261.5" y="327" type="curve" smooth="yes"/>
      <point x="275" y="327" type="line" smooth="yes"/>
      <point x="294.5" y="327"/>
      <point x="303" y="322"/>
      <point x="303" y="312" type="curve" smooth="yes"/>
      <point x="303" y="14" type="line" smooth="yes"/>
      <point x="303" y="4"/>
      <point x="294.5" y="-1"/>
      <point x="275" y="-1" type="curve" smooth="yes"/>
      <point x="257" y="-1" type="line" smooth="yes"/>
      <point x="243.5" y="-1"/>
      <point x="233.5" y="1"/>
      <point x="226.5" y="11.5" type="curve" smooth="yes"/>
      <point x="111.5" y="188" type="line"/>
      <point x="101.5" y="202.5" type="line"/>
      <point x="101.5" y="14" type="line" smooth="yes"/>
      <point x="101.5" y="4"/>
      <point x="93" y="-1"/>
      <point x="73.5" y="-1" type="curve" smooth="yes"/>
    </contour>
    <contour>
      <point x="146.5" y="-112" type="curve" smooth="yes"/>
      <point x="138" y="-112"/>
      <point x="125.5" y="-109"/>
      <point x="125.5" y="-101.5" type="curve" smooth="yes"/>
      <point x="125.5" y="-93"/>
      <point x="137" y="-81.5"/>
      <point x="137" y="-44.5" type="curve" smooth="yes"/>
      <point x="137" y="-31.5"/>
      <point x="145" y="-24"/>
      <point x="164.5" y="-24" type="curve" smooth="yes"/>
      <point x="173.5" y="-24" type="line" smooth="yes"/>
      <point x="190" y="-24"/>
      <point x="197" y="-32.5"/>
      <point x="197" y="-44.5" type="curve" smooth="yes"/>
      <point x="197" y="-75.5"/>
      <point x="163" y="-112"/>
    </contour>
  </outline>
</glyph>
<glyph name="eng" format="1">
  <advance width="260"/>
  <unicode hex="014B"/>
  <outline>
    <contour>
      <point x="164" y="-99" type="curve" smooth="yes"/>
      <point x="127" y="-99"/>
      <point x="115.5" y="-92.5"/>
      <point x="115.5" y="-74.5" type="curve" smooth="yes"/>
      <point x="115.5" y="-64"/>
      <point x="122.5" y="-42.5"/>
      <point x="132.5" y="-42.5" type="curve" smooth="yes"/>
      <point x="135" y="-42.5"/>
      <point x="141" y="-44.5"/>
      <point x="146.5" y="-44.5" type="curve" smooth="yes"/>
      <point x="158.5" y="-44.5"/>
      <point x="163" y="-38"/>
      <point x="163" y="-24" type="curve" smooth="yes"/>
      <point x="163" y="161.5" type="line" smooth="yes"/>
      <point x="163" y="180"/>
      <point x="155.5" y="190.5"/>
      <point x="135" y="190.5" type="curve" smooth="yes"/>
      <point x="116" y="190.5"/>
      <point x="103.5" y="174.5"/>
      <point x="98" y="163.5" type="curve"/>
      <point x="98" y="14" type="line" smooth="yes"/>
      <point x="98" y="4"/>
      <point x="89.5" y="-1"/>
      <point x="70" y="-1" type="curve" smooth="yes"/>
      <point x="57" y="-1" type="line" smooth="yes"/>
      <point x="37.5" y="-1"/>
      <point x="29" y="4"/>
      <point x="29" y="14" type="curve" smooth="yes"/>
      <point x="29" y="161.5" type="line" smooth="yes"/>
      <point x="29" y="208.5"/>
      <point x="23.5" y="218"/>
      <point x="23.5" y="227.5" type="curve" smooth="yes"/>
      <point x="23.5" y="238.5"/>
      <point x="64" y="242.5"/>
      <point x="75.5" y="242.5" type="curve" smooth="yes"/>
      <point x="90.5" y="242.5"/>
      <point x="91.5" y="223.5"/>
      <point x="94" y="212" type="curve"/>
      <point x="107.5" y="229.5"/>
      <point x="133.5" y="247.5"/>
      <point x="163.5" y="247.5" type="curve" smooth="yes"/>
      <point x="210" y="247.5"/>
      <point x="232" y="223.5"/>
      <point x="232" y="172" type="curve" smooth="yes"/>
      <point x="232" y="-23.5" type="line" smooth="yes"/>
      <point x="232" y="-74"/>
      <point x="202.5" y="-99"/>
    </contour>
  </outline>
</glyph>
<glyph name="obreve" format="1">
  <advance width="265"/>
  <unicode hex="014F"/>
  <outline>
    <contour>
      <point x="133" y="320" type="move" name="Anchor-1"/>
    </contour>
    <contour>
      <point x="136" y="0" type="move" name="Anchor-0"/>
    </contour>
    <contour>
      <point x="133" y="268" type="curve" smooth="yes"/>
      <point x="92.5" y="268"/>
      <point x="64.5" y="293.5"/>
      <point x="64.5" y="320" type="curve" smooth="yes"/>
      <point x="64.5" y="328.5"/>
      <point x="70.5" y="333"/>
      <point x="81" y="333" type="curve" smooth="yes"/>
      <point x="89" y="333"/>
      <point x="92" y="329.5"/>
      <point x="96.5" y="325" type="curve" smooth="yes"/>
      <point x="102.5" y="318.5"/>
      <point x="109.5" y="310.5"/>
      <point x="133" y="310.5" type="curve" smooth="yes"/>
      <point x="158.5" y="310.5"/>
      <point x="165" y="319"/>
      <point x="171" y="325.5" type="curve" smooth="yes"/>
      <point x="174.5" y="330"/>
      <point x="178" y="333"/>
      <point x="185.5" y="333" type="curve" smooth="yes"/>
      <point x="195.5" y="333"/>
      <point x="201.5" y="328.5"/>
      <point x="201.5" y="320" type="curve" smooth="yes"/>
      <point x="201.5" y="293.5"/>
      <point x="173.5" y="268"/>
    </contour>
    <contour>
      <point x="133" y="-3.5" type="curve" smooth="yes"/>
      <point x="58.5" y="-3.5"/>
      <point x="19.5" y="41"/>
      <point x="19.5" y="122" type="curve" smooth="yes"/>
      <point x="19.5" y="203"/>
      <point x="58.5" y="247.5"/>
      <point x="133" y="247.5" type="curve" smooth="yes"/>
      <point x="207" y="247.5"/>
      <point x="245.5" y="203"/>
      <point x="245.5" y="122" type="curve" smooth="yes"/>
      <point x="245.5" y="41"/>
      <point x="207" y="-3.5"/>
    </contour>
    <contour>
      <point x="133" y="51" type="curve" smooth="yes"/>
      <point x="162.5" y="51"/>
      <point x="175.5" y="75.5"/>
      <point x="175.5" y="122" type="curve" smooth="yes"/>
      <point x="175.5" y="168.5"/>
      <point x="162.5" y="193"/>
      <point x="133" y="193" type="curve" smooth="yes"/>
      <point x="103" y="193"/>
      <point x="89.5" y="168.5"/>
      <point x="89.5" y="122" type="curve" smooth="yes"/>
      <point x="89.5" y="75.5"/>
      <point x="103" y="51"/>
    </contour>
  </outline>
</glyph>
<glyph name="OE" format="1">
  <advance width="476"/>
  <unicode hex="0152"/>
  <outline>
    <contour>
      <point x="238" y="326" type="move" name="Anchor-1"/>
    </contour>
    <contour>
      <point x="0" y="0" type="move" name="Anchor-0"/>
    </contour>
    <contour>
      <point x="436.5" y="61" type="line" smooth="yes"/>
      <point x="446.5" y="61"/>
      <point x="450.5" y="54"/>
      <point x="450.5" y="37.5" type="curve" smooth="yes"/>
      <point x="450.5" y="23.5" type="line" smooth="yes"/>
      <point x="450.5" y="7"/>
      <point x="446.5" y="0"/>
      <point x="436.5" y="0" type="curve" smooth="yes"/>
      <point x="265.5" y="0" type="line" smooth="yes"/>
      <point x="253" y="0"/>
      <point x="247.5" y="5"/>
      <point x="247" y="17.5" type="curve"/>
      <point x="224" y="3.5"/>
      <point x="197" y="-3.5"/>
      <point x="166" y="-3.5" type="curve" smooth="yes"/>
      <point x="72.5" y="-3.5"/>
      <point x="21" y="55.5"/>
      <point x="21" y="163" type="curve" smooth="yes"/>
      <point x="21" y="270.5"/>
      <point x="72.5" y="330"/>
      <point x="166" y="330" type="curve" smooth="yes"/>
      <point x="198" y="330"/>
      <point x="224" y="323"/>
      <point x="247" y="308.5" type="curve"/>
      <point x="247" y="320.5"/>
      <point x="252.5" y="326"/>
      <point x="265.5" y="326" type="curve" smooth="yes"/>
      <point x="436" y="326" type="line" smooth="yes"/>
      <point x="446" y="326"/>
      <point x="450" y="319"/>
      <point x="450" y="303" type="curve" smooth="yes"/>
      <point x="450" y="288.5" type="line" smooth="yes"/>
      <point x="450" y="272"/>
      <point x="446" y="265"/>
      <point x="436" y="265" type="curve" smooth="yes"/>
      <point x="318.5" y="265" type="line"/>
      <point x="318.5" y="197.5" type="line"/>
      <point x="423.5" y="197.5" type="line" smooth="yes"/>
      <point x="433.5" y="197.5"/>
      <point x="437.5" y="190.5"/>
      <point x="437.5" y="174.5" type="curve" smooth="yes"/>
      <point x="437.5" y="160" type="line" smooth="yes"/>
      <point x="437.5" y="143.5"/>
      <point x="433.5" y="136.5"/>
      <point x="423.5" y="136.5" type="curve" smooth="yes"/>
      <point x="318.5" y="136.5" type="line"/>
      <point x="318.5" y="61" type="line"/>
    </contour>
    <contour>
      <point x="170.5" y="57.5" type="curve" smooth="yes"/>
      <point x="220.5" y="57.5"/>
      <point x="246" y="94.5"/>
      <point x="246" y="163" type="curve" smooth="yes"/>
      <point x="246" y="231.5"/>
      <point x="220.5" y="268.5"/>
      <point x="170.5" y="268.5" type="curve" smooth="yes"/>
      <point x="120.5" y="268.5"/>
      <point x="94.5" y="231.5"/>
      <point x="94.5" y="163" type="curve" smooth="yes"/>
      <point x="94.5" y="94.5"/>
      <point x="120.5" y="57.5"/>
    </contour>
  </outline>
</glyph>
<glyph name="oe" format="1">
  <advance width="406"/>
  <unicode hex="0153"/>
  <outline>
    <contour>
      <point x="203" y="244" type="move" name="Anchor-1"/>
    </contour>
    <contour>
      <point x="282" y="0" type="move" name="Anchor-0"/>
    </contour>
    <contour>
      <point x="357" y="65" type="curve" smooth="yes"/>
      <point x="367" y="65"/>
      <point x="381" y="39"/>
      <point x="381" y="30" type="curve" smooth="yes"/>
      <point x="381" y="6.5"/>
      <point x="323.5" y="-3.5"/>
      <point x="297" y="-3.5" type="curve" smooth="yes"/>
      <point x="259" y="-3.5"/>
      <point x="230.5" y="6.5"/>
      <point x="210.5" y="24.5" type="curve"/>
      <point x="192" y="7"/>
      <point x="166" y="-3.5"/>
      <point x="132.5" y="-3.5" type="curve" smooth="yes"/>
      <point x="58" y="-3.5"/>
      <point x="19" y="41"/>
      <point x="19" y="122" type="curve" smooth="yes"/>
      <point x="19" y="203"/>
      <point x="58" y="247.5"/>
      <point x="132.5" y="247.5" type="curve" smooth="yes"/>
      <point x="165" y="247.5"/>
      <point x="190.5" y="237"/>
      <point x="209" y="220" type="curve"/>
      <point x="229" y="239"/>
      <point x="256.5" y="247.5"/>
      <point x="289" y="247.5" type="curve" smooth="yes"/>
      <point x="362" y="247.5"/>
      <point x="389.5" y="192"/>
      <point x="389.5" y="127" type="curve" smooth="yes"/>
      <point x="389.5" y="119.5"/>
      <point x="372" y="99.5"/>
      <point x="365.5" y="99.5" type="curve" smooth="yes"/>
      <point x="247" y="99.5" type="line"/>
      <point x="250" y="62.5"/>
      <point x="270" y="51"/>
      <point x="300.5" y="51" type="curve" smooth="yes"/>
      <point x="330" y="51"/>
      <point x="350.5" y="65"/>
    </contour>
    <contour>
      <point x="132.5" y="51" type="curve" smooth="yes"/>
      <point x="162" y="51"/>
      <point x="175" y="75.5"/>
      <point x="175" y="122" type="curve" smooth="yes"/>
      <point x="175" y="168.5"/>
      <point x="162" y="193"/>
      <point x="132.5" y="193" type="curve" smooth="yes"/>
      <point x="102.5" y="193"/>
      <point x="89" y="168.5"/>
      <point x="89" y="122" type="curve" smooth="yes"/>
      <point x="89" y="75.5"/>
      <point x="102.5" y="51"/>
    </contour>
    <contour>
      <point x="289" y="193" type="curve" smooth="yes"/>
      <point x="269" y="193"/>
      <point x="252.5" y="181.5"/>
      <point x="247" y="146" type="curve"/>
      <point x="322.5" y="146" type="line"/>
      <point x="322.5" y="173"/>
      <point x="312" y="193"/>
    </contour>
  </outline>
</glyph>
<glyph name="Racute" format="1">
  <advance width="285"/>
  <unicode hex="0154"/>
  <outline>
    <contour>
      <point x="142" y="326" type="move" name="Anchor-1"/>
    </contour>
    <contour>
      <point x="142" y="0" type="move" name="Anchor-0"/>
    </contour>
    <contour>
      <point x="123.5" y="350.5" type="curve" smooth="yes"/>
      <point x="112.5" y="350.5"/>
      <point x="109" y="352.5"/>
      <point x="109" y="357.5" type="curve" smooth="yes"/>
      <point x="109" y="362.5"/>
      <point x="118" y="374"/>
      <point x="139.5" y="412" type="curve" smooth="yes"/>
      <point x="145" y="421.5"/>
      <point x="160.5" y="424.5"/>
      <point x="179" y="424.5" type="curve" smooth="yes"/>
      <point x="197.5" y="424.5"/>
      <point x="207" y="423"/>
      <point x="207" y="418" type="curve" smooth="yes"/>
      <point x="207" y="412.5"/>
      <point x="204" y="411.5"/>
      <point x="158.5" y="362" type="curve" smooth="yes"/>
      <point x="153.5" y="356.5"/>
      <point x="145.5" y="350.5"/>
    </contour>
    <contour>
      <point x="60" y="-1" type="line" smooth="yes"/>
      <point x="40.5" y="-1"/>
      <point x="32" y="4"/>
      <point x="32" y="14" type="curve" smooth="yes"/>
      <point x="32" y="307.5" type="line" smooth="yes"/>
      <point x="32" y="320.5"/>
      <point x="37.5" y="326"/>
      <point x="51" y="326" type="curve" smooth="yes"/>
      <point x="141.5" y="326" type="line" smooth="yes"/>
      <point x="222.5" y="326"/>
      <point x="257.5" y="294.5"/>
      <point x="257.5" y="238.5" type="curve" smooth="yes"/>
      <point x="257.5" y="202.5"/>
      <point x="235.5" y="176.5"/>
      <point x="203" y="164.5" type="curve"/>
      <point x="203" y="162.5" type="line"/>
      <point x="215" y="158"/>
      <point x="229" y="140"/>
      <point x="236.5" y="120" type="curve" smooth="yes"/>
      <point x="277.5" y="17" type="line" smooth="yes"/>
      <point x="279" y="13.5"/>
      <point x="280" y="10.5"/>
      <point x="280" y="8.5" type="curve" smooth="yes"/>
      <point x="280" y="3"/>
      <point x="271" y="-1"/>
      <point x="252" y="-1" type="curve" smooth="yes"/>
      <point x="233" y="-1" type="line" smooth="yes"/>
      <point x="219.5" y="-1"/>
      <point x="209" y="1.5"/>
      <point x="206" y="9" type="curve" smooth="yes"/>
      <point x="169" y="99.5" type="line" smooth="yes"/>
      <point x="160" y="118.5"/>
      <point x="152.5" y="127.5"/>
      <point x="122" y="127.5" type="curve" smooth="yes"/>
      <point x="104" y="127.5" type="line"/>
      <point x="104" y="14" type="line" smooth="yes"/>
      <point x="104" y="4"/>
      <point x="95.5" y="-1"/>
      <point x="76" y="-1" type="curve" smooth="yes"/>
    </contour>
    <contour>
      <point x="104" y="189.5" type="line"/>
      <point x="148" y="189.5" type="line" smooth="yes"/>
      <point x="167.5" y="189.5"/>
      <point x="184" y="207.5"/>
      <point x="184" y="229.5" type="curve" smooth="yes"/>
      <point x="184" y="251"/>
      <point x="169" y="265"/>
      <point x="145" y="265" type="curve" smooth="yes"/>
      <point x="104" y="265" type="line"/>
    </contour>
  </outline>
</glyph>
<glyph name="racute" format="1">
  <advance width="171"/>
  <unicode hex="0155"/>
  <outline>
    <contour>
      <point x="62" y="244" type="move" name="Anchor-1"/>
    </contour>
    <contour>
      <point x="70" y="-1" type="move" name="Anchor-0"/>
    </contour>
    <contour>
      <point x="43.5" y="268" type="curve" smooth="yes"/>
      <point x="32.5" y="268"/>
      <point x="29" y="270"/>
      <point x="29" y="275" type="curve" smooth="yes"/>
      <point x="29" y="280"/>
      <point x="38" y="291.5"/>
      <point x="59.5" y="329.5" type="curve" smooth="yes"/>
      <point x="65" y="339"/>
      <point x="80.5" y="342"/>
      <point x="99" y="342" type="curve" smooth="yes"/>
      <point x="117.5" y="342"/>
      <point x="127" y="340.5"/>
      <point x="127" y="335.5" type="curve" smooth="yes"/>
      <point x="127" y="330"/>
      <point x="124" y="329"/>
      <point x="78.5" y="279.5" type="curve" smooth="yes"/>
      <point x="73.5" y="274"/>
      <point x="65.5" y="268"/>
    </contour>
    <contour>
      <point x="57" y="-1" type="line" smooth="yes"/>
      <point x="37.5" y="-1"/>
      <point x="29" y="4"/>
      <point x="29" y="14" type="curve" smooth="yes"/>
      <point x="29" y="161.5" type="line" smooth="yes"/>
      <point x="29" y="208.5"/>
      <point x="23.5" y="218"/>
      <point x="23.5" y="227.5" type="curve" smooth="yes"/>
      <point x="23.5" y="238.5"/>
      <point x="64" y="242.5"/>
      <point x="75.5" y="242.5" type="curve" smooth="yes"/>
      <point x="90.5" y="242.5"/>
      <point x="91.5" y="223.5"/>
      <point x="94" y="212" type="curve"/>
      <point x="104" y="229.5"/>
      <point x="118" y="247.5"/>
      <point x="145" y="247.5" type="curve" smooth="yes"/>
      <point x="168" y="247.5"/>
      <point x="171.5" y="231.5"/>
      <point x="171.5" y="222.5" type="curve" smooth="yes"/>
      <point x="171.5" y="213.5"/>
      <point x="166.5" y="183"/>
      <point x="157" y="183" type="curve" smooth="yes"/>
      <point x="150.5" y="183"/>
      <point x="144.5" y="187"/>
      <point x="135" y="187" type="curve" smooth="yes"/>
      <point x="116" y="187"/>
      <point x="103.5" y="173"/>
      <point x="98" y="163.5" type="curve"/>
      <point x="98" y="14" type="line" smooth="yes"/>
      <point x="98" y="4"/>
      <point x="89.5" y="-1"/>
      <point x="70" y="-1" type="curve" smooth="yes"/>
    </contour>
  </outline>
</glyph>
<glyph name="Rcommaaccent" format="1">
  <advance width="285"/>
  <unicode hex="0156"/>
  <outline>
    <contour>
      <point x="142" y="326" type="move" name="Anchor-1"/>
    </contour>
    <contour>
      <point x="142" y="-95" type="move" name="Anchor-0"/>
    </contour>
    <contour>
      <point x="60" y="-1" type="line" smooth="yes"/>
      <point x="40.5" y="-1"/>
      <point x="32" y="4"/>
      <point x="32" y="14" type="curve" smooth="yes"/>
      <point x="32" y="307.5" type="line" smooth="yes"/>
      <point x="32" y="320.5"/>
      <point x="37.5" y="326"/>
      <point x="51" y="326" type="curve" smooth="yes"/>
      <point x="141.5" y="326" type="line" smooth="yes"/>
      <point x="222.5" y="326"/>
      <point x="257.5" y="294.5"/>
      <point x="257.5" y="238.5" type="curve" smooth="yes"/>
      <point x="257.5" y="202.5"/>
      <point x="235.5" y="176.5"/>
      <point x="203" y="164.5" type="curve"/>
      <point x="203" y="162.5" type="line"/>
      <point x="215" y="158"/>
      <point x="229" y="140"/>
      <point x="236.5" y="120" type="curve" smooth="yes"/>
      <point x="277.5" y="17" type="line" smooth="yes"/>
      <point x="279" y="13.5"/>
      <point x="280" y="10.5"/>
      <point x="280" y="8.5" type="curve" smooth="yes"/>
      <point x="280" y="3"/>
      <point x="271" y="-1"/>
      <point x="252" y="-1" type="curve" smooth="yes"/>
      <point x="233" y="-1" type="line" smooth="yes"/>
      <point x="219.5" y="-1"/>
      <point x="209" y="1.5"/>
      <point x="206" y="9" type="curve" smooth="yes"/>
      <point x="169" y="99.5" type="line" smooth="yes"/>
      <point x="160" y="118.5"/>
      <point x="152.5" y="127.5"/>
      <point x="122" y="127.5" type="curve" smooth="yes"/>
      <point x="104" y="127.5" type="line"/>
      <point x="104" y="14" type="line" smooth="yes"/>
      <point x="104" y="4"/>
      <point x="95.5" y="-1"/>
      <point x="76" y="-1" type="curve" smooth="yes"/>
    </contour>
    <contour>
      <point x="104" y="189.5" type="line"/>
      <point x="148" y="189.5" type="line" smooth="yes"/>
      <point x="167.5" y="189.5"/>
      <point x="184" y="207.5"/>
      <point x="184" y="229.5" type="curve" smooth="yes"/>
      <point x="184" y="251"/>
      <point x="169" y="265"/>
      <point x="145" y="265" type="curve" smooth="yes"/>
      <point x="104" y="265" type="line"/>
    </contour>
    <contour>
      <point x="120.5" y="-112" type="curve" smooth="yes"/>
      <point x="112" y="-112"/>
      <point x="99.5" y="-109"/>
      <point x="99.5" y="-101.5" type="curve" smooth="yes"/>
      <point x="99.5" y="-93"/>
      <point x="111" y="-81.5"/>
      <point x="111" y="-44.5" type="curve" smooth="yes"/>
      <point x="111" y="-31.5"/>
      <point x="119" y="-24"/>
      <point x="138.5" y="-24" type="curve" smooth="yes"/>
      <point x="147.5" y="-24" type="line" smooth="yes"/>
      <point x="164" y="-24"/>
      <point x="171" y="-32.5"/>
      <point x="171" y="-44.5" type="curve" smooth="yes"/>
      <point x="171" y="-75.5"/>
      <point x="137" y="-112"/>
    </contour>
  </outline>
</glyph>
<glyph name="rcommaaccent" format="1">
  <advance width="171"/>
  <unicode hex="0157"/>
  <outline>
    <contour>
      <point x="62" y="244" type="move" name="Anchor-1"/>
    </contour>
    <contour>
      <point x="70" y="-96" type="move" name="Anchor-0"/>
    </contour>
    <contour>
      <point x="57" y="-1" type="line" smooth="yes"/>
      <point x="37.5" y="-1"/>
      <point x="29" y="4"/>
      <point x="29" y="14" type="curve" smooth="yes"/>
      <point x="29" y="161.5" type="line" smooth="yes"/>
      <point x="29" y="208.5"/>
      <point x="23.5" y="218"/>
      <point x="23.5" y="227.5" type="curve" smooth="yes"/>
      <point x="23.5" y="238.5"/>
      <point x="64" y="242.5"/>
      <point x="75.5" y="242.5" type="curve" smooth="yes"/>
      <point x="90.5" y="242.5"/>
      <point x="91.5" y="223.5"/>
      <point x="94" y="212" type="curve"/>
      <point x="104" y="229.5"/>
      <point x="118" y="247.5"/>
      <point x="145" y="247.5" type="curve" smooth="yes"/>
      <point x="168" y="247.5"/>
      <point x="171.5" y="231.5"/>
      <point x="171.5" y="222.5" type="curve" smooth="yes"/>
      <point x="171.5" y="213.5"/>
      <point x="166.5" y="183"/>
      <point x="157" y="183" type="curve" smooth="yes"/>
      <point x="150.5" y="183"/>
      <point x="144.5" y="187"/>
      <point x="135" y="187" type="curve" smooth="yes"/>
      <point x="116" y="187"/>
      <point x="103.5" y="173"/>
      <point x="98" y="163.5" type="curve"/>
      <point x="98" y="14" type="line" smooth="yes"/>
      <point x="98" y="4"/>
      <point x="89.5" y="-1"/>
      <point x="70" y="-1" type="curve" smooth="yes"/>
    </contour>
    <contour>
      <point x="48.5" y="-113" type="curve" smooth="yes"/>
      <point x="40" y="-113"/>
      <point x="27.5" y="-110"/>
      <point x="27.5" y="-102.5" type="curve" smooth="yes"/>
      <point x="27.5" y="-94"/>
      <point x="39" y="-82.5"/>
      <point x="39" y="-45.5" type="curve" smooth="yes"/>
      <point x="39" y="-32.5"/>
      <point x="47" y="-25"/>
      <point x="66.5" y="-25" type="curve" smooth="yes"/>
      <point x="75.5" y="-25" type="line" smooth="yes"/>
      <point x="92" y="-25"/>
      <point x="99" y="-33.5"/>
      <point x="99" y="-45.5" type="curve" smooth="yes"/>
      <point x="99" y="-76.5"/>
      <point x="65" y="-113"/>
    </contour>
  </outline>
</glyph>
<glyph name="Rcaron" format="1">
  <advance width="285"/>
  <unicode hex="0158"/>
  <outline>
    <contour>
      <point x="142" y="326" type="move" name="Anchor-1"/>
    </contour>
    <contour>
      <point x="142" y="0" type="move" name="Anchor-0"/>
    </contour>
    <contour>
      <point x="139.5" y="349" type="line" smooth="yes"/>
      <point x="126" y="349"/>
      <point x="116" y="349.5"/>
      <point x="111" y="358" type="curve" smooth="yes"/>
      <point x="80.5" y="405.5" type="line" smooth="yes"/>
      <point x="79" y="408"/>
      <point x="78" y="410.5"/>
      <point x="78" y="412.5" type="curve" smooth="yes"/>
      <point x="78" y="415.5"/>
      <point x="80.5" y="417"/>
      <point x="87" y="417" type="curve" smooth="yes"/>
      <point x="97.5" y="417" type="line" smooth="yes"/>
      <point x="111" y="417"/>
      <point x="121.5" y="415"/>
      <point x="128.5" y="405.5" type="curve" smooth="yes"/>
      <point x="141.5" y="387.5" type="line"/>
      <point x="154.5" y="406" type="line" smooth="yes"/>
      <point x="161" y="415"/>
      <point x="173" y="417"/>
      <point x="186.5" y="417" type="curve" smooth="yes"/>
      <point x="196.5" y="417" type="line" smooth="yes"/>
      <point x="202.5" y="417"/>
      <point x="206" y="415.5"/>
      <point x="206" y="412.5" type="curve" smooth="yes"/>
      <point x="206" y="410.5"/>
      <point x="205" y="408"/>
      <point x="203" y="405.5" type="curve" smooth="yes"/>
      <point x="173" y="358" type="line" smooth="yes"/>
      <point x="168" y="349.5"/>
      <point x="158" y="349"/>
      <point x="144.5" y="349" type="curve" smooth="yes"/>
    </contour>
    <contour>
      <point x="60" y="-1" type="line" smooth="yes"/>
      <point x="40.5" y="-1"/>
      <point x="32" y="4"/>
      <point x="32" y="14" type="curve" smooth="yes"/>
      <point x="32" y="307.5" type="line" smooth="yes"/>
      <point x="32" y="320.5"/>
      <point x="37.5" y="326"/>
      <point x="51" y="326" type="curve" smooth="yes"/>
      <point x="141.5" y="326" type="line" smooth="yes"/>
      <point x="222.5" y="326"/>
      <point x="257.5" y="294.5"/>
      <point x="257.5" y="238.5" type="curve" smooth="yes"/>
      <point x="257.5" y="202.5"/>
      <point x="235.5" y="176.5"/>
      <point x="203" y="164.5" type="curve"/>
      <point x="203" y="162.5" type="line"/>
      <point x="215" y="158"/>
      <point x="229" y="140"/>
      <point x="236.5" y="120" type="curve" smooth="yes"/>
      <point x="277.5" y="17" type="line" smooth="yes"/>
      <point x="279" y="13.5"/>
      <point x="280" y="10.5"/>
      <point x="280" y="8.5" type="curve" smooth="yes"/>
      <point x="280" y="3"/>
      <point x="271" y="-1"/>
      <point x="252" y="-1" type="curve" smooth="yes"/>
      <point x="233" y="-1" type="line" smooth="yes"/>
      <point x="219.5" y="-1"/>
      <point x="209" y="1.5"/>
      <point x="206" y="9" type="curve" smooth="yes"/>
      <point x="169" y="99.5" type="line" smooth="yes"/>
      <point x="160" y="118.5"/>
      <point x="152.5" y="127.5"/>
      <point x="122" y="127.5" type="curve" smooth="yes"/>
      <point x="104" y="127.5" type="line"/>
      <point x="104" y="14" type="line" smooth="yes"/>
      <point x="104" y="4"/>
      <point x="95.5" y="-1"/>
      <point x="76" y="-1" type="curve" smooth="yes"/>
    </contour>
    <contour>
      <point x="104" y="189.5" type="line"/>
      <point x="148" y="189.5" type="line" smooth="yes"/>
      <point x="167.5" y="189.5"/>
      <point x="184" y="207.5"/>
      <point x="184" y="229.5" type="curve" smooth="yes"/>
      <point x="184" y="251"/>
      <point x="169" y="265"/>
      <point x="145" y="265" type="curve" smooth="yes"/>
      <point x="104" y="265" type="line"/>
    </contour>
  </outline>
</glyph>
<glyph name="Sacute" format="1">
  <advance width="233"/>
  <unicode hex="015A"/>
  <outline>
    <contour>
      <point x="117" y="326" type="move" name="Anchor-1"/>
    </contour>
    <contour>
      <point x="117" y="0" type="move" name="Anchor-0"/>
    </contour>
    <contour>
      <point x="98" y="350.5" type="curve" smooth="yes"/>
      <point x="87" y="350.5"/>
      <point x="83.5" y="352.5"/>
      <point x="83.5" y="357.5" type="curve" smooth="yes"/>
      <point x="83.5" y="362.5"/>
      <point x="92.5" y="374"/>
      <point x="114" y="412" type="curve" smooth="yes"/>
      <point x="119.5" y="421.5"/>
      <point x="135" y="424.5"/>
      <point x="153.5" y="424.5" type="curve" smooth="yes"/>
      <point x="172" y="424.5"/>
      <point x="181.5" y="423"/>
      <point x="181.5" y="418" type="curve" smooth="yes"/>
      <point x="181.5" y="412.5"/>
      <point x="178.5" y="411.5"/>
      <point x="133" y="362" type="curve" smooth="yes"/>
      <point x="128" y="356.5"/>
      <point x="120" y="350.5"/>
    </contour>
    <contour>
      <point x="120" y="-3.5" type="curve" smooth="yes"/>
      <point x="49" y="-3.5"/>
      <point x="10.5" y="21.5"/>
      <point x="10.5" y="37.5" type="curve" smooth="yes"/>
      <point x="10.5" y="51.5"/>
      <point x="29.5" y="79"/>
      <point x="39" y="79" type="curve" smooth="yes"/>
      <point x="47.5" y="79"/>
      <point x="70.5" y="57.5"/>
      <point x="107.5" y="57.5" type="curve" smooth="yes"/>
      <point x="127.5" y="57.5"/>
      <point x="151.5" y="63.5"/>
      <point x="151.5" y="90" type="curve" smooth="yes"/>
      <point x="151.5" y="118"/>
      <point x="114.5" y="126"/>
      <point x="79.5" y="142" type="curve" smooth="yes"/>
      <point x="47.5" y="157.5"/>
      <point x="17" y="180"/>
      <point x="17" y="236" type="curve" smooth="yes"/>
      <point x="17" y="303"/>
      <point x="72.5" y="330"/>
      <point x="127" y="330" type="curve" smooth="yes"/>
      <point x="176.5" y="330"/>
      <point x="211" y="312.5"/>
      <point x="211" y="297.5" type="curve" smooth="yes"/>
      <point x="211" y="284.5"/>
      <point x="196.5" y="257"/>
      <point x="185.5" y="257" type="curve" smooth="yes"/>
      <point x="179.5" y="257"/>
      <point x="165" y="268.5"/>
      <point x="133.5" y="268.5" type="curve" smooth="yes"/>
      <point x="97.5" y="268.5"/>
      <point x="90.5" y="253"/>
      <point x="90.5" y="242.5" type="curve" smooth="yes"/>
      <point x="90.5" y="216.5"/>
      <point x="113" y="207.5"/>
      <point x="140.5" y="196.5" type="curve" smooth="yes"/>
      <point x="178.5" y="181"/>
      <point x="225" y="161.5"/>
      <point x="225" y="98.5" type="curve" smooth="yes"/>
      <point x="225" y="22.5"/>
      <point x="170.5" y="-3.5"/>
    </contour>
  </outline>
</glyph>
<glyph name="Scedilla" format="1">
  <advance width="233"/>
  <unicode hex="015E"/>
  <outline>
    <contour>
      <point x="117" y="326" type="move" name="Anchor-1"/>
    </contour>
    <contour>
      <point x="117" y="0" type="move" name="Anchor-0"/>
    </contour>
    <contour>
      <point x="225" y="98.5" type="curve" smooth="yes"/>
      <point x="225" y="28"/>
      <point x="178" y="0.5"/>
      <point x="131" y="-3" type="curve"/>
      <point x="127.5" y="-17" type="line"/>
      <point x="144.5" y="-19"/>
      <point x="163.5" y="-28.5"/>
      <point x="163.5" y="-52" type="curve" smooth="yes"/>
      <point x="163.5" y="-84"/>
      <point x="145" y="-99"/>
      <point x="108" y="-99" type="curve" smooth="yes"/>
      <point x="82" y="-99"/>
      <point x="47" y="-90.5"/>
      <point x="47" y="-75.5" type="curve" smooth="yes"/>
      <point x="47" y="-59.5"/>
      <point x="58.5" y="-55"/>
      <point x="62" y="-55" type="curve" smooth="yes"/>
      <point x="72.5" y="-55"/>
      <point x="85" y="-65"/>
      <point x="104.5" y="-65" type="curve" smooth="yes"/>
      <point x="112.5" y="-65"/>
      <point x="115.5" y="-62"/>
      <point x="115.5" y="-57" type="curve" smooth="yes"/>
      <point x="115.5" y="-45"/>
      <point x="91" y="-45.5"/>
      <point x="91" y="-34.5" type="curve" smooth="yes"/>
      <point x="91" y="-32.5"/>
      <point x="91.5" y="-30.5"/>
      <point x="100" y="-3" type="curve"/>
      <point x="42" y="1.5"/>
      <point x="10.5" y="23"/>
      <point x="10.5" y="37.5" type="curve" smooth="yes"/>
      <point x="10.5" y="51.5"/>
      <point x="29.5" y="79"/>
      <point x="39" y="79" type="curve" smooth="yes"/>
      <point x="47.5" y="79"/>
      <point x="70.5" y="57.5"/>
      <point x="107.5" y="57.5" type="curve" smooth="yes"/>
      <point x="127.5" y="57.5"/>
      <point x="151.5" y="63.5"/>
      <point x="151.5" y="90" type="curve" smooth="yes"/>
      <point x="151.5" y="118"/>
      <point x="114.5" y="126"/>
      <point x="79.5" y="142" type="curve" smooth="yes"/>
      <point x="47.5" y="157.5"/>
      <point x="17" y="180"/>
      <point x="17" y="236" type="curve" smooth="yes"/>
      <point x="17" y="303"/>
      <point x="72.5" y="330"/>
      <point x="127" y="330" type="curve" smooth="yes"/>
      <point x="176.5" y="330"/>
      <point x="211" y="312.5"/>
      <point x="211" y="297.5" type="curve" smooth="yes"/>
      <point x="211" y="284.5"/>
      <point x="196.5" y="257"/>
      <point x="185.5" y="257" type="curve" smooth="yes"/>
      <point x="179.5" y="257"/>
      <point x="165" y="268.5"/>
      <point x="133.5" y="268.5" type="curve" smooth="yes"/>
      <point x="97.5" y="268.5"/>
      <point x="90.5" y="253"/>
      <point x="90.5" y="242.5" type="curve" smooth="yes"/>
      <point x="90.5" y="216.5"/>
      <point x="113" y="207.5"/>
      <point x="140.5" y="196.5" type="curve" smooth="yes"/>
      <point x="178.5" y="181"/>
      <point x="225" y="161.5"/>
    </contour>
  </outline>
</glyph>
<glyph name="uni0163" format="1">
  <advance width="160"/>
  <unicode hex="0163"/>
  <outline>
    <contour>
      <point x="0" y="0" type="move" name="Anchor-1"/>
    </contour>
    <contour>
      <point x="94" y="0" type="move" name="Anchor-0"/>
    </contour>
    <contour>
      <point x="148.5" y="19" type="curve" smooth="yes"/>
      <point x="148.5" y="-0.5"/>
      <point x="123.5" y="-3"/>
      <point x="108" y="-3.5" type="curve"/>
      <point x="104.5" y="-17" type="line"/>
      <point x="121.5" y="-19"/>
      <point x="140.5" y="-28.5"/>
      <point x="140.5" y="-52" type="curve" smooth="yes"/>
      <point x="140.5" y="-84"/>
      <point x="122" y="-99"/>
      <point x="85" y="-99" type="curve" smooth="yes"/>
      <point x="59" y="-99"/>
      <point x="24" y="-90.5"/>
      <point x="24" y="-75.5" type="curve" smooth="yes"/>
      <point x="24" y="-59.5"/>
      <point x="35.5" y="-55"/>
      <point x="39" y="-55" type="curve" smooth="yes"/>
      <point x="49.5" y="-55"/>
      <point x="62" y="-65"/>
      <point x="81.5" y="-65" type="curve" smooth="yes"/>
      <point x="89.5" y="-65"/>
      <point x="92.5" y="-62"/>
      <point x="92.5" y="-57" type="curve" smooth="yes"/>
      <point x="92.5" y="-45"/>
      <point x="68" y="-45.5"/>
      <point x="68" y="-34.5" type="curve" smooth="yes"/>
      <point x="68" y="-32.5"/>
      <point x="68.5" y="-30"/>
      <point x="78" y="0" type="curve"/>
      <point x="50.5" y="8"/>
      <point x="36" y="31.5"/>
      <point x="36" y="72" type="curve" smooth="yes"/>
      <point x="36" y="189" type="line"/>
      <point x="28.5" y="189" type="line" smooth="yes"/>
      <point x="18.5" y="189"/>
      <point x="14.5" y="196"/>
      <point x="14.5" y="212.5" type="curve" smooth="yes"/>
      <point x="14.5" y="220.5" type="line" smooth="yes"/>
      <point x="14.5" y="236.5"/>
      <point x="18.5" y="243.5"/>
      <point x="28.5" y="243.5" type="curve" smooth="yes"/>
      <point x="36" y="243.5" type="line"/>
      <point x="42" y="288" type="line" smooth="yes"/>
      <point x="43.5" y="298"/>
      <point x="51.5" y="303"/>
      <point x="67" y="303" type="curve" smooth="yes"/>
      <point x="81.5" y="303" type="line" smooth="yes"/>
      <point x="98" y="303"/>
      <point x="105" y="298"/>
      <point x="105" y="288" type="curve" smooth="yes"/>
      <point x="105" y="243.5" type="line"/>
      <point x="127.5" y="243.5" type="line" smooth="yes"/>
      <point x="137.5" y="243.5"/>
      <point x="141.5" y="236.5"/>
      <point x="141.5" y="220.5" type="curve" smooth="yes"/>
      <point x="141.5" y="212.5" type="line" smooth="yes"/>
      <point x="141.5" y="196"/>
      <point x="137.5" y="189"/>
      <point x="127.5" y="189" type="curve" smooth="yes"/>
      <point x="105" y="189" type="line"/>
      <point x="105" y="71" type="line" smooth="yes"/>
      <point x="105" y="57"/>
      <point x="109.5" y="51"/>
      <point x="121.5" y="51" type="curve" smooth="yes"/>
      <point x="126" y="51"/>
      <point x="131.5" y="52.5"/>
      <point x="134" y="52.5" type="curve" smooth="yes"/>
      <point x="143.5" y="52.5"/>
      <point x="148.5" y="23"/>
    </contour>
  </outline>
</glyph>
<glyph name="Umacron" format="1">
  <advance width="332"/>
  <unicode hex="016A"/>
  <outline>
    <contour>
      <point x="166" y="326" type="move" name="Anchor-1"/>
    </contour>
    <contour>
      <point x="166" y="0" type="move" name="Anchor-0"/>
    </contour>
    <contour>
      <point x="116" y="360.5" type="line" smooth="yes"/>
      <point x="106" y="360.5"/>
      <point x="102" y="366.5"/>
      <point x="102" y="379.5" type="curve" smooth="yes"/>
      <point x="102" y="386.5" type="line" smooth="yes"/>
      <point x="102" y="399.5"/>
      <point x="106" y="405"/>
      <point x="116" y="405" type="curve" smooth="yes"/>
      <point x="216" y="405" type="line" smooth="yes"/>
      <point x="225.5" y="405"/>
      <point x="230" y="399.5"/>
      <point x="230" y="386.5" type="curve" smooth="yes"/>
      <point x="230" y="379.5" type="line" smooth="yes"/>
      <point x="230" y="366.5"/>
      <point x="225.5" y="360.5"/>
      <point x="216" y="360.5" type="curve" smooth="yes"/>
    </contour>
    <contour>
      <point x="166" y="-3.5" type="curve" smooth="yes"/>
      <point x="80.5" y="-3.5"/>
      <point x="31" y="37.5"/>
      <point x="31" y="109" type="curve" smooth="yes"/>
      <point x="31" y="312" type="line" smooth="yes"/>
      <point x="31" y="322"/>
      <point x="39" y="327"/>
      <point x="58.5" y="327" type="curve" smooth="yes"/>
      <point x="74.5" y="327" type="line" smooth="yes"/>
      <point x="94" y="327"/>
      <point x="102.5" y="322"/>
      <point x="102.5" y="312" type="curve" smooth="yes"/>
      <point x="102.5" y="113.5" type="line" smooth="yes"/>
      <point x="102.5" y="81"/>
      <point x="128" y="57.5"/>
      <point x="166" y="57.5" type="curve" smooth="yes"/>
      <point x="203.5" y="57.5"/>
      <point x="229.5" y="81"/>
      <point x="229.5" y="113.5" type="curve" smooth="yes"/>
      <point x="229.5" y="312" type="line" smooth="yes"/>
      <point x="229.5" y="322"/>
      <point x="238" y="327"/>
      <point x="257.5" y="327" type="curve" smooth="yes"/>
      <point x="273" y="327" type="line" smooth="yes"/>
      <point x="292.5" y="327"/>
      <point x="301" y="322"/>
      <point x="301" y="312" type="curve" smooth="yes"/>
      <point x="301" y="109" type="line" smooth="yes"/>
      <point x="301" y="37.5"/>
      <point x="251" y="-3.5"/>
    </contour>
  </outline>
</glyph>
<glyph name="Uhungarumlaut" format="1">
  <advance width="332"/>
  <unicode hex="0170"/>
  <outline>
    <contour>
      <point x="166" y="326" type="move" name="Anchor-1"/>
    </contour>
    <contour>
      <point x="166" y="0" type="move" name="Anchor-0"/>
    </contour>
    <contour>
      <point x="108.5" y="350.5" type="curve" smooth="yes"/>
      <point x="97.5" y="350.5"/>
      <point x="94.5" y="352.5"/>
      <point x="94.5" y="357.5" type="curve" smooth="yes"/>
      <point x="94.5" y="362.5"/>
      <point x="103" y="374"/>
      <point x="124.5" y="412" type="curve" smooth="yes"/>
      <point x="130" y="421.5"/>
      <point x="145.5" y="424.5"/>
      <point x="164" y="424.5" type="curve" smooth="yes"/>
      <point x="183" y="424.5"/>
      <point x="192" y="423"/>
      <point x="192" y="418" type="curve" smooth="yes"/>
      <point x="192" y="412.5"/>
      <point x="189" y="411.5"/>
      <point x="143.5" y="362" type="curve" smooth="yes"/>
      <point x="138.5" y="356.5"/>
      <point x="130.5" y="350.5"/>
    </contour>
    <contour>
      <point x="194" y="350.5" type="curve" smooth="yes"/>
      <point x="183" y="350.5"/>
      <point x="179.5" y="352.5"/>
      <point x="179.5" y="357.5" type="curve" smooth="yes"/>
      <point x="179.5" y="362.5"/>
      <point x="188.5" y="374"/>
      <point x="210" y="412" type="curve" smooth="yes"/>
      <point x="215.5" y="421.5"/>
      <point x="231" y="424.5"/>
      <point x="249.5" y="424.5" type="curve" smooth="yes"/>
      <point x="268" y="424.5"/>
      <point x="277.5" y="423"/>
      <point x="277.5" y="418" type="curve" smooth="yes"/>
      <point x="277.5" y="412.5"/>
      <point x="274" y="411.5"/>
      <point x="229" y="362" type="curve" smooth="yes"/>
      <point x="224" y="356.5"/>
      <point x="216" y="350.5"/>
    </contour>
    <contour>
      <point x="166" y="-3.5" type="curve" smooth="yes"/>
      <point x="80.5" y="-3.5"/>
      <point x="31" y="37.5"/>
      <point x="31" y="109" type="curve" smooth="yes"/>
      <point x="31" y="312" type="line" smooth="yes"/>
      <point x="31" y="322"/>
      <point x="39" y="327"/>
      <point x="58.5" y="327" type="curve" smooth="yes"/>
      <point x="74.5" y="327" type="line" smooth="yes"/>
      <point x="94" y="327"/>
      <point x="102.5" y="322"/>
      <point x="102.5" y="312" type="curve" smooth="yes"/>
      <point x="102.5" y="113.5" type="line" smooth="yes"/>
      <point x="102.5" y="81"/>
      <point x="128" y="57.5"/>
      <point x="166" y="57.5" type="curve" smooth="yes"/>
      <point x="203.5" y="57.5"/>
      <point x="229.5" y="81"/>
      <point x="229.5" y="113.5" type="curve" smooth="yes"/>
      <point x="229.5" y="312" type="line" smooth="yes"/>
      <point x="229.5" y="322"/>
      <point x="238" y="327"/>
      <point x="257.5" y="327" type="curve" smooth="yes"/>
      <point x="273" y="327" type="line" smooth="yes"/>
      <point x="292.5" y="327"/>
      <point x="301" y="322"/>
      <point x="301" y="312" type="curve" smooth="yes"/>
      <point x="301" y="109" type="line" smooth="yes"/>
      <point x="301" y="37.5"/>
      <point x="251" y="-3.5"/>
    </contour>
  </outline>
</glyph>
<glyph name="uogonek" format="1">
  <advance width="260"/>
  <unicode hex="0173"/>
  <outline>
    <contour>
      <point x="130" y="244" type="move" name="Anchor-1"/>
    </contour>
    <contour>
      <point x="117" y="0" type="move" name="Anchor-0"/>
    </contour>
    <contour>
      <point x="258" y="-44.5" type="curve" smooth="yes"/>
      <point x="264.5" y="-44.5"/>
      <point x="268.5" y="-48.5"/>
      <point x="268.5" y="-57.5" type="curve" smooth="yes"/>
      <point x="268.5" y="-77"/>
      <point x="248" y="-81"/>
      <point x="230" y="-81" type="curve" smooth="yes"/>
      <point x="180.5" y="-81"/>
      <point x="175" y="-47"/>
      <point x="175" y="-33" type="curve" smooth="yes"/>
      <point x="175" y="-26.5"/>
      <point x="176.5" y="-11"/>
      <point x="183" y="-0.5" type="curve"/>
      <point x="169" y="0.5"/>
      <point x="168" y="19.5"/>
      <point x="165.5" y="31.5" type="curve"/>
      <point x="152" y="14"/>
      <point x="126.5" y="-3.5"/>
      <point x="96" y="-3.5" type="curve" smooth="yes"/>
      <point x="49.5" y="-3.5"/>
      <point x="27.5" y="20"/>
      <point x="27.5" y="72" type="curve" smooth="yes"/>
      <point x="27.5" y="229.5" type="line" smooth="yes"/>
      <point x="27.5" y="239.5"/>
      <point x="36" y="244.5"/>
      <point x="55.5" y="244.5" type="curve" smooth="yes"/>
      <point x="68.5" y="244.5" type="line" smooth="yes"/>
      <point x="88" y="244.5"/>
      <point x="96.5" y="239.5"/>
      <point x="96.5" y="229.5" type="curve" smooth="yes"/>
      <point x="96.5" y="82" type="line" smooth="yes"/>
      <point x="96.5" y="64"/>
      <point x="104" y="53"/>
      <point x="124.5" y="53" type="curve" smooth="yes"/>
      <point x="143.5" y="53"/>
      <point x="156" y="69.5"/>
      <point x="161.5" y="80" type="curve"/>
      <point x="161.5" y="229.5" type="line" smooth="yes"/>
      <point x="161.5" y="239.5"/>
      <point x="170" y="244.5"/>
      <point x="189.5" y="244.5" type="curve" smooth="yes"/>
      <point x="202.5" y="244.5" type="line" smooth="yes"/>
      <point x="222.5" y="244.5"/>
      <point x="230.5" y="239.5"/>
      <point x="230.5" y="229.5" type="curve" smooth="yes"/>
      <point x="230.5" y="82" type="line" smooth="yes"/>
      <point x="230.5" y="34"/>
      <point x="236.5" y="24"/>
      <point x="236.5" y="14.5" type="curve" smooth="yes"/>
      <point x="236.5" y="8.5"/>
      <point x="224.5" y="4.5"/>
      <point x="211.5" y="2.5" type="curve"/>
      <point x="211.5" y="2" type="line" smooth="yes"/>
      <point x="211.5" y="-5"/>
      <point x="206.5" y="-11"/>
      <point x="206.5" y="-24.5" type="curve" smooth="yes"/>
      <point x="206.5" y="-47"/>
      <point x="224.5" y="-48"/>
      <point x="235.5" y="-48" type="curve" smooth="yes"/>
      <point x="247" y="-48"/>
      <point x="249.5" y="-44.5"/>
    </contour>
  </outline>
</glyph>
<glyph name="zacute" format="1">
  <advance width="228"/>
  <unicode hex="017A"/>
  <outline>
    <contour>
      <point x="114" y="244" type="move" name="Anchor-1"/>
    </contour>
    <contour>
      <point x="113" y="0" type="move" name="Anchor-0"/>
    </contour>
    <contour>
      <point x="95.5" y="268" type="curve" smooth="yes"/>
      <point x="84.5" y="268"/>
      <point x="81" y="270"/>
      <point x="81" y="275" type="curve" smooth="yes"/>
      <point x="81" y="280"/>
      <point x="90" y="291.5"/>
      <point x="111.5" y="329.5" type="curve" smooth="yes"/>
      <point x="117" y="339"/>
      <point x="132.5" y="342"/>
      <point x="151" y="342" type="curve" smooth="yes"/>
      <point x="169.5" y="342"/>
      <point x="179" y="340.5"/>
      <point x="179" y="335.5" type="curve" smooth="yes"/>
      <point x="179" y="330"/>
      <point x="176" y="329"/>
      <point x="130.5" y="279.5" type="curve" smooth="yes"/>
      <point x="125.5" y="274"/>
      <point x="117.5" y="268"/>
    </contour>
    <contour>
      <point x="26" y="0" type="line" smooth="yes"/>
      <point x="20" y="0"/>
      <point x="12.5" y="23.5"/>
      <point x="12.5" y="35.5" type="curve" smooth="yes"/>
      <point x="12.5" y="38"/>
      <point x="13" y="40.5"/>
      <point x="14" y="42" type="curve" smooth="yes"/>
      <point x="120.5" y="189" type="line"/>
      <point x="34" y="189" type="line" smooth="yes"/>
      <point x="24" y="189"/>
      <point x="20" y="196"/>
      <point x="20" y="212.5" type="curve" smooth="yes"/>
      <point x="20" y="220.5" type="line" smooth="yes"/>
      <point x="20" y="236.5"/>
      <point x="24" y="243.5"/>
      <point x="34" y="243.5" type="curve" smooth="yes"/>
      <point x="199" y="243.5" type="line" smooth="yes"/>
      <point x="204" y="243.5"/>
      <point x="212.5" y="221"/>
      <point x="212.5" y="208" type="curve" smooth="yes"/>
      <point x="212.5" y="204.5"/>
      <point x="212" y="202"/>
      <point x="211" y="201" type="curve" smooth="yes"/>
      <point x="105" y="54.5" type="line"/>
      <point x="200.5" y="54.5" type="line" smooth="yes"/>
      <point x="210" y="54.5"/>
      <point x="214.5" y="47.5"/>
      <point x="214.5" y="31" type="curve" smooth="yes"/>
      <point x="214.5" y="23.5" type="line" smooth="yes"/>
      <point x="214.5" y="7"/>
      <point x="210" y="0"/>
      <point x="200.5" y="0" type="curve" smooth="yes"/>
    </contour>
  </outline>
</glyph>
<glyph name="uni01C4" format="1">
  <advance width="611"/>
  <unicode hex="01C4"/>
  <outline>
    <contour>
      <point x="468" y="326" type="move" name="Anchor-1"/>
    </contour>
    <contour>
      <point x="463" y="0" type="move" name="Anchor-0"/>
    </contour>
    <contour>
      <point x="465" y="349" type="line" smooth="yes"/>
      <point x="451.5" y="349"/>
      <point x="441.5" y="349.5"/>
      <point x="436.5" y="358" type="curve" smooth="yes"/>
      <point x="406" y="405.5" type="line" smooth="yes"/>
      <point x="404.5" y="408"/>
      <point x="403.5" y="410.5"/>
      <point x="403.5" y="412.5" type="curve" smooth="yes"/>
      <point x="403.5" y="415.5"/>
      <point x="406" y="417"/>
      <point x="412.5" y="417" type="curve" smooth="yes"/>
      <point x="423" y="417" type="line" smooth="yes"/>
      <point x="436.5" y="417"/>
      <point x="447" y="415"/>
      <point x="454" y="405.5" type="curve" smooth="yes"/>
      <point x="467" y="387.5" type="line"/>
      <point x="480" y="406" type="line" smooth="yes"/>
      <point x="486.5" y="415"/>
      <point x="498.5" y="417"/>
      <point x="512" y="417" type="curve" smooth="yes"/>
      <point x="522" y="417" type="line" smooth="yes"/>
      <point x="528" y="417"/>
      <point x="531.5" y="415.5"/>
      <point x="531.5" y="412.5" type="curve" smooth="yes"/>
      <point x="531.5" y="410.5"/>
      <point x="530.5" y="408"/>
      <point x="528.5" y="405.5" type="curve" smooth="yes"/>
      <point x="498.5" y="358" type="line" smooth="yes"/>
      <point x="493.5" y="349.5"/>
      <point x="483.5" y="349"/>
      <point x="470" y="349" type="curve" smooth="yes"/>
    </contour>
    <contour>
      <point x="51" y="0" type="line" smooth="yes"/>
      <point x="37.5" y="0"/>
      <point x="32" y="5.5"/>
      <point x="32" y="18.5" type="curve" smooth="yes"/>
      <point x="32" y="307.5" type="line" smooth="yes"/>
      <point x="32" y="320.5"/>
      <point x="37.5" y="326"/>
      <point x="51" y="326" type="curve" smooth="yes"/>
      <point x="155" y="326" type="line" smooth="yes"/>
      <point x="251" y="326"/>
      <point x="304.5" y="268.5"/>
      <point x="304.5" y="163" type="curve" smooth="yes"/>
      <point x="304.5" y="58"/>
      <point x="251" y="0"/>
      <point x="155" y="0" type="curve" smooth="yes"/>
    </contour>
    <contour>
      <point x="355" y="0" type="line" smooth="yes"/>
      <point x="347" y="0"/>
      <point x="336.5" y="29"/>
      <point x="336.5" y="41.5" type="curve" smooth="yes"/>
      <point x="336.5" y="43.5"/>
      <point x="337" y="45"/>
      <point x="337.5" y="46" type="curve" smooth="yes"/>
      <point x="493.5" y="265" type="line"/>
      <point x="364" y="265" type="line" smooth="yes"/>
      <point x="354.5" y="265"/>
      <point x="350" y="272"/>
      <point x="350" y="288.5" type="curve" smooth="yes"/>
      <point x="350" y="303" type="line" smooth="yes"/>
      <point x="350" y="319"/>
      <point x="354.5" y="326"/>
      <point x="364" y="326" type="curve" smooth="yes"/>
      <point x="577" y="326" type="line" smooth="yes"/>
      <point x="584.5" y="326"/>
      <point x="594.5" y="295.5"/>
      <point x="594.5" y="283.5" type="curve" smooth="yes"/>
      <point x="594.5" y="281.5"/>
      <point x="594.5" y="280.5"/>
      <point x="594" y="279.5" type="curve" smooth="yes"/>
      <point x="438" y="61" type="line"/>
      <point x="580.5" y="61" type="line" smooth="yes"/>
      <point x="590" y="61"/>
      <point x="594.5" y="54"/>
      <point x="594.5" y="37.5" type="curve" smooth="yes"/>
      <point x="594.5" y="23.5" type="line" smooth="yes"/>
      <point x="594.5" y="7"/>
      <point x="590" y="0"/>
      <point x="580.5" y="0" type="curve" smooth="yes"/>
    </contour>
    <contour>
      <point x="104.5" y="61" type="line"/>
      <point x="155" y="61" type="line" smooth="yes"/>
      <point x="205" y="61"/>
      <point x="230.5" y="97"/>
      <point x="230.5" y="163" type="curve" smooth="yes"/>
      <point x="230.5" y="229.5"/>
      <point x="205" y="265"/>
      <point x="155" y="265" type="curve" smooth="yes"/>
      <point x="104.5" y="265" type="line"/>
    </contour>
  </outline>
</glyph>
<glyph name="uni01C7" format="1">
  <advance width="335"/>
  <unicode hex="01C7"/>
  <outline>
    <contour>
      <point x="209" y="-84.5" type="curve" smooth="yes"/>
      <point x="197.5" y="-84.5"/>
      <point x="151" y="-83"/>
      <point x="151" y="-63" type="curve" smooth="yes"/>
      <point x="151" y="-54.5"/>
      <point x="155.5" y="-21"/>
      <point x="170" y="-19.5" type="curve" smooth="yes"/>
      <point x="174.5" y="-19.5"/>
      <point x="181.5" y="-23.5"/>
      <point x="196" y="-23.5" type="curve" smooth="yes"/>
      <point x="224" y="-23.5"/>
      <point x="235.5" y="-9"/>
      <point x="235.5" y="25" type="curve" smooth="yes"/>
      <point x="235.5" y="312" type="line" smooth="yes"/>
      <point x="235.5" y="322"/>
      <point x="243.5" y="327.5"/>
      <point x="263.5" y="327.5" type="curve" smooth="yes"/>
      <point x="279.5" y="327.5" type="line" smooth="yes"/>
      <point x="299" y="327.5"/>
      <point x="307.5" y="322"/>
      <point x="307.5" y="312" type="curve" smooth="yes"/>
      <point x="307.5" y="19.5" type="line" smooth="yes"/>
      <point x="307.5" y="-39.5"/>
      <point x="278" y="-84.5"/>
    </contour>
    <contour>
      <point x="51" y="0" type="line" smooth="yes"/>
      <point x="37.5" y="0"/>
      <point x="32" y="5.5"/>
      <point x="32" y="18.5" type="curve" smooth="yes"/>
      <point x="32" y="312" type="line" smooth="yes"/>
      <point x="32" y="322"/>
      <point x="40.5" y="327"/>
      <point x="60" y="327" type="curve" smooth="yes"/>
      <point x="76" y="327" type="line" smooth="yes"/>
      <point x="95.5" y="327"/>
      <point x="104" y="322"/>
      <point x="104" y="312" type="curve" smooth="yes"/>
      <point x="104" y="61" type="line"/>
      <point x="175" y="61" type="line" smooth="yes"/>
      <point x="185" y="61"/>
      <point x="189" y="54"/>
      <point x="189" y="37.5" type="curve" smooth="yes"/>
      <point x="189" y="23.5" type="line" smooth="yes"/>
      <point x="189" y="7"/>
      <point x="185" y="0"/>
      <point x="175" y="0" type="curve" smooth="yes"/>
    </contour>
  </outline>
</glyph>
<glyph name="uni01C9" format="1">
  <advance width="267"/>
  <unicode hex="01C9"/>
  <outline>
    <contour>
      <point x="64" y="336" type="move" name="Anchor-1"/>
    </contour>
    <contour>
      <point x="86" y="0" type="move" name="Anchor-0"/>
    </contour>
    <contour>
      <point x="97.5" y="-3.5" type="curve" smooth="yes"/>
      <point x="53.5" y="-3.5"/>
      <point x="29.5" y="20"/>
      <point x="29.5" y="72" type="curve" smooth="yes"/>
      <point x="29.5" y="336.5" type="line" smooth="yes"/>
      <point x="29.5" y="346"/>
      <point x="37.5" y="351.5"/>
      <point x="57.5" y="351.5" type="curve" smooth="yes"/>
      <point x="70.5" y="351.5" type="line" smooth="yes"/>
      <point x="90" y="351.5"/>
      <point x="98.5" y="346"/>
      <point x="98.5" y="336.5" type="curve" smooth="yes"/>
      <point x="98.5" y="71" type="line" smooth="yes"/>
      <point x="98.5" y="57"/>
      <point x="103" y="51"/>
      <point x="115" y="51" type="curve" smooth="yes"/>
      <point x="119.5" y="51"/>
      <point x="125" y="52.5"/>
      <point x="127.5" y="52.5" type="curve" smooth="yes"/>
      <point x="137" y="52.5"/>
      <point x="142" y="23"/>
      <point x="142" y="19" type="curve" smooth="yes"/>
      <point x="142" y="-2.5"/>
      <point x="112" y="-3.5"/>
    </contour>
    <contour>
      <point x="199" y="284" type="line" smooth="yes"/>
      <point x="179.5" y="284"/>
      <point x="171" y="289"/>
      <point x="171" y="298.5" type="curve" smooth="yes"/>
      <point x="171" y="336.5" type="line" smooth="yes"/>
      <point x="171" y="346"/>
      <point x="179.5" y="351.5"/>
      <point x="199" y="351.5" type="curve" smooth="yes"/>
      <point x="212" y="351.5" type="line" smooth="yes"/>
      <point x="231.5" y="351.5"/>
      <point x="240" y="346"/>
      <point x="240" y="336.5" type="curve" smooth="yes"/>
      <point x="240" y="298.5" type="line" smooth="yes"/>
      <point x="240" y="289"/>
      <point x="231.5" y="284"/>
      <point x="212" y="284" type="curve" smooth="yes"/>
    </contour>
    <contour>
      <point x="172" y="-99" type="curve" smooth="yes"/>
      <point x="135" y="-99"/>
      <point x="123.5" y="-92.5"/>
      <point x="123.5" y="-74.5" type="curve" smooth="yes"/>
      <point x="123.5" y="-64"/>
      <point x="130.5" y="-42.5"/>
      <point x="140.5" y="-42.5" type="curve" smooth="yes"/>
      <point x="143" y="-42.5"/>
      <point x="149" y="-44.5"/>
      <point x="154.5" y="-44.5" type="curve" smooth="yes"/>
      <point x="166.5" y="-44.5"/>
      <point x="171" y="-38"/>
      <point x="171" y="-24" type="curve" smooth="yes"/>
      <point x="171" y="229.5" type="line" smooth="yes"/>
      <point x="171" y="239.5"/>
      <point x="179.5" y="244.5"/>
      <point x="199" y="244.5" type="curve" smooth="yes"/>
      <point x="212" y="244.5" type="line" smooth="yes"/>
      <point x="231.5" y="244.5"/>
      <point x="240" y="239.5"/>
      <point x="240" y="229.5" type="curve" smooth="yes"/>
      <point x="240" y="-23.5" type="line" smooth="yes"/>
      <point x="240" y="-74"/>
      <point x="210.5" y="-99"/>
    </contour>
  </outline>
</glyph>
<glyph name="uni01CC" format="1">
  <advance width="388"/>
  <unicode hex="01CC"/>
  <outline>
    <contour>
      <point x="130" y="244" type="move" name="Anchor-1"/>
    </contour>
    <contour>
      <point x="130" y="0" type="move" name="Anchor-0"/>
    </contour>
    <contour>
      <point x="320" y="284" type="line" smooth="yes"/>
      <point x="300.5" y="284"/>
      <point x="292" y="289"/>
      <point x="292" y="298.5" type="curve" smooth="yes"/>
      <point x="292" y="336.5" type="line" smooth="yes"/>
      <point x="292" y="346"/>
      <point x="300.5" y="351.5"/>
      <point x="320" y="351.5" type="curve" smooth="yes"/>
      <point x="333" y="351.5" type="line" smooth="yes"/>
      <point x="352.5" y="351.5"/>
      <point x="361" y="346"/>
      <point x="361" y="336.5" type="curve" smooth="yes"/>
      <point x="361" y="298.5" type="line" smooth="yes"/>
      <point x="361" y="289"/>
      <point x="352.5" y="284"/>
      <point x="333" y="284" type="curve" smooth="yes"/>
    </contour>
    <contour>
      <point x="57" y="-1" type="line" smooth="yes"/>
      <point x="37.5" y="-1"/>
      <point x="29" y="4"/>
      <point x="29" y="14" type="curve" smooth="yes"/>
      <point x="29" y="161.5" type="line" smooth="yes"/>
      <point x="29" y="208.5"/>
      <point x="23.5" y="218"/>
      <point x="23.5" y="227.5" type="curve" smooth="yes"/>
      <point x="23.5" y="238.5"/>
      <point x="64" y="242.5"/>
      <point x="75.5" y="242.5" type="curve" smooth="yes"/>
      <point x="90.5" y="242.5"/>
      <point x="91.5" y="223.5"/>
      <point x="94" y="212" type="curve"/>
      <point x="107.5" y="229.5"/>
      <point x="133.5" y="247.5"/>
      <point x="163.5" y="247.5" type="curve" smooth="yes"/>
      <point x="210" y="247.5"/>
      <point x="232" y="223.5"/>
      <point x="232" y="172" type="curve" smooth="yes"/>
      <point x="232" y="14" type="line" smooth="yes"/>
      <point x="232" y="4"/>
      <point x="223.5" y="-1"/>
      <point x="204" y="-1" type="curve" smooth="yes"/>
      <point x="191" y="-1" type="line" smooth="yes"/>
      <point x="171.5" y="-1"/>
      <point x="163" y="4"/>
      <point x="163" y="14" type="curve" smooth="yes"/>
      <point x="163" y="161.5" type="line" smooth="yes"/>
      <point x="163" y="180"/>
      <point x="155.5" y="190.5"/>
      <point x="135" y="190.5" type="curve" smooth="yes"/>
      <point x="116" y="190.5"/>
      <point x="103.5" y="174.5"/>
      <point x="98" y="163.5" type="curve"/>
      <point x="98" y="14" type="line" smooth="yes"/>
      <point x="98" y="4"/>
      <point x="89.5" y="-1"/>
      <point x="70" y="-1" type="curve" smooth="yes"/>
    </contour>
    <contour>
      <point x="293" y="-99" type="curve" smooth="yes"/>
      <point x="256" y="-99"/>
      <point x="244.5" y="-92.5"/>
      <point x="244.5" y="-74.5" type="curve" smooth="yes"/>
      <point x="244.5" y="-64"/>
      <point x="251.5" y="-42.5"/>
      <point x="261.5" y="-42.5" type="curve" smooth="yes"/>
      <point x="264" y="-42.5"/>
      <point x="270" y="-44.5"/>
      <point x="275.5" y="-44.5" type="curve" smooth="yes"/>
      <point x="287.5" y="-44.5"/>
      <point x="292" y="-38"/>
      <point x="292" y="-24" type="curve" smooth="yes"/>
      <point x="292" y="229.5" type="line" smooth="yes"/>
      <point x="292" y="239.5"/>
      <point x="300.5" y="244.5"/>
      <point x="320" y="244.5" type="curve" smooth="yes"/>
      <point x="333" y="244.5" type="line" smooth="yes"/>
      <point x="352.5" y="244.5"/>
      <point x="361" y="239.5"/>
      <point x="361" y="229.5" type="curve" smooth="yes"/>
      <point x="361" y="-23.5" type="line" smooth="yes"/>
      <point x="361" y="-74"/>
      <point x="331.5" y="-99"/>
    </contour>
  </outline>
</glyph>
